<svg width="65" height="65" viewBox="0 0 65 65" fill="none" xmlns="http://www.w3.org/2000/svg">
<path d="M12.8534 2.51626C14.9347 0.895448 17.6565 0 20.3607 0C21.9793 0 23.2876 0.555278 24.2808 1.43822C24.5485 1.67584 24.7861 1.93347 24.9987 2.1986C25.2114 1.93347 25.449 1.67584 25.7167 1.43822C26.7099 0.555278 28.0182 0 29.6368 0C32.341 0 35.0653 0.895448 37.1416 2.51626C38.7627 3.77439 40.031 5.51276 40.5288 7.61131C41.5795 7.78639 42.5126 8.32166 43.2681 9.02952C44.4689 10.1576 45.327 11.7884 45.8648 13.4667C46.4127 15.1701 46.6853 17.0835 46.6028 18.922C46.5603 19.8624 46.4227 20.8229 46.16 21.7409L46.3226 21.8159C47.2482 22.2511 47.9987 22.934 48.5616 23.8419C49.6248 25.5553 50 28.0215 50 31.1656C50 34.7799 48.6166 37.2336 46.8404 38.7569C45.9153 39.5502 44.8325 40.1384 43.6634 40.4827C43.2392 42.4373 42.3675 44.267 41.1167 45.8279C39.3081 48.089 36.4962 50 32.7188 50C29.6918 50 27.3077 48.3242 25.7768 46.7234C25.5052 46.4373 25.2465 46.1393 25.0013 45.8304C24.7551 46.1385 24.4956 46.4356 24.2232 46.7209C22.6922 48.3267 20.3082 50 17.2812 50C13.5013 50 10.6894 48.089 8.88327 45.8279C7.63067 44.2675 6.75721 42.4378 6.33162 40.4827C5.16337 40.1382 4.08141 39.5499 3.15705 38.7569C1.3809 37.2311 0 34.7799 0 31.1656C0 28.0215 0.375244 25.5553 1.43593 23.8419C1.99869 22.9091 2.83809 22.1747 3.83749 21.7409C3.58047 20.8217 3.43187 19.8756 3.39471 18.922C3.31215 17.0835 3.58483 15.1701 4.13269 13.4667C4.67054 11.7909 5.52609 10.1576 6.72937 9.02952C7.48194 8.29609 8.43529 7.80251 9.46865 7.61131C9.96898 5.51025 11.2348 3.77439 12.8534 2.51626ZM15.1599 5.47524C13.794 6.53827 12.9934 7.95398 12.9934 9.58479C12.9932 9.88188 12.9224 10.1747 12.7869 10.439C12.6514 10.7034 12.455 10.9318 12.2139 11.1055C11.9728 11.2791 11.6939 11.3931 11.4002 11.4379C11.1064 11.4827 10.8062 11.4571 10.5243 11.3632C10.1816 11.2481 9.81888 11.2756 9.29854 11.7659C8.71817 12.3087 8.13028 13.2916 7.70501 14.6123C7.27959 15.9501 7.08998 17.3517 7.14464 18.7544C7.20718 20.1451 7.5374 21.3006 8.05774 22.081C8.14383 22.2103 8.21357 22.3498 8.26537 22.4962H10.9721C12.7732 22.4959 14.5077 23.1771 15.827 24.4029C17.1464 25.6288 17.9528 27.3085 18.0843 29.1046C19.1619 29.5345 20.0566 30.3256 20.6152 31.3424C21.1739 32.3592 21.3617 33.5385 21.1465 34.6785C20.9314 35.8184 20.3266 36.8482 19.4358 37.5915C18.545 38.3349 17.4235 38.7455 16.2632 38.7532C15.103 38.7609 13.9761 38.3652 13.0755 37.6337C12.1749 36.9023 11.5566 35.8806 11.3263 34.7436C11.096 33.6066 11.2682 32.4249 11.8132 31.4008C12.3583 30.3766 13.2424 29.5738 14.3143 29.1296C14.1955 28.3283 13.7926 27.5965 13.179 27.0675C12.5655 26.5386 11.7823 26.2478 10.9721 26.2481H4.40536C4.03012 27.1186 3.75244 28.6218 3.75244 31.1656C3.75244 33.7194 4.68054 35.1201 5.60114 35.9105C6.6093 36.7734 7.71752 36.9985 8.03773 36.9985C8.53533 36.9985 9.01255 37.1961 9.36441 37.5479C9.71627 37.8998 9.91394 38.3769 9.91394 38.8744C9.91394 39.925 10.4943 41.8334 11.8152 43.4842C13.086 45.0775 14.8972 46.2481 17.2812 46.2481C18.8748 46.2481 20.3407 45.3527 21.509 44.1321C22.0743 43.5368 22.5146 42.919 22.8048 42.4187C22.9146 42.2316 23.0108 42.0369 23.0925 41.8359L23.1075 41.8009V18.1191H20.8661C20.4307 19.1953 19.6344 20.0865 18.6139 20.6402C17.5933 21.1938 16.4119 21.3753 15.2722 21.1535C14.1325 20.9318 13.1054 20.3206 12.367 19.4247C11.6285 18.5288 11.2247 17.404 11.2247 16.2431C11.2247 15.0822 11.6285 13.9574 12.367 13.0615C13.1054 12.1657 14.1325 11.5545 15.2722 11.3327C16.4119 11.111 17.5933 11.2925 18.6139 11.8461C19.6344 12.3997 20.4307 13.291 20.8661 14.3672H23.1075V8.01901L23.1 7.87644C23.0572 7.1061 22.9056 6.34568 22.6497 5.61781C22.4246 5.01751 22.1319 4.54977 21.7867 4.24212C21.479 3.96698 21.0537 3.75188 20.3607 3.75188C18.4445 3.75188 16.5458 4.3972 15.1574 5.47774L15.1599 5.47524ZM26.8925 37.5038V41.8009L26.905 41.8359C26.955 41.9685 27.0501 42.1661 27.1952 42.4187C27.4829 42.919 27.9231 43.5368 28.491 44.1321C29.6568 45.3527 31.1252 46.2481 32.7188 46.2481C35.1003 46.2481 36.9115 45.0775 38.1848 43.4842C39.5032 41.8334 40.0861 39.9225 40.0861 38.8744C40.0861 38.3769 40.2837 37.8998 40.6356 37.5479C40.9874 37.1961 41.4647 36.9985 41.9623 36.9985C42.2825 36.9985 43.3882 36.7734 44.3989 35.9105C45.317 35.1201 46.2451 33.7194 46.2451 31.1656C46.2451 28.1441 45.8498 26.5883 45.372 25.8204C45.2224 25.5548 44.9956 25.3411 44.7216 25.2076C44.4689 25.0875 44.0887 24.9975 43.5008 24.9975C43.1612 24.9975 42.828 24.9053 42.5367 24.7308C42.2454 24.5563 42.0069 24.3061 41.8467 24.0067C41.6865 23.7074 41.6105 23.3701 41.6269 23.031C41.6433 22.6919 41.7514 22.3636 41.9398 22.081C42.4601 21.2981 42.7903 20.1451 42.8554 18.7544C42.9092 17.3515 42.7187 15.95 42.2925 14.6123C41.8672 13.2916 41.2793 12.3112 40.7015 11.7659C40.1786 11.2756 39.8159 11.2481 39.4757 11.3632C39.1936 11.4576 38.8932 11.4835 38.5991 11.439C38.305 11.3944 38.0258 11.2806 37.7844 11.1069C37.5429 10.9332 37.3463 10.7046 37.2106 10.4399C37.0749 10.1753 37.0041 9.88217 37.0041 9.58479C37.0041 7.95398 36.2035 6.53827 34.8376 5.47524C33.4542 4.3972 31.553 3.74938 29.6343 3.74938C28.9438 3.74938 28.521 3.96698 28.2108 4.23962C27.8192 4.62366 27.5242 5.09514 27.3503 5.61531C27.0697 6.38681 26.9152 7.19841 26.8925 8.01901V33.7519H28.4835C29.3792 33.7519 30.2382 33.3961 30.8716 32.7629C31.5049 32.1296 31.8607 31.2707 31.8607 30.3752V25.8854C30.7843 25.4501 29.8929 24.654 29.3392 23.6336C28.7855 22.6132 28.604 21.432 28.8258 20.2924C29.0476 19.1529 29.6589 18.126 30.5549 17.3876C31.4509 16.6493 32.5758 16.2455 33.7369 16.2455C34.898 16.2455 36.023 16.6493 36.919 17.3876C37.815 18.126 38.4263 19.1529 38.6481 20.2924C38.8698 21.432 38.6883 22.6132 38.1346 23.6336C37.5809 24.654 36.6895 25.4501 35.6131 25.8854V30.3752C35.6131 32.2658 34.862 34.079 33.5249 35.4158C32.1879 36.7527 30.3744 37.5038 28.4835 37.5038H26.8925ZM16.2255 14.9925C15.8938 14.9925 15.5757 15.1243 15.3411 15.3588C15.1065 15.5933 14.9747 15.9114 14.9747 16.2431C14.9747 16.5748 15.1065 16.8929 15.3411 17.1274C15.5757 17.362 15.8938 17.4937 16.2255 17.4937C16.5573 17.4937 16.8754 17.362 17.11 17.1274C17.3446 16.8929 17.4764 16.5748 17.4764 16.2431C17.4764 15.9114 17.3446 15.5933 17.11 15.3588C16.8754 15.1243 16.5573 14.9925 16.2255 14.9925ZM14.9747 33.7519C14.9747 34.0836 15.1065 34.4017 15.3411 34.6362C15.5757 34.8707 15.8938 35.0025 16.2255 35.0025C16.5573 35.0025 16.8754 34.8707 17.11 34.6362C17.3446 34.4017 17.4764 34.0836 17.4764 33.7519C17.4764 33.4202 17.3446 33.1021 17.11 32.8675C16.8754 32.633 16.5573 32.5013 16.2255 32.5013C15.8938 32.5013 15.5757 32.633 15.3411 32.8675C15.1065 33.1021 14.9747 33.4202 14.9747 33.7519ZM32.4861 21.2456C32.4861 21.5773 32.6179 21.8954 32.8525 22.1299C33.087 22.3645 33.4052 22.4962 33.7369 22.4962C34.0687 22.4962 34.3868 22.3645 34.6214 22.1299C34.856 21.8954 34.9877 21.5773 34.9877 21.2456C34.9877 20.9139 34.856 20.5958 34.6214 20.3613C34.3868 20.1268 34.0687 19.995 33.7369 19.995C33.4052 19.995 33.087 20.1268 32.8525 20.3613C32.6179 20.5958 32.4861 20.9139 32.4861 21.2456Z" fill="url(#paint0_linear_67_11245)"/>
<defs>
<linearGradient id="paint0_linear_67_11245" x1="-4.67124e-08" y1="32.0796" x2="50.0002" y2="32.0677" gradientUnits="userSpaceOnUse">
<stop stop-color="#7171F4"/>
<stop offset="0.505208" stop-color="#208BC9"/>
<stop offset="1" stop-color="#1DA29E"/>
</linearGradient>
</defs>
</svg>
