<svg width="65" height="65" viewBox="0 0 65 65" fill="none" xmlns="http://www.w3.org/2000/svg">
<path d="M6.11111 6.13043C6.11111 4.50454 6.75496 2.94524 7.90101 1.79556C9.04707 0.645883 10.6015 0 12.2222 0H44.8148C46.4356 0 47.99 0.645883 49.136 1.79556C50.2821 2.94524 50.9259 4.50454 50.9259 6.13043V26.5652C50.9259 28.1911 50.2821 29.7504 49.136 30.9001C47.99 32.0498 46.4356 32.6957 44.8148 32.6957H28.5185V28.6087H44.8148C45.3551 28.6087 45.8732 28.3934 46.2552 28.0102C46.6372 27.6269 46.8519 27.1072 46.8519 26.5652V6.13043C46.8519 5.58847 46.6372 5.0687 46.2552 4.68548C45.8732 4.30225 45.3551 4.08696 44.8148 4.08696H12.2222C11.682 4.08696 11.1638 4.30225 10.7818 4.68548C10.3998 5.0687 10.1852 5.58847 10.1852 6.13043H8.14815C7.44333 6.13043 6.76296 6.22035 6.11111 6.38791V6.13043ZM52.963 40.8696H28.5185V36.7826H52.963C53.5032 36.7826 54.0214 36.9979 54.4034 37.3811C54.7854 37.7644 55 38.2841 55 38.8261C55 39.368 54.7854 39.8878 54.4034 40.271C54.0214 40.6543 53.5032 40.8696 52.963 40.8696ZM12.2222 40.8696C12.7625 40.8696 13.2806 40.6543 13.6626 40.271C14.0446 39.8878 14.2593 39.368 14.2593 38.8261C14.2593 38.2841 14.0446 37.7644 13.6626 37.3811C13.2806 36.9979 12.7625 36.7826 12.2222 36.7826C11.682 36.7826 11.1638 36.9979 10.7818 37.3811C10.3998 37.7644 10.1852 38.2841 10.1852 38.8261C10.1852 39.368 10.3998 39.8878 10.7818 40.271C11.1638 40.6543 11.682 40.8696 12.2222 40.8696ZM0 16.3478C0 14.7219 0.643848 13.1626 1.7899 12.013C2.93596 10.8633 4.49034 10.2174 6.11111 10.2174H18.3333C19.9541 10.2174 21.5085 10.8633 22.6545 12.013C23.8006 13.1626 24.4444 14.7219 24.4444 16.3478V40.8696C24.4444 42.4955 23.8006 44.0548 22.6545 45.2044C21.5085 46.3541 19.9541 47 18.3333 47H6.11111C4.49034 47 2.93596 46.3541 1.7899 45.2044C0.643848 44.0548 0 42.4955 0 40.8696V16.3478ZM6.11111 14.3043C5.57086 14.3043 5.05273 14.5196 4.67071 14.9029C4.28869 15.2861 4.07407 15.8059 4.07407 16.3478V40.8696C4.07407 41.4115 4.28869 41.9313 4.67071 42.3145C5.05273 42.6978 5.57086 42.913 6.11111 42.913H18.3333C18.8736 42.913 19.3917 42.6978 19.7737 42.3145C20.1558 41.9313 20.3704 41.4115 20.3704 40.8696V16.3478C20.3704 15.8059 20.1558 15.2861 19.7737 14.9029C19.3917 14.5196 18.8736 14.3043 18.3333 14.3043H6.11111Z" fill="url(#paint0_linear_67_11027)"/>
<defs>
<linearGradient id="paint0_linear_67_11027" x1="-5.13837e-08" y1="30.1548" x2="55.0002" y2="30.1395" gradientUnits="userSpaceOnUse">
<stop stop-color="#7171F4"/>
<stop offset="0.505208" stop-color="#208BC9"/>
<stop offset="1" stop-color="#1DA29E"/>
</linearGradient>
</defs>
</svg>
