<svg width="71" height="68" viewBox="0 0 71 68" fill="none" xmlns="http://www.w3.org/2000/svg">
<path d="M4.07706 4.22822C4.09706 4.22489 4.11715 4.22205 4.1373 4.2197C16.9158 2.7296 29.7629 1.90641 42.6266 1.75347C45.5299 1.70063 48.0457 2.24947 50.2749 3.56823C52.4903 4.8789 54.3217 6.89052 55.9647 9.59696C57.5474 12.0505 60.3462 16.7915 62.9225 21.4403C65.4613 26.0214 67.8707 30.6655 68.6344 32.9243C69.0272 33.8569 69.2361 34.8572 69.2493 35.8697C69.2628 36.8999 69.0734 37.9228 68.6919 38.8797L67.5308 38.4169L68.6919 38.8798C68.3104 39.8367 67.7443 40.709 67.0259 41.4467C66.3074 42.1844 65.4507 42.7729 64.5047 43.1785L64.4875 43.1857C64.1124 43.3399 63.7274 43.4688 63.3351 43.5714C58.8592 44.8021 51.5301 46.3083 46.2864 47.3268C41.8653 48.5619 37.1905 48.5577 32.7711 47.3141C21.8305 44.3379 8.257 39.7167 5.282 38.5765C3.42284 37.9604 2.96805 36.0676 3.16494 34.7638C3.26902 34.0745 3.56568 33.3454 4.11705 32.8084C4.70878 32.2322 5.55147 31.9318 6.49333 32.1492C8.12529 32.5106 24.0527 35.9731 26.5365 36.4184C26.5801 36.4262 26.6233 36.4363 26.6658 36.4487C27.393 36.6606 28.1661 36.6539 28.8896 36.4294C29.5565 36.2224 30.1544 35.8386 30.6207 35.3196C30.8924 34.6122 31.0235 33.8576 31.006 33.0985C30.9871 32.2774 30.7947 31.4698 30.4417 30.729C30.4283 30.701 30.416 30.6725 30.4048 30.6436C28.9557 26.9107 25.2012 17.3841 23.5759 14.3048C23.5581 14.2711 23.5419 14.2366 23.5272 14.2014C23.0989 13.1717 22.3976 12.2796 21.4998 11.6217C20.602 10.9639 19.542 10.5652 18.4347 10.4687L18.4298 10.4683V10.4683C15.6759 10.2173 10.6189 9.97607 7.12449 9.80936C5.75973 9.74425 4.63332 9.69051 3.97552 9.652C3.87201 9.64594 3.76967 9.62703 3.67084 9.5957C3.32076 9.48473 2.99655 9.30475 2.71722 9.0665C2.4379 8.82826 2.20912 8.53659 2.04418 8.20876L3.15418 7.65031L2.04418 8.20876C1.87925 7.88093 1.78144 7.52348 1.75642 7.15742C1.73141 6.79155 1.77961 6.42432 1.89822 6.07727L4.07706 4.22822ZM4.07706 4.22822C3.5804 4.31079 3.11564 4.52661 2.73204 4.85241M4.07706 4.22822L2.73204 4.85241M2.73204 4.85241C2.34875 5.17794 2.06082 5.60108 1.8984 6.07675L2.73204 4.85241ZM43.5809 40.6459C43.5729 40.646 43.565 40.6462 43.557 40.6464C43.0106 40.6386 42.4855 40.424 42.0884 40.043C41.6723 39.6438 41.4309 39.0946 41.4182 38.5159C41.4055 37.9373 41.6227 37.3779 42.021 36.9606C42.4179 36.545 42.9619 36.3044 43.5341 36.2901C44.1063 36.2848 44.6581 36.5066 45.0687 36.9082C45.4808 37.3114 45.7169 37.8629 45.7239 38.4415C45.7309 39.0201 45.5084 39.5772 45.1061 39.9903C44.704 40.4034 44.1553 40.6389 43.5809 40.6459ZM55.9031 25.755C55.8449 25.7614 55.7868 25.7719 55.7293 25.7867C53.4711 26.3646 45.3264 27.5611 42.0233 27.929C42.0104 27.9304 41.9974 27.9321 41.9845 27.9339C40.2513 28.1821 39.0972 28.107 38.2919 27.7878C37.5546 27.4955 36.9662 26.9405 36.4842 25.8429C36.4656 25.8006 36.4448 25.7595 36.4217 25.7195C36.2255 25.3804 35.8226 24.499 35.2898 23.2521C34.7705 22.0371 34.16 20.5522 33.5585 19.0669C32.6435 16.807 31.7577 14.566 31.2514 13.2852C31.0939 12.8867 30.9731 12.5812 30.8996 12.3969C30.3547 10.9712 30.6008 10.4752 30.7048 10.3355C30.8583 10.1291 31.2661 9.89942 32.1398 9.81564C32.1524 9.81443 32.1649 9.81303 32.1775 9.81144C33.5149 9.64209 39.2413 9.14941 42.5457 8.8651C43.0732 8.81971 43.5391 8.77963 43.9155 8.74702C45.7632 8.60352 47.0202 8.89631 48.0222 9.51553C49.0535 10.1529 49.9609 11.2249 50.9354 12.9224L50.9444 12.9379C53.2409 16.8082 55.3032 20.3928 57.0648 23.5581C57.4165 24.1933 57.3651 24.6116 57.2347 24.8685C57.0973 25.1394 56.7315 25.5075 55.9031 25.755ZM62.8018 36.2934C62.4989 36.5921 62.1031 36.7736 61.6841 36.81C61.6301 36.8031 61.5755 36.7998 61.5206 36.8001C61.1557 36.8019 60.7983 36.6945 60.4942 36.4913C60.1901 36.288 59.9529 35.998 59.8136 35.6581C59.6743 35.3181 59.6394 34.9441 59.7135 34.5839C59.7876 34.2238 59.9671 33.8945 60.2287 33.638C60.4902 33.3815 60.8218 33.2095 61.1808 33.1435C61.5397 33.0775 61.9102 33.1205 62.2449 33.267C62.5796 33.4135 62.8636 33.6571 63.06 33.967C63.2565 34.277 63.3563 34.639 63.3464 35.0066H63.3463L63.3461 35.02C63.3383 35.5002 63.1425 35.9575 62.8018 36.2934Z" stroke="url(#paint0_linear_67_11242)" stroke-width="2.5" stroke-linecap="round" stroke-linejoin="round"/>
<defs>
<linearGradient id="paint0_linear_67_11242" x1="3" y1="31.2301" x2="68.0003" y2="31.2072" gradientUnits="userSpaceOnUse">
<stop stop-color="#7171F4"/>
<stop offset="0.505208" stop-color="#208BC9"/>
<stop offset="1" stop-color="#1DA29E"/>
</linearGradient>
</defs>
</svg>
