<svg width="25" height="25" viewBox="0 0 25 25" fill="none" xmlns="http://www.w3.org/2000/svg">
<path d="M13.308 4.14062H11.6414V13.4172L17.6629 16.2791L18.3783 14.7738L13.308 12.364V4.14062Z" fill="#1DA29F"/>
<path d="M12.5 0C5.59646 0 0 5.59646 0 12.5C0 19.4035 5.59646 25 12.5 25C19.4035 25 25 19.4035 25 12.5C25 5.59646 19.4035 0 12.5 0ZM12.5 23.3333C6.51693 23.3333 1.66667 18.4831 1.66667 12.5C1.66667 6.51693 6.51693 1.66667 12.5 1.66667C18.4831 1.66667 23.3333 6.51693 23.3333 12.5C23.3333 18.4831 18.4831 23.3333 12.5 23.3333Z" fill="#1DA29F"/>
</svg>
