<svg width="38" height="38" viewBox="0 0 38 38" fill="none" xmlns="http://www.w3.org/2000/svg">
<path d="M34.0417 6.33203H30.6111V8.44314H33.7778V31.6654H4.22222V8.44314H7.38889V6.33203H3.95833C3.71158 6.33615 3.46806 6.38885 3.24168 6.4871C3.0153 6.58535 2.81049 6.72724 2.63895 6.90466C2.46742 7.08208 2.33251 7.29155 2.24194 7.52112C2.15137 7.75068 2.10692 7.99584 2.11111 8.24259V31.8659C2.10692 32.1127 2.15137 32.3578 2.24194 32.5874C2.33251 32.817 2.46742 33.0264 2.63895 33.2038C2.81049 33.3813 3.0153 33.5232 3.24168 33.6214C3.46806 33.7197 3.71158 33.7724 3.95833 33.7765H34.0417C34.2884 33.7724 34.5319 33.7197 34.7583 33.6214C34.9847 33.5232 35.1895 33.3813 35.361 33.2038C35.5326 33.0264 35.6675 32.817 35.7581 32.5874C35.8486 32.3578 35.8931 32.1127 35.8889 31.8659V8.24259C35.8931 7.99584 35.8486 7.75068 35.7581 7.52112C35.6675 7.29155 35.5326 7.08208 35.361 6.90466C35.1895 6.72724 34.9847 6.58535 34.7583 6.4871C34.5319 6.38885 34.2884 6.33615 34.0417 6.33203Z" fill="#1DA29F"/>
<path d="M10.5556 10.5558C10.8355 10.5558 11.104 10.4446 11.3019 10.2466C11.4999 10.0487 11.6111 9.78017 11.6111 9.50022V3.16688C11.6111 2.88693 11.4999 2.61845 11.3019 2.42049C11.104 2.22254 10.8355 2.11133 10.5556 2.11133C10.2756 2.11133 10.0071 2.22254 9.80917 2.42049C9.61121 2.61845 9.5 2.88693 9.5 3.16688V9.50022C9.5 9.78017 9.61121 10.0487 9.80917 10.2466C10.0071 10.4446 10.2756 10.5558 10.5556 10.5558Z" fill="#1DA29F"/>
<path d="M27.4445 10.5558C27.7244 10.5558 27.9929 10.4446 28.1909 10.2466C28.3888 10.0487 28.5 9.78017 28.5 9.50022V3.16688C28.5 2.88693 28.3888 2.61845 28.1909 2.42049C27.9929 2.22254 27.7244 2.11133 27.4445 2.11133C27.1645 2.11133 26.896 2.22254 26.6981 2.42049C26.5001 2.61845 26.3889 2.88693 26.3889 3.16688V9.50022C26.3889 9.78017 26.5001 10.0487 26.6981 10.2466C26.896 10.4446 27.1645 10.5558 27.4445 10.5558Z" fill="#1DA29F"/>
<path d="M13.7219 6.33203H24.2775V8.44314H13.7219V6.33203Z" fill="#1DA29F"/>
</svg>
