<svg width="66" height="67" viewBox="0 0 66 67" fill="none" xmlns="http://www.w3.org/2000/svg">
<path d="M35.2032 55.897L35.2032 55.897L35.1978 55.8989C32.5446 56.8727 30.7988 58.6669 30.7988 60.8073C30.7988 62.4696 31.8479 63.8919 33.4324 64.8765C35.0205 65.8632 37.1974 66.4498 39.6132 66.4498C42.0246 66.4498 44.2015 65.8653 45.7906 64.8797C47.3762 63.8962 48.4275 62.4738 48.4275 60.8073C48.4275 58.6394 46.6532 56.8461 43.9681 55.8815L43.9681 55.8815L43.9655 55.8806C43.4596 55.7022 42.8932 55.9541 42.709 56.4755C42.5301 56.9817 42.7828 57.5473 43.3035 57.7314C45.3812 58.4686 46.4584 59.6994 46.4584 60.7991C46.4584 61.6777 45.7933 62.5891 44.5228 63.3076C43.2705 64.0158 41.5252 64.4735 39.6132 64.4735C37.7012 64.4735 35.9559 64.0158 34.7036 63.3076C33.433 62.5891 32.768 61.6777 32.768 60.7991C32.768 59.7133 33.8238 58.4921 35.8669 57.7472C36.3865 57.5625 36.6384 56.9976 36.4598 56.4919C36.2756 55.9705 35.7092 55.7186 35.2032 55.897Z" fill="url(#paint0_linear_20_10293)" stroke="url(#paint1_linear_20_10293)" stroke-width="0.9"/>
<path d="M43.3624 58.4399L43.3634 58.439L43.3672 58.4353C45.4577 56.4289 47.7245 54.2532 49.4646 51.8253C51.2097 49.3904 52.4501 46.6685 52.4501 43.5638C52.4501 36.5036 46.6964 30.757 39.6221 30.757C32.548 30.757 26.7941 36.4952 26.7941 43.5638C26.7941 46.6959 27.9664 49.3734 29.6701 51.7809C31.3664 54.1782 33.6094 56.3341 35.7768 58.4174L35.7806 58.4211C35.7809 58.4213 35.7811 58.4215 35.7814 58.4218C35.8838 58.521 35.9856 58.6195 36.0867 58.7175C37.0669 59.6664 37.9901 60.5601 38.8528 61.4731C39.0443 61.6905 39.3098 61.7932 39.5728 61.7932C39.8338 61.7932 40.0957 61.6869 40.2938 61.489L40.2992 61.4836L40.3044 61.4781C41.2324 60.486 42.2605 59.4914 43.3624 58.4399ZM37.1379 57.0097L37.1377 57.0095C35.0382 54.9904 32.9398 52.9692 31.3613 50.7669C29.7879 48.5717 28.7551 46.2282 28.7551 43.5721C28.7551 37.6018 33.6275 32.7333 39.6139 32.7333C45.6002 32.7333 50.4644 37.5935 50.4644 43.5638C50.4644 46.189 49.4211 48.5257 47.8285 50.7284C46.2312 52.9376 44.1078 54.9777 41.9834 57.0174L41.9826 57.0182L41.897 57.1007C41.0862 57.883 40.3061 58.6356 39.5656 59.3849C38.8627 58.6699 38.1223 57.9573 37.3968 57.2589C37.3103 57.1756 37.224 57.0926 37.1379 57.0097Z" fill="url(#paint2_linear_20_10293)" stroke="url(#paint3_linear_20_10293)" stroke-width="0.9"/>
<path d="M34.2941 42.9396C34.2941 45.8757 36.6843 48.2535 39.6131 48.2535C42.5434 48.2535 44.9238 45.866 44.9238 42.9396C44.9238 40.0122 42.5424 37.634 39.6131 37.634C36.6848 37.634 34.2941 40.0112 34.2941 42.9396ZM36.2633 42.9396C36.2633 41.1023 37.7633 39.602 39.6131 39.602C41.4541 39.602 42.9546 41.1017 42.9546 42.9396C42.9546 44.7775 41.454 46.2772 39.6131 46.2772C37.7633 46.2772 36.2633 44.7768 36.2633 42.9396Z" fill="url(#paint4_linear_20_10293)" stroke="url(#paint5_linear_20_10293)" stroke-width="0.9"/>
<path d="M12.6706 35.3698L12.5198 35.7938C13.2012 36.0361 13.7289 36.3605 14.0791 36.7094C14.4295 37.0586 14.581 37.4085 14.581 37.7196C14.581 38.2317 14.1796 38.811 13.3152 39.2895C12.4713 39.7567 11.286 40.063 9.98114 40.063C8.67624 40.063 7.48871 39.7567 6.64261 39.2893C5.77557 38.8104 5.37301 38.231 5.37301 37.7196C5.37301 37.4124 5.5226 37.0664 5.86858 36.7199C6.21386 36.3741 6.73343 36.052 7.4022 35.81C7.92224 35.6254 8.17433 35.0602 7.99562 34.5544C7.81139 34.033 7.24503 33.7811 6.73907 33.9595L6.73906 33.9595L6.73446 33.9612C4.75922 34.6818 3.41206 36.0503 3.41206 37.7278C3.41206 39.017 4.21265 40.1069 5.39665 40.8527C6.58322 41.6002 8.20185 42.0393 9.98935 42.0393C11.7729 42.0393 13.3896 41.6001 14.5742 40.8525C15.756 40.1067 16.5548 39.0165 16.5502 37.7269M12.6706 35.3698L12.5209 35.7942C11.9996 35.6104 11.7465 35.0445 11.9255 34.538C12.1097 34.0165 12.6856 33.7633 13.1852 33.9442C15.193 34.6644 16.5497 36.0404 16.5502 37.7269M12.6706 35.3698C14.1263 35.8874 15.031 36.7912 15.031 37.7196C15.031 39.2313 12.7199 40.513 9.98114 40.513C7.24236 40.513 4.92301 39.2313 4.92301 37.7196C4.92301 36.7994 5.8195 35.9039 7.25058 35.3863L13.0324 34.3675C12.761 34.2689 12.4485 34.4086 12.3498 34.6879C12.2511 34.9672 12.3909 35.2712 12.6706 35.3698ZM16.5502 37.7269C16.5502 37.7266 16.5502 37.7264 16.5502 37.7261L16.1002 37.7278H16.5502C16.5502 37.7275 16.5502 37.7272 16.5502 37.7269Z" fill="url(#paint6_linear_20_10293)" stroke="url(#paint7_linear_20_10293)" stroke-width="0.9"/>
<path d="M7.0456 36.2289L7.04641 36.2297L7.10207 36.283C7.87042 37.0185 8.5806 37.6983 9.23566 38.3996C9.42727 38.6178 9.69322 38.7208 9.95657 38.7208C10.2195 38.7208 10.485 38.6181 10.6766 38.4006C11.3404 37.6974 12.0627 37.0001 12.8419 36.2544L12.8422 36.2542C14.3457 34.8136 15.9874 33.2405 17.2487 31.4772C18.514 29.7082 19.4207 27.7157 19.4207 25.4293C19.4207 20.2264 15.189 15.9992 9.98945 15.9992C4.78168 15.9992 0.55 20.2346 0.55 25.4293C0.55 29.9796 3.9121 33.2142 6.98587 36.1715L7.0456 36.2289ZM2.51918 25.4375C2.51918 21.3238 5.87029 17.9755 9.98945 17.9755C14.1004 17.9755 17.4515 21.3238 17.4515 25.4293C17.4515 27.2361 16.7275 28.8578 15.6075 30.4028C14.483 31.954 12.9864 33.3924 11.4789 34.8406C11.4789 34.8407 11.4789 34.8407 11.4789 34.8407L11.4322 34.8855C10.9251 35.3726 10.4294 35.8487 9.95654 36.3233C9.44852 35.8131 8.92419 35.3098 8.40978 34.8162C6.92284 33.3845 5.44735 31.963 4.33855 30.4207C3.23465 28.8852 2.51918 27.2629 2.51918 25.4375Z" fill="url(#paint8_linear_20_10293)" stroke="url(#paint9_linear_20_10293)" stroke-width="0.9"/>
<path d="M5.91255 24.9709C5.91255 27.2164 7.74293 29.0441 9.98959 29.0441C12.2362 29.0441 14.0666 27.2164 14.0666 24.9709C14.0666 22.7254 12.2362 20.8977 9.98959 20.8977C7.74293 20.8977 5.91255 22.7254 5.91255 24.9709ZM7.88176 24.9791C7.88176 23.8149 8.82305 22.8739 9.98959 22.8739C11.1488 22.8739 12.0974 23.8159 12.0974 24.9791C12.0974 26.1424 11.1489 27.0843 9.98959 27.0843C8.83033 27.0843 7.88176 26.1424 7.88176 24.9791Z" fill="url(#paint10_linear_20_10293)" stroke="url(#paint11_linear_20_10293)" stroke-width="0.9"/>
<path d="M31.7674 15.5397L31.6154 15.9633C32.0983 16.1366 32.4633 16.3599 32.7 16.5897C32.9378 16.8206 33.0199 17.0298 33.0199 17.1911C33.0199 17.4791 32.7831 17.856 32.1642 18.1883C31.5683 18.5083 30.7226 18.7212 29.7853 18.7212C28.8487 18.7212 28.003 18.5065 27.4069 18.1855C26.7867 17.8515 26.5507 17.4745 26.5507 17.1911C26.5507 17.0281 26.6323 16.8206 26.8651 16.5922C27.0967 16.3649 27.4532 16.1442 27.9232 15.9712C28.4423 15.7861 28.6939 15.2216 28.5153 14.7161C28.3311 14.1947 27.7648 13.9428 27.2588 14.1212L27.2588 14.1212L27.2544 14.1228C25.6788 14.6967 24.5815 15.8035 24.5815 17.1911C24.5815 18.2469 25.2282 19.1334 26.1662 19.7349C27.1063 20.3376 28.3826 20.6893 29.7853 20.6893C31.188 20.6893 32.4643 20.3376 33.4044 19.7349C34.3424 19.1334 34.9891 18.2469 34.9891 17.1911C34.9891 15.8007 33.8717 14.6868 32.2818 14.114L32.2818 14.114L32.2789 14.113C31.773 13.9346 31.2066 14.1864 31.0224 14.7079C30.8434 15.2144 31.0964 15.7803 31.6178 15.9641L31.7674 15.5397ZM31.7674 15.5397C31.4878 15.4412 31.348 15.1371 31.4466 14.8578C31.5453 14.5785 31.8497 14.4388 32.1293 14.5374L27.4084 14.5456C27.688 14.447 27.9923 14.5867 28.091 14.866C28.1897 15.1454 28.0499 15.4493 27.7703 15.5479C26.7422 15.9259 26.1007 16.5503 26.1007 17.1911C26.1007 18.2592 27.7867 19.1712 29.7853 19.1712C31.7839 19.1712 33.4699 18.2674 33.4699 17.1911C33.4699 16.5503 32.8202 15.9177 31.7674 15.5397Z" fill="url(#paint12_linear_20_10293)" stroke="url(#paint13_linear_20_10293)" stroke-width="0.9"/>
<path d="M30.1639 17.5552L30.4919 17.8633C30.8782 17.4521 31.2979 17.0472 31.7465 16.6146C31.8696 16.4958 31.9949 16.3749 32.1223 16.2513L32.1271 16.2467C33.267 15.1529 34.5212 13.9494 35.4866 12.5963C36.458 11.2348 37.1607 9.69024 37.1607 7.90963C37.1607 3.84845 33.8581 0.55 29.7938 0.55C25.7295 0.55 22.427 3.84845 22.427 7.90963C22.427 9.70417 23.1174 11.2479 24.0762 12.6049C25.0275 13.9512 26.2642 15.1418 27.3908 16.2264L27.4009 16.2361L27.4018 16.237C27.9914 16.8015 28.5331 17.3265 29.0407 17.8655C29.2323 18.0832 29.4979 18.1859 29.7609 18.1859C30.0362 18.1859 30.2943 18.0748 30.4927 17.8624L30.1639 17.5552ZM30.1639 17.5552C30.0488 17.6784 29.909 17.7359 29.7609 17.7359C29.6129 17.7359 29.4731 17.6784 29.3744 17.5634L27.713 15.912C25.443 13.7265 22.877 11.2535 22.877 7.90963C22.877 4.09742 25.9776 1 29.7938 1C33.61 1 36.7107 4.09742 36.7107 7.90963C36.7107 11.2207 34.1035 13.7265 31.8088 15.9284C31.6842 16.0494 31.5607 16.1685 31.4386 16.2862C30.9888 16.7201 30.5585 17.1351 30.1639 17.5552ZM30.7401 14.8319L30.7401 14.8319L30.6884 14.8817C30.3703 15.1879 30.0615 15.4851 29.7609 15.7834C29.432 15.4567 29.0924 15.1299 28.7651 14.8152C27.6481 13.7408 26.5508 12.6847 25.7277 11.5447C24.9093 10.4112 24.3879 9.22879 24.3879 7.90963C24.3879 4.93794 26.8096 2.51807 29.7856 2.51807C32.7622 2.51807 35.1826 4.93832 35.175 7.90025V7.90141C35.175 9.20173 34.6474 10.3835 33.8166 11.526C32.9818 12.6741 31.8694 13.7451 30.7401 14.8319Z" fill="url(#paint14_linear_20_10293)" stroke="url(#paint15_linear_20_10293)" stroke-width="0.9"/>
<path d="M26.4646 7.56463C26.4646 9.39106 27.9577 10.882 29.7849 10.882C31.6113 10.882 33.1053 9.40012 33.1053 7.56463C33.1053 5.73819 31.6121 4.24727 29.7849 4.24727C27.9577 4.24727 26.4646 5.73819 26.4646 7.56463ZM28.4337 7.57285C28.4337 6.82769 29.0378 6.22355 29.7849 6.22355C30.532 6.22355 31.1361 6.82769 31.1361 7.57285C31.1361 8.31801 30.532 8.92215 29.7849 8.92215C29.0378 8.92215 28.4337 8.31801 28.4337 7.57285Z" fill="url(#paint16_linear_20_10293)" stroke="url(#paint17_linear_20_10293)" stroke-width="0.9"/>
<path d="M14.6909 37.512L14.6908 37.5121L14.6992 37.5192C14.8892 37.6798 15.1161 37.757 15.3434 37.757C15.6129 37.757 15.8915 37.6551 16.0945 37.4211L30.9234 20.3319L30.9234 20.3319L30.9259 20.329C31.2772 19.917 31.2263 19.3012 30.8247 18.9446L30.8248 18.9446L30.8175 18.9384C30.4055 18.5878 29.7899 18.6385 29.4331 19.0395L29.4331 19.0395L29.4295 19.0435L14.5924 36.1245L14.5924 36.1245L14.5897 36.1276C14.2384 36.5396 14.2893 37.1554 14.6909 37.512Z" fill="url(#paint18_linear_20_10293)" stroke="url(#paint19_linear_20_10293)" stroke-width="0.9"/>
<path d="M31.1119 61.5278L31.1177 61.533L31.1236 61.5381C31.3015 61.6884 31.5253 61.7841 31.776 61.7841C32.0487 61.7841 32.3014 61.6753 32.497 61.4799L32.5064 61.4706L32.5152 61.4607C32.8738 61.0576 32.8487 60.437 32.4387 60.071C32.4381 60.0704 32.4374 60.0698 32.4367 60.0692L10.6483 40.3159C10.6477 40.3153 10.6471 40.3148 10.6465 40.3142C10.2428 39.9427 9.61973 39.9681 9.25299 40.3766C8.88173 40.7807 8.90835 41.4038 9.31824 41.7697C9.3189 41.7703 9.31956 41.7709 9.32023 41.7715L31.1119 61.5278Z" fill="url(#paint20_linear_20_10293)" stroke="url(#paint21_linear_20_10293)" stroke-width="0.9"/>
<defs>
<linearGradient id="paint0_linear_20_10293" x1="31.2488" y1="62.5138" x2="47.9776" y2="62.507" gradientUnits="userSpaceOnUse">
<stop stop-color="#7171F4"/>
<stop offset="0.505208" stop-color="#208BC9"/>
<stop offset="1" stop-color="#1DA29E"/>
</linearGradient>
<linearGradient id="paint1_linear_20_10293" x1="31.2488" y1="62.5138" x2="47.9776" y2="62.507" gradientUnits="userSpaceOnUse">
<stop stop-color="#7171F4"/>
<stop offset="0.505208" stop-color="#208BC9"/>
<stop offset="1" stop-color="#1DA29E"/>
</linearGradient>
<linearGradient id="paint2_linear_20_10293" x1="27.2441" y1="50.5422" x2="52.0002" y2="50.5373" gradientUnits="userSpaceOnUse">
<stop stop-color="#7171F4"/>
<stop offset="0.505208" stop-color="#208BC9"/>
<stop offset="1" stop-color="#1DA29E"/>
</linearGradient>
<linearGradient id="paint3_linear_20_10293" x1="27.2441" y1="50.5422" x2="52.0002" y2="50.5373" gradientUnits="userSpaceOnUse">
<stop stop-color="#7171F4"/>
<stop offset="0.505208" stop-color="#208BC9"/>
<stop offset="1" stop-color="#1DA29E"/>
</linearGradient>
<linearGradient id="paint4_linear_20_10293" x1="34.7441" y1="44.3199" x2="44.4739" y2="44.3176" gradientUnits="userSpaceOnUse">
<stop stop-color="#7171F4"/>
<stop offset="0.505208" stop-color="#208BC9"/>
<stop offset="1" stop-color="#1DA29E"/>
</linearGradient>
<linearGradient id="paint5_linear_20_10293" x1="34.7441" y1="44.3199" x2="44.4739" y2="44.3176" gradientUnits="userSpaceOnUse">
<stop stop-color="#7171F4"/>
<stop offset="0.505208" stop-color="#208BC9"/>
<stop offset="1" stop-color="#1DA29E"/>
</linearGradient>
<linearGradient id="paint6_linear_20_10293" x1="3.86206" y1="38.9896" x2="16.1003" y2="38.9847" gradientUnits="userSpaceOnUse">
<stop stop-color="#7171F4"/>
<stop offset="0.505208" stop-color="#208BC9"/>
<stop offset="1" stop-color="#1DA29E"/>
</linearGradient>
<linearGradient id="paint7_linear_20_10293" x1="3.86206" y1="38.9896" x2="16.1003" y2="38.9847" gradientUnits="userSpaceOnUse">
<stop stop-color="#7171F4"/>
<stop offset="0.505208" stop-color="#208BC9"/>
<stop offset="1" stop-color="#1DA29E"/>
</linearGradient>
<linearGradient id="paint8_linear_20_10293" x1="1" y1="30.4498" x2="18.9708" y2="30.4463" gradientUnits="userSpaceOnUse">
<stop stop-color="#7171F4"/>
<stop offset="0.505208" stop-color="#208BC9"/>
<stop offset="1" stop-color="#1DA29E"/>
</linearGradient>
<linearGradient id="paint9_linear_20_10293" x1="1" y1="30.4498" x2="18.9708" y2="30.4463" gradientUnits="userSpaceOnUse">
<stop stop-color="#7171F4"/>
<stop offset="0.505208" stop-color="#208BC9"/>
<stop offset="1" stop-color="#1DA29E"/>
</linearGradient>
<linearGradient id="paint10_linear_20_10293" x1="6.36255" y1="25.9969" x2="13.6167" y2="25.9952" gradientUnits="userSpaceOnUse">
<stop stop-color="#7171F4"/>
<stop offset="0.505208" stop-color="#208BC9"/>
<stop offset="1" stop-color="#1DA29E"/>
</linearGradient>
<linearGradient id="paint11_linear_20_10293" x1="6.36255" y1="25.9969" x2="13.6167" y2="25.9952" gradientUnits="userSpaceOnUse">
<stop stop-color="#7171F4"/>
<stop offset="0.505208" stop-color="#208BC9"/>
<stop offset="1" stop-color="#1DA29E"/>
</linearGradient>
<linearGradient id="paint12_linear_20_10293" x1="25.0315" y1="18.1844" x2="34.5391" y2="18.1806" gradientUnits="userSpaceOnUse">
<stop stop-color="#7171F4"/>
<stop offset="0.505208" stop-color="#208BC9"/>
<stop offset="1" stop-color="#1DA29E"/>
</linearGradient>
<linearGradient id="paint13_linear_20_10293" x1="25.0315" y1="18.1844" x2="34.5391" y2="18.1806" gradientUnits="userSpaceOnUse">
<stop stop-color="#7171F4"/>
<stop offset="0.505208" stop-color="#208BC9"/>
<stop offset="1" stop-color="#1DA29E"/>
</linearGradient>
<linearGradient id="paint14_linear_20_10293" x1="22.877" y1="11.7376" x2="36.7107" y2="11.7349" gradientUnits="userSpaceOnUse">
<stop stop-color="#7171F4"/>
<stop offset="0.505208" stop-color="#208BC9"/>
<stop offset="1" stop-color="#1DA29E"/>
</linearGradient>
<linearGradient id="paint15_linear_20_10293" x1="22.877" y1="11.7376" x2="36.7107" y2="11.7349" gradientUnits="userSpaceOnUse">
<stop stop-color="#7171F4"/>
<stop offset="0.505208" stop-color="#208BC9"/>
<stop offset="1" stop-color="#1DA29E"/>
</linearGradient>
<linearGradient id="paint16_linear_20_10293" x1="26.9146" y1="8.37664" x2="32.6553" y2="8.37527" gradientUnits="userSpaceOnUse">
<stop stop-color="#7171F4"/>
<stop offset="0.505208" stop-color="#208BC9"/>
<stop offset="1" stop-color="#1DA29E"/>
</linearGradient>
<linearGradient id="paint17_linear_20_10293" x1="26.9146" y1="8.37664" x2="32.6553" y2="8.37527" gradientUnits="userSpaceOnUse">
<stop stop-color="#7171F4"/>
<stop offset="0.505208" stop-color="#208BC9"/>
<stop offset="1" stop-color="#1DA29E"/>
</linearGradient>
<linearGradient id="paint18_linear_20_10293" x1="14.8052" y1="30.8009" x2="30.7105" y2="30.7976" gradientUnits="userSpaceOnUse">
<stop stop-color="#7171F4"/>
<stop offset="0.505208" stop-color="#208BC9"/>
<stop offset="1" stop-color="#1DA29E"/>
</linearGradient>
<linearGradient id="paint19_linear_20_10293" x1="14.8052" y1="30.8009" x2="30.7105" y2="30.7976" gradientUnits="userSpaceOnUse">
<stop stop-color="#7171F4"/>
<stop offset="0.505208" stop-color="#208BC9"/>
<stop offset="1" stop-color="#1DA29E"/>
</linearGradient>
<linearGradient id="paint20_linear_20_10293" x1="9.44165" y1="53.8677" x2="32.3166" y2="53.8617" gradientUnits="userSpaceOnUse">
<stop stop-color="#7171F4"/>
<stop offset="0.505208" stop-color="#208BC9"/>
<stop offset="1" stop-color="#1DA29E"/>
</linearGradient>
<linearGradient id="paint21_linear_20_10293" x1="9.44165" y1="53.8677" x2="32.3166" y2="53.8617" gradientUnits="userSpaceOnUse">
<stop stop-color="#7171F4"/>
<stop offset="0.505208" stop-color="#208BC9"/>
<stop offset="1" stop-color="#1DA29E"/>
</linearGradient>
</defs>
</svg>
