<svg width="31" height="47" viewBox="0 0 31 47" fill="none" xmlns="http://www.w3.org/2000/svg">
<g filter="url(#filter0_d_20_10672)">
<path d="M25.9804 18.3006L7.31119 0.707537C6.99969 0.41384 6.58583 0.25 6.15546 0.25C5.72509 0.25 5.31124 0.41384 4.99973 0.707537L4.97963 0.727417C4.82809 0.869796 4.70743 1.04118 4.62498 1.23113C4.54252 1.42109 4.5 1.62565 4.5 1.83237C4.5 2.03909 4.54252 2.24365 4.62498 2.43361C4.70743 2.62356 4.82809 2.79494 4.97963 2.93732L22.5601 19.5033L4.97963 36.0627C4.82809 36.2051 4.70743 36.3764 4.62498 36.5664C4.54252 36.7563 4.5 36.9609 4.5 37.1676C4.5 37.3744 4.54252 37.5789 4.62498 37.7689C4.70743 37.9588 4.82809 38.1302 4.97963 38.2726L4.99973 38.2925C5.31124 38.5862 5.72509 38.75 6.15546 38.75C6.58583 38.75 6.99969 38.5862 7.31119 38.2925L25.9804 20.6994C26.1446 20.5447 26.2753 20.3586 26.3646 20.1524C26.4539 19.9462 26.5 19.7243 26.5 19.5C26.5 19.2757 26.4539 19.0538 26.3646 18.8476C26.2753 18.6414 26.1446 18.4553 25.9804 18.3006Z" fill="white"/>
</g>
<defs>
<filter id="filter0_d_20_10672" x="0.5" y="0.25" width="30" height="46.5" filterUnits="userSpaceOnUse" color-interpolation-filters="sRGB">
<feFlood flood-opacity="0" result="BackgroundImageFix"/>
<feColorMatrix in="SourceAlpha" type="matrix" values="0 0 0 0 0 0 0 0 0 0 0 0 0 0 0 0 0 0 127 0" result="hardAlpha"/>
<feOffset dy="4"/>
<feGaussianBlur stdDeviation="2"/>
<feComposite in2="hardAlpha" operator="out"/>
<feColorMatrix type="matrix" values="0 0 0 0 0 0 0 0 0 0 0 0 0 0 0 0 0 0 0.25 0"/>
<feBlend mode="normal" in2="BackgroundImageFix" result="effect1_dropShadow_20_10672"/>
<feBlend mode="normal" in="SourceGraphic" in2="effect1_dropShadow_20_10672" result="shape"/>
</filter>
</defs>
</svg>
