<svg width="23" height="39" viewBox="0 0 23 39" fill="none" xmlns="http://www.w3.org/2000/svg">
<path d="M1.01958 20.6994L19.6888 38.2925C20.0003 38.5862 20.4142 38.75 20.8445 38.75C21.2749 38.75 21.6888 38.5862 22.0003 38.2925L22.0204 38.2726C22.1719 38.1302 22.2926 37.9588 22.375 37.7689C22.4575 37.5789 22.5 37.3744 22.5 37.1676C22.5 36.9609 22.4575 36.7564 22.375 36.5664C22.2926 36.3764 22.1719 36.2051 22.0204 36.0627L4.43987 19.4967L22.0204 2.93732C22.1719 2.79494 22.2926 2.62356 22.375 2.43361C22.4575 2.24365 22.5 2.03909 22.5 1.83237C22.5 1.62565 22.4575 1.42109 22.375 1.23113C22.2926 1.04118 22.1719 0.869797 22.0204 0.727421L22.0003 0.707539C21.6888 0.413841 21.2749 0.25 20.8445 0.25C20.4142 0.25 20.0003 0.413841 19.6888 0.707539L1.01958 18.3006C0.855389 18.4553 0.724677 18.6414 0.635365 18.8476C0.546053 19.0538 0.5 19.2757 0.5 19.5C0.5 19.7243 0.546053 19.9462 0.635365 20.1524C0.724677 20.3586 0.855389 20.5447 1.01958 20.6994Z" fill="white"/>
</svg>
