<svg width="47" height="43" viewBox="0 0 47 43" fill="none" xmlns="http://www.w3.org/2000/svg">
<path d="M45.1071 0.75H1.64286C1.40634 0.75 1.17933 0.843625 1.01182 1.01055C0.84428 1.17751 0.75 1.40414 0.75 1.64063C0.75 1.87712 0.84428 2.10375 1.01182 2.27071C1.17933 2.43764 1.40634 2.53127 1.64286 2.53127H45.3571C45.5937 2.53127 45.8207 2.43764 45.9882 2.27071C46.1557 2.10375 46.25 1.87713 46.25 1.64063C46.25 1.40414 46.1557 1.17751 45.9882 1.01055C45.8207 0.843625 45.5937 0.75 45.3571 0.75H45.1071ZM4.21429 4.5938C3.97776 4.5938 3.75076 4.68743 3.58325 4.85436C3.41571 5.02132 3.32143 5.24795 3.32143 5.48444V27.266C3.32143 28.4645 4.29946 29.4379 5.5 29.4379H41.5C42.7005 29.4379 43.6786 28.4645 43.6786 27.266V5.48444C43.6786 5.24795 43.5843 5.02132 43.4168 4.85436C43.2492 4.68743 43.0222 4.5938 42.7857 4.5938C42.5492 4.5938 42.3222 4.68743 42.1547 4.85436C41.9871 5.02132 41.8929 5.24794 41.8929 5.48444V27.266C41.8929 27.3693 41.8517 27.4686 41.7781 27.5419C41.7045 27.6152 41.6045 27.6566 41.5 27.6566H5.5C5.39553 27.6566 5.29551 27.6152 5.2219 27.5419C5.14832 27.4686 5.10714 27.3693 5.10714 27.266V5.48444C5.10714 5.24794 5.01286 5.02132 4.84532 4.85436C4.67782 4.68743 4.45081 4.5938 4.21429 4.5938Z" fill="url(#paint0_linear_20_10643)" stroke="url(#paint1_linear_20_10643)" stroke-width="0.5"/>
<path d="M17.7861 11.2031L17.7861 11.2031C17.9574 11.0608 18.1758 10.9877 18.3983 10.9979C18.6206 11.0081 18.8313 11.1008 18.9889 11.2581M17.7861 11.2031L18.989 11.2583M17.7861 11.2031L10.0718 17.6094L10.0718 17.6095M17.7861 11.2031L10.0718 17.6095M18.9889 11.2581C18.9889 11.2581 18.989 11.2582 18.989 11.2583M18.9889 11.2581L18.989 11.2583M18.9889 11.2581L26.0715 18.3175M18.989 11.2583L26.0715 18.3175M26.0715 18.3175L34.2003 10.2168H29.9287C29.6921 10.2168 29.4651 10.1232 29.2976 9.95626C29.1301 9.7893 29.0358 9.56267 29.0358 9.32618C29.0358 9.08969 29.1301 8.86306 29.2976 8.6961C29.2976 8.6961 29.2976 8.6961 29.2976 8.6961L29.4737 8.87276L26.0715 18.3175ZM10.0718 17.6095C9.88967 17.7607 9.77514 17.978 9.75367 18.2137C9.7322 18.4495 9.80559 18.6839 9.95746 18.8655C10.1093 19.047 10.3271 19.1608 10.5629 19.1821C10.7986 19.2034 11.0333 19.1306 11.2154 18.9794C11.2154 18.9794 11.2154 18.9794 11.2154 18.9794L18.3033 13.0925L25.4412 20.2057L25.4417 20.2062M10.0718 17.6095L25.4417 20.2062M25.4417 20.2062C25.6092 20.3722 25.8356 20.4654 26.0715 20.4658C26.3075 20.4661 26.5341 20.3735 26.7021 20.208L26.7031 20.207M25.4417 20.2062L26.7031 20.207M26.7031 20.207L35.4644 11.4748L26.7031 20.207ZM14.2339 42.2081L14.3082 41.9695L14.2339 42.2081C14.3457 42.243 14.4634 42.2555 14.58 42.245C14.6967 42.2346 14.8102 42.2013 14.9141 42.1471L23.5001 37.6654L32.0861 42.1471L32.2018 41.9255L32.0861 42.1471C32.2958 42.2565 32.5404 42.2785 32.7663 42.2081C32.9921 42.1377 33.1809 41.9808 33.291 41.7714C33.401 41.562 33.4231 41.3176 33.3523 41.0919C33.2815 40.8662 33.1238 40.6781 32.914 40.5686L24.3071 36.0766C24.3106 36.0694 24.3139 36.0621 24.3172 36.0548C24.3669 35.9428 24.3927 35.8216 24.3929 35.699V35.6985V32.389C24.3929 32.1525 24.2987 31.9259 24.1311 31.7589C23.9636 31.592 23.7366 31.4984 23.5001 31.4984C23.2636 31.4984 23.0366 31.592 22.869 31.7589C22.7015 31.9259 22.6072 32.1525 22.6072 32.389V35.6985C22.6072 35.8345 22.6386 35.9619 22.6931 36.0753L14.0861 40.5674L14.0859 40.5675C13.8762 40.6772 13.7184 40.8655 13.6477 41.0914C13.577 41.3172 13.5991 41.5619 13.7092 41.7714C13.7637 41.8751 13.8381 41.967 13.9281 42.0419C14.0181 42.1168 14.122 42.1733 14.2339 42.2081Z" fill="url(#paint2_linear_20_10643)" stroke="url(#paint3_linear_20_10643)" stroke-width="0.5"/>
<defs>
<linearGradient id="paint0_linear_20_10643" x1="1" y1="19.0851" x2="46.0002" y2="19.068" gradientUnits="userSpaceOnUse">
<stop stop-color="#7171F4"/>
<stop offset="0.505208" stop-color="#208BC9"/>
<stop offset="1" stop-color="#1DA29E"/>
</linearGradient>
<linearGradient id="paint1_linear_20_10643" x1="1" y1="19.0851" x2="46.0002" y2="19.068" gradientUnits="userSpaceOnUse">
<stop stop-color="#7171F4"/>
<stop offset="0.505208" stop-color="#208BC9"/>
<stop offset="1" stop-color="#1DA29E"/>
</linearGradient>
<linearGradient id="paint2_linear_20_10643" x1="10" y1="30.059" x2="37.0002" y2="30.0538" gradientUnits="userSpaceOnUse">
<stop stop-color="#7171F4"/>
<stop offset="0.505208" stop-color="#208BC9"/>
<stop offset="1" stop-color="#1DA29E"/>
</linearGradient>
<linearGradient id="paint3_linear_20_10643" x1="10" y1="30.059" x2="37.0002" y2="30.0538" gradientUnits="userSpaceOnUse">
<stop stop-color="#7171F4"/>
<stop offset="0.505208" stop-color="#208BC9"/>
<stop offset="1" stop-color="#1DA29E"/>
</linearGradient>
</defs>
</svg>
