<svg width="19" height="19" viewBox="0 0 19 19" fill="none" xmlns="http://www.w3.org/2000/svg">
<path fill-rule="evenodd" clip-rule="evenodd" d="M5.75 12.5C5.75 12.0875 6.0875 11.75 6.5 11.75C6.9125 11.75 7.25 12.0875 7.25 12.5C7.25 12.9125 6.9125 13.25 6.5 13.25C6.0875 13.25 5.75 12.9125 5.75 12.5ZM9.5 11.75H12.5C12.9125 11.75 13.25 12.0875 13.25 12.5C13.25 12.9125 12.9125 13.25 12.5 13.25H9.5C9.0875 13.25 8.75 12.9125 8.75 12.5C8.75 12.0875 9.0875 11.75 9.5 11.75ZM14 15.5H5C4.58675 15.5 4.25 15.1632 4.25 14.75V10.25H14.75V14.75C14.75 15.1632 14.4132 15.5 14 15.5ZM5 5H5.75V5.75C5.75 6.1625 6.0875 6.5 6.5 6.5C6.9125 6.5 7.25 6.1625 7.25 5.75V5H11.75V5.75C11.75 6.1625 12.0875 6.5 12.5 6.5C12.9125 6.5 13.25 6.1625 13.25 5.75V5H14C14.4132 5 14.75 5.33675 14.75 5.75V8.75H4.25V5.75C4.25 5.33675 4.58675 5 5 5ZM14 3.5H13.25V2.75C13.25 2.3375 12.9125 2 12.5 2C12.0875 2 11.75 2.3375 11.75 2.75V3.5H7.25V2.75C7.25 2.3375 6.9125 2 6.5 2C6.0875 2 5.75 2.3375 5.75 2.75V3.5H5C3.7595 3.5 2.75 4.5095 2.75 5.75V14.75C2.75 15.9905 3.7595 17 5 17H14C15.2405 17 16.25 15.9905 16.25 14.75V5.75C16.25 4.5095 15.2405 3.5 14 3.5Z" fill="white"/>
</svg>
