<svg width="18" height="19" viewBox="0 0 18 19" fill="none" xmlns="http://www.w3.org/2000/svg">
<path fill-rule="evenodd" clip-rule="evenodd" d="M9.00002 11H6.75002C6.33602 11 6.00002 10.664 6.00002 10.25C6.00002 9.836 6.33602 9.5 6.75002 9.5H9.00002C9.41402 9.5 9.75002 9.836 9.75002 10.25C9.75002 10.664 9.41402 11 9.00002 11ZM6.00002 13.25C6.00002 12.836 6.33602 12.5 6.75002 12.5H11.25C11.6648 12.5 12 12.836 12 13.25C12 13.664 11.6648 14 11.25 14H6.75002C6.33602 14 6.00002 13.664 6.00002 13.25ZM13.0832 15.5H4.91649C4.68699 15.5 4.50024 15.332 4.50024 15.125V3.875C4.50024 3.668 4.68699 3.5 4.91649 3.5H9.00024V5.8625C9.00024 7.0415 9.91299 8 11.0357 8H13.5002V15.125C13.5002 15.332 13.3135 15.5 13.0832 15.5V15.5ZM10.5002 4.2335L12.5567 6.5H11.0357C10.7402 6.5 10.5002 6.21425 10.5002 5.8625V4.2335ZM14.8052 6.746L10.7222 2.246C10.5797 2.08925 10.3787 2 10.1665 2H4.91649C3.85974 2 3.00024 2.8415 3.00024 3.875V15.125C3.00024 16.1585 3.85974 17 4.91649 17H13.0832C14.14 17 15.0002 16.1585 15.0002 15.125V7.25C15.0002 7.06325 14.9305 6.884 14.8052 6.746V6.746Z" fill="white"/>
</svg>
