<svg width="118" height="60" viewBox="0 0 118 60" fill="none" xmlns="http://www.w3.org/2000/svg">
<g clip-path="url(#clip0_2009_1495)">
<path fill-rule="evenodd" clip-rule="evenodd" d="M51.0509 0C68.1313 0 83.2782 8.32526 92.6449 21.1488H88.217C79.4113 10.379 66.0275 3.50643 51.0509 3.50643C26.8678 3.50643 6.86221 21.3992 3.54631 44.6519H0C3.34595 19.4557 24.9244 0 51.0509 0Z" fill="url(#paint0_linear_2009_1495)"/>
<path fill-rule="evenodd" clip-rule="evenodd" d="M11.1398 31.6982C7.12267 40.3741 5.51982 50.2523 6.96239 59.9901H3.38602C2.00356 50.2723 3.38602 40.4643 7.35308 31.6982H11.1398Z" fill="url(#paint1_linear_2009_1495)"/>
<path d="M18.8936 26.1479H10.9294V28.382H13.3838V36.6972H16.1287V28.382H18.5831L18.8936 26.1479ZM19.4947 26.1479V36.7072H22.2095V32.9503H23.061C23.9226 32.9503 25.1548 32.8401 26.0163 32.1589C27.0281 31.3674 27.1984 30.2053 27.1984 29.4339C27.1984 28.5423 26.998 27.5905 26.0864 26.8992C25.1648 26.198 23.8625 26.1379 22.9408 26.1379H19.5047L19.4947 26.1479ZM22.2095 30.7964V28.3519H23.1512C23.4117 28.3519 23.8224 28.382 24.0528 28.6525C24.2331 28.8628 24.2532 29.1935 24.2532 29.474C24.2532 29.7344 24.2431 30.3155 23.8925 30.596C23.6321 30.7964 23.2213 30.7964 23.0109 30.7964H22.2195H22.2095ZM36.5651 36.6972L33.3794 26.1379H30.5544L27.1583 36.6972H30.0034L30.5844 34.6735H33.0789L33.6198 36.6972H36.5551H36.5651ZM32.5379 32.5797H31.1755L31.5962 30.8565C31.7265 30.3456 31.8266 29.8146 31.8867 29.1734C31.9268 29.9148 32.007 30.3556 32.0771 30.6561L32.5379 32.5797ZM44.8799 36.6972V26.1379H42.165V30.015H40.0012V26.1379H37.2864V36.6972H40.0012V32.2591H42.165V36.6972H44.8799ZM53.936 26.7289C53.6154 26.4785 52.9041 25.9575 51.2412 25.9575C49.8387 25.9575 48.0555 26.3683 46.9636 28.3519C46.4326 29.3037 46.2423 30.3355 46.2423 31.6279C46.2423 33.0505 46.5228 34.383 47.4544 35.4349C48.5464 36.6471 49.8687 36.8876 50.9006 36.8876C52.6437 36.8876 53.6054 36.3065 54.1864 35.8056L53.0143 33.9622C52.3031 34.6535 51.4516 34.6735 51.2011 34.6735C50.8505 34.6735 50.2895 34.5633 49.8487 33.9923C49.4079 33.4312 49.3278 32.74 49.3278 30.8966C49.3278 30.2454 49.3178 29.2335 50.009 28.5823C50.2394 28.3719 50.59 28.1716 51.1911 28.1716C51.6619 28.1716 52.233 28.3118 52.7639 28.7326L53.9159 26.739L53.936 26.7289ZM62.5714 36.6972V26.1379H55.1081V36.6972H57.8229V28.2718H59.8665V36.6972H62.5814H62.5714ZM73.4207 31.0168C73.4207 29.9448 73.2704 28.8228 72.509 27.7308C71.5073 26.2981 70.0146 25.9575 68.7824 25.9575C67.3999 25.9575 66.328 26.4083 65.4765 27.2599C64.3846 28.3519 63.9338 29.8346 63.9338 31.678C63.9338 33.5214 64.4948 34.5934 65.0157 35.2546C65.767 36.2364 66.9491 36.8775 68.6922 36.8775C70.9663 36.8775 71.908 35.8456 72.3387 35.2345C73.2003 34.0323 73.4207 32.5696 73.4207 31.0068V31.0168ZM70.3853 31.3474C70.3853 33.0706 70.225 33.8921 69.8042 34.3329C69.4736 34.6735 69.0429 34.7436 68.7323 34.7436C68.1513 34.7436 67.7906 34.4932 67.6203 34.3329C67.3298 34.0624 66.9491 33.4412 66.9491 31.3775C66.9491 29.6042 67.3499 28.943 67.45 28.7727C67.8307 28.1616 68.4218 28.0814 68.7724 28.0814C69.2833 28.0814 69.6039 28.2918 69.7842 28.4721C70.1649 28.8528 70.3752 29.5641 70.3752 31.3474H70.3853ZM74.7731 26.1379V36.6972H77.4879V32.9403H78.3394C79.2009 32.9403 80.4331 32.8301 81.2947 32.1489C82.3065 31.3574 82.4768 30.1953 82.4768 29.4239C82.4768 28.5322 82.2864 27.5805 81.3748 26.8892C80.4532 26.1879 79.1508 26.1278 78.2292 26.1278H74.7931L74.7731 26.1379ZM77.4879 30.7864V28.3419H78.4296C78.69 28.3419 79.1008 28.3719 79.3212 28.6424C79.5015 28.8528 79.5215 29.1834 79.5215 29.4639C79.5215 29.7244 79.5015 30.3055 79.1609 30.586C78.9004 30.7864 78.4897 30.7864 78.2793 30.7864H77.4879ZM90.7415 26.1379H82.7773V28.3719H85.2317V36.6872H87.9766V28.3719H90.4309L90.7515 26.1379H90.7415ZM98.9361 36.6972V26.1379H96.2212V30.015H94.0574V26.1379H91.3426V36.6972H94.0574V32.2591H96.2212V36.6972H98.9361ZM109.074 36.6972L105.878 26.1379H103.063L99.6674 36.6972H102.522L103.093 34.6735H105.588L106.129 36.6972H109.074ZM105.037 32.5797H103.675L104.095 30.8565C104.215 30.3456 104.326 29.8146 104.386 29.1734C104.426 29.9148 104.506 30.3556 104.586 30.6561L105.037 32.5797ZM115.295 32.6398V36.6972H118V26.1379H114.213C113.382 26.1379 112.2 26.1779 111.338 26.8191C110.897 27.1497 110.296 27.851 110.296 29.1333C110.296 29.9649 110.607 30.5159 110.937 30.8465C111.298 31.2272 111.879 31.4977 112.41 31.5878V31.6379C112.009 31.7081 111.619 31.9285 111.378 32.219C111.168 32.4795 110.998 32.9002 110.927 33.1607L110.637 34.1425C110.577 34.373 110.447 34.6134 110.236 34.7637C110.036 34.9039 109.825 34.974 109.655 35.0041L109.194 35.0943L109.765 36.9176L110.607 36.8375C111.298 36.7774 112.16 36.6972 112.681 36.0961C113.011 35.7054 113.151 35.1444 113.221 34.7637L113.402 33.872C113.442 33.6416 113.552 33.1908 113.843 32.9303C114.113 32.6899 114.494 32.6398 114.764 32.6398H115.295ZM115.365 28.2617V30.5159H114.514C114.093 30.5159 113.272 30.4658 113.272 29.3638C113.272 28.8829 113.362 28.2617 114.534 28.2617H115.365Z" fill="url(#paint2_linear_2009_1495)"/>
<path d="M34.4213 49.5706V37.8191H31.406V42.137H28.9917V37.8191H25.9763V49.5706H28.9917V44.6316H31.406V49.5706H34.4213ZM43.4975 49.5706V47.056H39.4703V44.6616H42.4056V42.2673H39.4703V40.2936H43.0667L43.2871 37.8091H36.455V49.5606H43.5075L43.4975 49.5706ZM53.7858 37.8191H46.4127L46.3526 39.6625C46.3325 40.3337 46.2023 41.7363 46.1322 42.3073C46.032 43.0687 45.8317 44.2008 45.5912 45.0724C45.3909 45.8438 45.1705 46.4549 44.9 47.0761H43.9884V52.4058H46.7533V49.5706H52.233V52.4058H54.998V47.0761H53.7858V37.8191ZM50.7604 40.1434V47.2464H47.5046C47.7751 46.7054 47.9454 46.2445 48.1257 45.6635C48.3461 44.9522 48.4663 44.4012 48.5665 43.7199C48.6667 43.0487 48.7869 42.0669 48.817 41.3957L48.8671 40.1434H50.7504H50.7604ZM63.2126 49.5706V47.056H59.1854V44.6616H62.1206V42.2673H59.1854V40.2936H62.7818L63.0022 37.8091H56.17V49.5606H63.2226L63.2126 49.5706ZM73.4408 49.5706V37.8191H65.9475L65.8974 39.963C65.8673 41.3055 65.7771 43.1389 65.6068 44.5715C65.5768 44.9121 65.4466 45.8739 65.2562 46.3848C65.156 46.6753 65.0058 46.9458 64.6552 47.1863C64.4147 47.3265 64.0641 47.4668 63.8237 47.5369L63.3829 47.6571L64.014 49.771L64.9056 49.6408C65.5768 49.5306 66.5686 49.3603 67.2598 48.659C67.9109 47.9978 68.0712 47.036 68.1814 46.2846C68.4118 44.5314 68.512 41.9867 68.5321 41.6161L68.5821 40.2035H70.4254V49.5907H73.4408V49.5706ZM81.7556 45.0524V49.5706H84.771V37.8191H80.5534C79.6318 37.8191 78.3094 37.8692 77.3477 38.5805C76.8669 38.9512 76.1857 39.7326 76.1857 41.1652C76.1857 42.0869 76.5163 42.698 76.8969 43.0687C77.2977 43.4895 77.9388 43.79 78.5298 43.8902V43.9403C78.0891 44.0205 77.6483 44.2609 77.3778 44.5815C77.1374 44.872 76.957 45.3429 76.8769 45.6234L76.5563 46.7254C76.4862 46.9759 76.3359 47.2464 76.1055 47.4167C75.8751 47.567 75.6447 47.6471 75.4644 47.6872L74.9635 47.7874L75.6046 49.8111L76.5363 49.7209C77.3077 49.6508 78.2694 49.5706 78.8404 48.8894C79.2111 48.4486 79.3613 47.8274 79.4515 47.4067L79.6518 46.4149C79.7019 46.1544 79.8221 45.6535 80.1427 45.3729C80.4432 45.1025 80.864 45.0524 81.1745 45.0524H81.7656H81.7556ZM81.8457 40.1834V42.698H80.8941C80.4232 42.698 79.5116 42.648 79.5116 41.4157C79.5116 40.8747 79.6118 40.1834 80.9141 40.1834H81.8457Z" fill="url(#paint3_linear_2009_1495)"/>
<path d="M65.5267 59.6693H59.4258V57.9261C60.3274 57.1347 61.3793 56.1829 62.1206 55.2512C62.7718 54.4497 63.1825 53.9087 63.1825 52.9971C63.1825 52.4962 62.922 52.1155 62.321 52.1155C61.7199 52.1155 61.2991 52.406 60.648 52.9871L59.0852 51.5745C60.2172 50.6327 61.2591 50.1519 62.7517 50.1519C64.7753 50.1519 65.8272 51.314 65.8272 52.947C65.8272 54.9807 64.0841 56.4634 62.1206 57.7458C62.4111 57.6957 62.8419 57.6656 63.2727 57.6656H66.0576L65.5367 59.6693H65.5267Z" fill="#FF1800"/>
<path d="M70.6158 59.8493C68.5721 59.8493 67.2297 57.9859 67.2297 55.0605C67.2297 51.8947 68.6523 50.2417 70.6558 50.2417C72.6594 50.2417 74.0619 51.9148 74.0619 54.9704C74.0619 57.8456 72.6193 59.8393 70.6158 59.8393V59.8493ZM71.1567 52.5058C71.0365 52.1352 70.8963 51.9248 70.6759 51.9248C70.4154 51.9248 70.2451 52.1151 70.1249 52.4758C69.9446 53.0168 69.8744 53.9385 69.8744 55.1206C69.8744 56.0323 69.9145 56.7837 70.0247 57.3046C70.1349 57.8557 70.3152 58.1662 70.6158 58.1662C70.9764 58.1662 71.1367 57.8657 71.2469 57.3648C71.3671 56.7837 71.3971 55.9221 71.3971 54.9303C71.3971 53.8483 71.317 53.0168 71.1467 52.5058H71.1567Z" fill="#FF1800"/>
<path d="M81.6653 59.6693H75.5645V57.9261C76.4661 57.1347 77.518 56.1829 78.2593 55.2512C78.9104 54.4497 79.3212 53.9087 79.3212 52.9971C79.3212 52.4962 79.0607 52.1155 78.4596 52.1155C77.8586 52.1155 77.4378 52.406 76.7867 52.9871L75.2239 51.5745C76.3559 50.6327 77.3977 50.1519 78.8904 50.1519C80.914 50.1519 81.9659 51.314 81.9659 52.947C81.9659 54.9807 80.2228 56.4634 78.2593 57.7458C78.5498 57.6957 78.9806 57.6656 79.4113 57.6656H82.1963L81.6754 59.6693H81.6653Z" fill="#FF1800"/>
<path d="M89.7999 59.6693H83.699V57.9261C84.6006 57.1347 85.6525 56.1829 86.3938 55.2512C87.045 54.4497 87.4557 53.9087 87.4557 52.9971C87.4557 52.4962 87.1952 52.1155 86.5942 52.1155C85.9931 52.1155 85.5723 52.406 84.9212 52.9871L83.3584 51.5745C84.4904 50.6327 85.5323 50.1519 87.0249 50.1519C89.0485 50.1519 90.1004 51.314 90.1004 52.947C90.1004 54.9807 88.3573 56.4634 86.3938 57.7458C86.6843 57.6957 87.1151 57.6656 87.5459 57.6656H90.3308L89.8099 59.6693H89.7999Z" fill="#FF1800"/>
</g>
<defs>
<linearGradient id="paint0_linear_2009_1495" x1="0" y1="22.3309" x2="92.6449" y2="22.3309" gradientUnits="userSpaceOnUse">
<stop stop-color="#E12325"/>
<stop offset="0.38" stop-color="#DE2225"/>
<stop offset="0.65" stop-color="#D42225"/>
<stop offset="0.89" stop-color="#C42025"/>
<stop offset="1" stop-color="#BB2025"/>
</linearGradient>
<linearGradient id="paint1_linear_2009_1495" x1="2.86509" y1="45.8442" x2="11.1398" y2="45.8442" gradientUnits="userSpaceOnUse">
<stop stop-color="#004B76"/>
<stop offset="0.5" stop-color="#008CC7"/>
<stop offset="0.8" stop-color="#00A0E3"/>
<stop offset="0.83" stop-color="#0099DA"/>
<stop offset="0.89" stop-color="#0086C1"/>
<stop offset="0.95" stop-color="#00679A"/>
<stop offset="1" stop-color="#004B76"/>
</linearGradient>
<linearGradient id="paint2_linear_2009_1495" x1="37.7973" y1="6.44174" x2="114.377" y2="75.0334" gradientUnits="userSpaceOnUse">
<stop stop-color="#004B76"/>
<stop offset="0.5" stop-color="#008CC7"/>
<stop offset="0.8" stop-color="#00A0E3"/>
<stop offset="0.83" stop-color="#0099DA"/>
<stop offset="0.89" stop-color="#0086C1"/>
<stop offset="0.95" stop-color="#00679A"/>
<stop offset="1" stop-color="#004B76"/>
</linearGradient>
<linearGradient id="paint3_linear_2009_1495" x1="27.1083" y1="18.3835" x2="103.688" y2="86.9751" gradientUnits="userSpaceOnUse">
<stop stop-color="#004B76"/>
<stop offset="0.5" stop-color="#008CC7"/>
<stop offset="0.8" stop-color="#00A0E3"/>
<stop offset="0.83" stop-color="#0099DA"/>
<stop offset="0.89" stop-color="#0086C1"/>
<stop offset="0.95" stop-color="#00679A"/>
<stop offset="1" stop-color="#004B76"/>
</linearGradient>
<clipPath id="clip0_2009_1495">
<rect width="118" height="60" fill="white"/>
</clipPath>
</defs>
</svg>
