<svg width="118" height="60" viewBox="0 0 118 60" fill="none" xmlns="http://www.w3.org/2000/svg">
<path fill-rule="evenodd" clip-rule="evenodd" d="M51.0509 0C68.1313 0 83.2782 8.32526 92.6449 21.1488H88.217C79.4113 10.379 66.0275 3.50643 51.0509 3.50643C26.8678 3.50643 6.86221 21.3992 3.54631 44.6519H0C3.34595 19.4557 24.9244 0 51.0509 0Z" fill="url(#paint0_linear_2003_17387)"/>
<path fill-rule="evenodd" clip-rule="evenodd" d="M11.1398 31.6981C7.12267 40.374 5.51982 50.2521 6.96239 59.99H3.38602C2.00356 50.2722 3.38602 40.4642 7.35308 31.6981H11.1398Z" fill="url(#paint1_linear_2003_17387)"/>
<path d="M18.8936 26.1479H10.9294V28.382H13.3838V36.6973H16.1287V28.382H18.5831L18.8936 26.1479ZM19.4947 26.1479V36.7073H22.2095V32.9504H23.061C23.9226 32.9504 25.1548 32.8402 26.0163 32.159C27.0281 31.3675 27.1984 30.2054 27.1984 29.434C27.1984 28.5423 26.998 27.5906 26.0864 26.8993C25.1648 26.198 23.8625 26.1379 22.9408 26.1379H19.5047L19.4947 26.1479ZM22.2095 30.7965V28.352H23.1512C23.4117 28.352 23.8224 28.382 24.0528 28.6525C24.2331 28.8629 24.2532 29.1935 24.2532 29.474C24.2532 29.7345 24.2431 30.3156 23.8925 30.5961C23.6321 30.7965 23.2213 30.7965 23.0109 30.7965H22.2195H22.2095ZM36.5651 36.6973L33.3794 26.1379H30.5544L27.1583 36.6973H30.0034L30.5844 34.6736H33.0789L33.6198 36.6973H36.5551H36.5651ZM32.5379 32.5797H31.1755L31.5962 30.8566C31.7265 30.3456 31.8266 29.8147 31.8867 29.1735C31.9268 29.9148 32.007 30.3557 32.0771 30.6562L32.5379 32.5797ZM44.8799 36.6973V26.1379H42.165V30.015H40.0012V26.1379H37.2864V36.6973H40.0012V32.2591H42.165V36.6973H44.8799ZM53.936 26.729C53.6154 26.4785 52.9041 25.9576 51.2412 25.9576C49.8387 25.9576 48.0555 26.3683 46.9636 28.352C46.4326 29.3037 46.2423 30.3356 46.2423 31.628C46.2423 33.0506 46.5228 34.383 47.4544 35.435C48.5464 36.6472 49.8687 36.8876 50.9006 36.8876C52.6437 36.8876 53.6054 36.3066 54.1864 35.8056L53.0143 33.9623C52.3031 34.6535 51.4516 34.6736 51.2011 34.6736C50.8505 34.6736 50.2895 34.5634 49.8487 33.9923C49.4079 33.4313 49.3278 32.74 49.3278 30.8966C49.3278 30.2455 49.3178 29.2336 50.009 28.5824C50.2394 28.372 50.59 28.1716 51.1911 28.1716C51.6619 28.1716 52.233 28.3119 52.7639 28.7327L53.9159 26.739L53.936 26.729ZM62.5714 36.6973V26.1379H55.1081V36.6973H57.8229V28.2718H59.8665V36.6973H62.5814H62.5714ZM73.4207 31.0169C73.4207 29.9449 73.2704 28.8228 72.509 27.7308C71.5073 26.2982 70.0146 25.9576 68.7824 25.9576C67.3999 25.9576 66.328 26.4084 65.4765 27.26C64.3846 28.352 63.9338 29.8347 63.9338 31.6781C63.9338 33.5215 64.4948 34.5934 65.0157 35.2546C65.767 36.2364 66.9491 36.8776 68.6922 36.8776C70.9663 36.8776 71.908 35.8457 72.3387 35.2346C73.2003 34.0324 73.4207 32.5697 73.4207 31.0068V31.0169ZM70.3853 31.3475C70.3853 33.0706 70.225 33.8921 69.8042 34.3329C69.4736 34.6736 69.0429 34.7437 68.7323 34.7437C68.1513 34.7437 67.7906 34.4932 67.6203 34.3329C67.3298 34.0624 66.9491 33.4413 66.9491 31.3775C66.9491 29.6043 67.3499 28.9431 67.45 28.7727C67.8307 28.1616 68.4218 28.0815 68.7724 28.0815C69.2833 28.0815 69.6039 28.2919 69.7842 28.4722C70.1649 28.8529 70.3752 29.5642 70.3752 31.3475H70.3853ZM74.7731 26.1379V36.6973H77.4879V32.9404H78.3394C79.2009 32.9404 80.4331 32.8302 81.2947 32.1489C82.3065 31.3575 82.4768 30.1954 82.4768 29.4239C82.4768 28.5323 82.2864 27.5806 81.3748 26.8893C80.4532 26.188 79.1508 26.1279 78.2292 26.1279H74.7931L74.7731 26.1379ZM77.4879 30.7864V28.342H78.4296C78.69 28.342 79.1008 28.372 79.3212 28.6425C79.5015 28.8529 79.5215 29.1835 79.5215 29.464C79.5215 29.7245 79.5015 30.3056 79.1609 30.5861C78.9004 30.7864 78.4897 30.7864 78.2793 30.7864H77.4879ZM90.7415 26.1379H82.7773V28.372H85.2317V36.6873H87.9766V28.372H90.4309L90.7515 26.1379H90.7415ZM98.9361 36.6973V26.1379H96.2212V30.015H94.0574V26.1379H91.3426V36.6973H94.0574V32.2591H96.2212V36.6973H98.9361ZM109.074 36.6973L105.878 26.1379H103.063L99.6674 36.6973H102.522L103.093 34.6736H105.588L106.129 36.6973H109.074ZM105.037 32.5797H103.675L104.095 30.8566C104.215 30.3456 104.326 29.8147 104.386 29.1735C104.426 29.9148 104.506 30.3557 104.586 30.6562L105.037 32.5797ZM115.295 32.6398V36.6973H118V26.1379H114.213C113.382 26.1379 112.2 26.178 111.338 26.8192C110.897 27.1498 110.296 27.8511 110.296 29.1334C110.296 29.9649 110.607 30.5159 110.937 30.8466C111.298 31.2273 111.879 31.4977 112.41 31.5879V31.638C112.009 31.7081 111.619 31.9285 111.378 32.2191C111.168 32.4795 110.998 32.9003 110.927 33.1608L110.637 34.1426C110.577 34.373 110.447 34.6135 110.236 34.7637C110.036 34.904 109.825 34.9741 109.655 35.0042L109.194 35.0943L109.765 36.9177L110.607 36.8375C111.298 36.7774 112.16 36.6973 112.681 36.0962C113.011 35.7055 113.151 35.1444 113.221 34.7637L113.402 33.8721C113.442 33.6417 113.552 33.1908 113.843 32.9304C114.113 32.6899 114.494 32.6398 114.764 32.6398H115.295ZM115.365 28.2618V30.5159H114.514C114.093 30.5159 113.272 30.4659 113.272 29.3638C113.272 28.883 113.362 28.2618 114.534 28.2618H115.365Z" fill="url(#paint2_linear_2003_17387)"/>
<path d="M34.4213 49.5709V37.8193H31.4059V42.1373H28.9916V37.8193H25.9762V49.5709H28.9916V44.6318H31.4059V49.5709H34.4213ZM43.4974 49.5709V47.0563H39.4702V44.6619H42.4055V42.2675H39.4702V40.2939H43.0666L43.287 37.8093H36.4549V49.5609H43.5074L43.4974 49.5709ZM53.7857 37.8193H46.4126L46.3525 39.6627C46.3325 40.3339 46.2022 41.7365 46.1321 42.3076C46.0319 43.069 45.8316 44.201 45.5911 45.0726C45.3908 45.844 45.1704 46.4552 44.8999 47.0763H43.9883V52.4061H46.7532V49.5709H52.233V52.4061H54.9979V47.0763H53.7857V37.8193ZM50.7603 40.1436V47.2466H47.5045C47.775 46.7056 47.9453 46.2448 48.1256 45.6637C48.346 44.9524 48.4662 44.4014 48.5664 43.7202C48.6666 43.0489 48.7868 42.0671 48.8169 41.3959L48.867 40.1436H50.7503H50.7603ZM63.2125 49.5709V47.0563H59.1853V44.6619H62.1205V42.2675H59.1853V40.2939H62.7817L63.0021 37.8093H56.17V49.5609H63.2225L63.2125 49.5709ZM73.4407 49.5709V37.8193H65.9474L65.8973 39.9633C65.8672 41.3057 65.7771 43.1391 65.6068 44.5717C65.5767 44.9123 65.4465 45.8741 65.2561 46.385C65.1559 46.6756 65.0057 46.9461 64.6551 47.1865C64.4146 47.3268 64.064 47.467 63.8236 47.5372L63.3828 47.6574L64.0139 49.7712L64.9055 49.641C65.5767 49.5308 66.5685 49.3605 67.2597 48.6592C67.9109 47.998 68.0711 47.0362 68.1813 46.2849C68.4117 44.5316 68.5119 41.987 68.532 41.6163L68.582 40.2037H70.4253V49.5909H73.4407V49.5709ZM81.7555 45.0526V49.5709H84.7709V37.8193H80.5534C79.6317 37.8193 78.3094 37.8694 77.3476 38.5807C76.8668 38.9514 76.1856 39.7328 76.1856 41.1655C76.1856 42.0872 76.5162 42.6983 76.8968 43.069C77.2976 43.4897 77.9387 43.7903 78.5298 43.8905V43.9406C78.089 44.0207 77.6482 44.2611 77.3777 44.5817C77.1373 44.8723 76.957 45.3431 76.8768 45.6236L76.5562 46.7257C76.4861 46.9761 76.3358 47.2466 76.1054 47.4169C75.875 47.5672 75.6446 47.6474 75.4643 47.6874L74.9634 47.7876L75.6045 49.8113L76.5362 49.7212C77.3076 49.651 78.2693 49.5709 78.8403 48.8896C79.211 48.4488 79.3612 47.8277 79.4514 47.4069L79.6517 46.4151C79.7018 46.1546 79.8221 45.6537 80.1426 45.3732C80.4432 45.1027 80.8639 45.0526 81.1745 45.0526H81.7655H81.7555ZM81.8456 40.1837V42.6983H80.894C80.4231 42.6983 79.5115 42.6482 79.5115 41.4159C79.5115 40.8749 79.6117 40.1837 80.914 40.1837H81.8456Z" fill="url(#paint3_linear_2003_17387)"/>
<path d="M65.5266 59.6694H59.4258V57.9262C60.3274 57.1347 61.3792 56.183 62.1205 55.2513C62.7717 54.4498 63.1824 53.9088 63.1824 52.9972C63.1824 52.4962 62.922 52.1155 62.3209 52.1155C61.7198 52.1155 61.2991 52.4061 60.6479 52.9871L59.0851 51.5746C60.2172 50.6328 61.259 50.1519 62.7517 50.1519C64.7753 50.1519 65.8271 51.3141 65.8271 52.9471C65.8271 54.9808 64.084 56.4635 62.1205 57.7459C62.4111 57.6958 62.8418 57.6657 63.2726 57.6657H66.0576L65.5366 59.6694H65.5266Z" fill="#FF1800"/>
<path d="M70.6157 59.8496C68.572 59.8496 67.2296 57.9861 67.2296 55.0608C67.2296 51.895 68.6522 50.2419 70.6557 50.2419C72.6593 50.2419 74.0618 51.915 74.0618 54.9706C74.0618 57.8459 72.6192 59.8395 70.6157 59.8395V59.8496ZM71.1566 52.5061C71.0364 52.1354 70.8962 51.925 70.6758 51.925C70.4153 51.925 70.245 52.1154 70.1248 52.476C69.9445 53.017 69.8744 53.9387 69.8744 55.1209C69.8744 56.0326 69.9144 56.7839 70.0246 57.3049C70.1348 57.8559 70.3151 58.1665 70.6157 58.1665C70.9763 58.1665 71.1366 57.8659 71.2468 57.365C71.367 56.7839 71.3971 55.9224 71.3971 54.9305C71.3971 53.8486 71.3169 53.017 71.1466 52.5061H71.1566Z" fill="#FF1800"/>
<path d="M81.6653 59.6694H75.5645V57.9262C76.4661 57.1347 77.518 56.183 78.2593 55.2513C78.9104 54.4498 79.3212 53.9088 79.3212 52.9972C79.3212 52.4962 79.0607 52.1155 78.4596 52.1155C77.8586 52.1155 77.4378 52.4061 76.7867 52.9871L75.2239 51.5746C76.3559 50.6328 77.3977 50.1519 78.8904 50.1519C80.914 50.1519 81.9659 51.3141 81.9659 52.9471C81.9659 54.9808 80.2228 56.4635 78.2593 57.7459C78.5498 57.6958 78.9806 57.6657 79.4113 57.6657H82.1963L81.6754 59.6694H81.6653Z" fill="#FF1800"/>
<path d="M89.7998 59.6694H83.6989V57.9262C84.6006 57.1347 85.6524 56.183 86.3937 55.2513C87.0449 54.4498 87.4556 53.9088 87.4556 52.9972C87.4556 52.4962 87.1952 52.1155 86.5941 52.1155C85.993 52.1155 85.5723 52.4061 84.9211 52.9871L83.3583 51.5746C84.4904 50.6328 85.5322 50.1519 87.0249 50.1519C89.0485 50.1519 90.1003 51.3141 90.1003 52.9471C90.1003 54.9808 88.3572 56.4635 86.3937 57.7459C86.6843 57.6958 87.115 57.6657 87.5458 57.6657H90.3307L89.8098 59.6694H89.7998Z" fill="#FF1800"/>
<defs>
<linearGradient id="paint0_linear_2003_17387" x1="0" y1="22.3309" x2="92.6449" y2="22.3309" gradientUnits="userSpaceOnUse">
<stop stop-color="#E12325"/>
<stop offset="0.38" stop-color="#DE2225"/>
<stop offset="0.65" stop-color="#D42225"/>
<stop offset="0.89" stop-color="#C42025"/>
<stop offset="1" stop-color="#BB2025"/>
</linearGradient>
<linearGradient id="paint1_linear_2003_17387" x1="2.86509" y1="45.844" x2="11.1398" y2="45.844" gradientUnits="userSpaceOnUse">
<stop stop-color="#004B76"/>
<stop offset="0.5" stop-color="#008CC7"/>
<stop offset="0.8" stop-color="#00A0E3"/>
<stop offset="0.83" stop-color="#0099DA"/>
<stop offset="0.89" stop-color="#0086C1"/>
<stop offset="0.95" stop-color="#00679A"/>
<stop offset="1" stop-color="#004B76"/>
</linearGradient>
<linearGradient id="paint2_linear_2003_17387" x1="37.7973" y1="6.44181" x2="114.377" y2="75.0335" gradientUnits="userSpaceOnUse">
<stop stop-color="#004B76"/>
<stop offset="0.5" stop-color="#008CC7"/>
<stop offset="0.8" stop-color="#00A0E3"/>
<stop offset="0.83" stop-color="#0099DA"/>
<stop offset="0.89" stop-color="#0086C1"/>
<stop offset="0.95" stop-color="#00679A"/>
<stop offset="1" stop-color="#004B76"/>
</linearGradient>
<linearGradient id="paint3_linear_2003_17387" x1="27.1082" y1="18.3837" x2="103.688" y2="86.9754" gradientUnits="userSpaceOnUse">
<stop stop-color="#004B76"/>
<stop offset="0.5" stop-color="#008CC7"/>
<stop offset="0.8" stop-color="#00A0E3"/>
<stop offset="0.83" stop-color="#0099DA"/>
<stop offset="0.89" stop-color="#0086C1"/>
<stop offset="0.95" stop-color="#00679A"/>
<stop offset="1" stop-color="#004B76"/>
</linearGradient>
</defs>
</svg>
