<svg width="18" height="19" viewBox="0 0 18 19" fill="none" xmlns="http://www.w3.org/2000/svg">
<path fill-rule="evenodd" clip-rule="evenodd" d="M14.25 15.5C13.8353 15.5 13.5 15.1647 13.5 14.75C13.5 14.3353 13.8353 14 14.25 14C14.6647 14 15 14.3353 15 14.75C15 15.1647 14.6647 15.5 14.25 15.5M14.25 12.5C13.0095 12.5 12 13.5095 12 14.75C12 15.9905 13.0095 17 14.25 17C15.4905 17 16.5 15.9905 16.5 14.75C16.5 13.5095 15.4905 12.5 14.25 12.5M9 15.5C8.58525 15.5 8.25 15.1647 8.25 14.75C8.25 14.3353 8.58525 14 9 14C9.41475 14 9.75 14.3353 9.75 14.75C9.75 15.1647 9.41475 15.5 9 15.5M9 12.5C7.7595 12.5 6.75 13.5095 6.75 14.75C6.75 15.9905 7.7595 17 9 17C10.2405 17 11.25 15.9905 11.25 14.75C11.25 13.5095 10.2405 12.5 9 12.5M3.75 15.5C3.33525 15.5 3 15.1647 3 14.75C3 14.3353 3.33525 14 3.75 14C4.16475 14 4.5 14.3353 4.5 14.75C4.5 15.1647 4.16475 15.5 3.75 15.5M3.75 12.5C2.5095 12.5 1.5 13.5095 1.5 14.75C1.5 15.9905 2.5095 17 3.75 17C4.9905 17 6 15.9905 6 14.75C6 13.5095 4.9905 12.5 3.75 12.5M14.25 10.25C13.8353 10.25 13.5 9.91475 13.5 9.5C13.5 9.08525 13.8353 8.75 14.25 8.75C14.6647 8.75 15 9.08525 15 9.5C15 9.91475 14.6647 10.25 14.25 10.25M14.25 7.25C13.0095 7.25 12 8.2595 12 9.5C12 10.7405 13.0095 11.75 14.25 11.75C15.4905 11.75 16.5 10.7405 16.5 9.5C16.5 8.2595 15.4905 7.25 14.25 7.25M9 10.25C8.58525 10.25 8.25 9.91475 8.25 9.5C8.25 9.08525 8.58525 8.75 9 8.75C9.41475 8.75 9.75 9.08525 9.75 9.5C9.75 9.91475 9.41475 10.25 9 10.25M9 7.25C7.7595 7.25 6.75 8.2595 6.75 9.5C6.75 10.7405 7.7595 11.75 9 11.75C10.2405 11.75 11.25 10.7405 11.25 9.5C11.25 8.2595 10.2405 7.25 9 7.25M3.75 10.25C3.33525 10.25 3 9.91475 3 9.5C3 9.08525 3.33525 8.75 3.75 8.75C4.16475 8.75 4.5 9.08525 4.5 9.5C4.5 9.91475 4.16475 10.25 3.75 10.25M3.75 7.25C2.5095 7.25 1.5 8.2595 1.5 9.5C1.5 10.7405 2.5095 11.75 3.75 11.75C4.9905 11.75 6 10.7405 6 9.5C6 8.2595 4.9905 7.25 3.75 7.25M14.25 3.5C14.6647 3.5 15 3.83525 15 4.25C15 4.66475 14.6647 5 14.25 5C13.8353 5 13.5 4.66475 13.5 4.25C13.5 3.83525 13.8353 3.5 14.25 3.5M14.25 6.5C15.4905 6.5 16.5 5.4905 16.5 4.25C16.5 3.0095 15.4905 2 14.25 2C13.0095 2 12 3.0095 12 4.25C12 5.4905 13.0095 6.5 14.25 6.5M9 5C8.58525 5 8.25 4.664 8.25 4.25C8.25 3.83525 8.58525 3.5 9 3.5C9.41475 3.5 9.75 3.83525 9.75 4.25C9.75 4.664 9.41475 5 9 5M9 2C7.7595 2 6.75 3.0095 6.75 4.25C6.75 5.4905 7.7595 6.5 9 6.5C10.2405 6.5 11.25 5.4905 11.25 4.25C11.25 3.0095 10.2405 2 9 2M3.75 5C3.33525 5 3 4.66475 3 4.25C3 3.83525 3.33525 3.5 3.75 3.5C4.16475 3.5 4.5 3.83525 4.5 4.25C4.5 4.66475 4.16475 5 3.75 5M3.75 2C2.5095 2 1.5 3.0095 1.5 4.25C1.5 5.4905 2.5095 6.5 3.75 6.5C4.9905 6.5 6 5.4905 6 4.25C6 3.0095 4.9905 2 3.75 2" fill="white"/>
</svg>
