<svg width="209" height="45" viewBox="0 0 209 45" fill="none" xmlns="http://www.w3.org/2000/svg">
<path d="M22.442 22.356V44.7121H0L22.442 22.356Z" fill="#A3195B"/>
<path opacity="0.7" d="M44.9564 0V22.3561H22.4419L44.9564 0Z" fill="#A3195B"/>
<path d="M22.4419 22.3561V0H44.9564L22.4419 22.3561Z" fill="#D4D3D9"/>
<path d="M44.9564 22.3561V0H67.4707L44.9564 22.3561Z" fill="#A8A8A7"/>
<path d="M44.9564 44.7121H22.4419V22.356L44.9564 44.7121Z" fill="#660D37"/>
<path d="M67.4707 44.7121H44.9564V22.356L67.4707 44.7121Z" fill="#878787"/>
<path d="M22.4419 22.356H44.9564V44.7121L22.4419 22.356Z" fill="#A3195B"/>
<path d="M90.2021 29.7607H86.9444L79.5602 37.0211V29.7607H77.1713V44.569H79.5602V40.1122L83.0351 36.8055L87.9579 44.569H90.7089L84.7726 35.1522L90.2021 29.7607Z" fill="#D4D3D9"/>
<path d="M105.622 31.7735C104.898 31.0546 104.029 30.4795 103.088 30.1202C102.147 29.6889 101.061 29.4731 99.9029 29.4731C98.7445 29.4731 97.6587 29.6889 96.7175 30.1202C95.7764 30.5514 94.9076 31.1265 94.1837 31.7735C93.4599 32.4923 92.8807 33.2831 92.5187 34.2175C92.0843 35.1521 91.9396 36.1585 91.9396 37.1649C91.9396 38.1713 92.1567 39.1777 92.5187 40.1122C92.9531 41.0466 93.4599 41.8374 94.1837 42.5562C94.9076 43.275 95.7764 43.8502 96.7175 44.2095C97.6587 44.6409 98.7445 44.8565 99.9029 44.8565C101.061 44.8565 102.075 44.6409 103.088 44.2095C104.029 43.7782 104.898 43.2031 105.622 42.5562C106.346 41.8374 106.925 41.0466 107.287 40.1122C107.721 39.1777 107.866 38.1713 107.866 37.1649C107.866 36.1585 107.649 35.1521 107.287 34.2175C106.853 33.2831 106.346 32.4923 105.622 31.7735ZM105.55 37.1649C105.55 37.8837 105.405 38.6026 105.115 39.2495C104.826 39.8965 104.464 40.4715 103.957 40.9747C103.45 41.4779 102.871 41.8374 102.147 42.1249C100.772 42.6999 99.0341 42.6999 97.6587 42.1249C97.007 41.8374 96.3555 41.4779 95.8488 40.9747C95.342 40.4715 94.9801 39.8965 94.6905 39.2495C94.401 38.6026 94.2561 37.8837 94.2561 37.1649C94.2561 36.4461 94.401 35.7271 94.6905 35.0802C94.9801 34.4333 95.342 33.8582 95.8488 33.355C96.3555 32.8518 96.9347 32.4923 97.6587 32.2049C98.3102 31.9173 99.1065 31.7735 99.9029 31.7735C100.699 31.7735 101.423 31.9173 102.147 32.2049C102.871 32.4923 103.45 32.8518 103.957 33.355C104.464 33.8582 104.826 34.4333 105.115 35.0802C105.405 35.7271 105.55 36.4461 105.55 37.1649Z" fill="#D4D3D9"/>
<path d="M121.91 35.6554H113.44V29.7607H111.124V44.569H113.44V38.0275H121.91V44.569H124.227V29.7607H121.91V35.6554Z" fill="#D4D3D9"/>
<path d="M128.571 44.569H130.959V32.133H141.167V29.7607H128.571V44.569Z" fill="#D4D3D9"/>
<path d="M155.718 30.6228C155.211 30.3352 154.705 30.1196 154.126 29.9758C153.619 29.832 153.112 29.832 152.605 29.832H144.424V44.5684H146.814V38.5302H152.677C153.329 38.5302 153.908 38.4582 154.487 38.3144C155.066 38.1707 155.573 37.8831 156.008 37.5956C156.442 37.2362 156.804 36.8048 157.021 36.2298C157.239 35.6547 157.384 35.0078 157.384 34.217C157.384 33.3544 157.239 32.5636 156.876 31.9886C156.588 31.3416 156.153 30.9103 155.718 30.6228ZM152.605 36.2298H146.741V32.1323H152.605C152.967 32.1323 153.256 32.1323 153.619 32.2043C153.908 32.2762 154.198 32.348 154.415 32.4918C154.632 32.6355 154.777 32.8512 154.922 33.0668C155.066 33.3544 155.139 33.7138 155.139 34.1451C155.139 34.5764 155.066 34.9359 154.922 35.1515C154.777 35.4391 154.632 35.5828 154.415 35.7266C154.198 35.8704 153.98 36.0142 153.691 36.0142C153.329 36.1579 152.967 36.2298 152.605 36.2298Z" fill="#D4D3D9"/>
<path d="M162.886 38.0994H172.803V35.7273H162.886V32.133H172.875V29.7607H160.497V44.569H173.31V42.2687H162.886V38.0994Z" fill="#D4D3D9"/>
<path d="M189.237 40.2553C189.092 40.399 188.874 40.6147 188.585 40.9022C188.295 41.1179 187.934 41.4054 187.499 41.693C187.064 41.9086 186.558 42.1243 185.979 42.3399C185.4 42.4837 184.676 42.6274 183.879 42.6274C182.938 42.6274 182.07 42.4837 181.346 42.1962C180.621 41.9086 179.97 41.4773 179.464 40.9741C178.957 40.4709 178.594 39.8958 178.305 39.2489C178.015 38.6019 177.871 37.955 177.871 37.2361C177.871 36.5891 178.015 35.8703 178.305 35.2953C178.594 34.6482 178.957 34.0732 179.464 33.57C179.97 33.0668 180.549 32.7074 181.273 32.348C181.998 32.0604 182.721 31.9166 183.59 31.9166C184.241 31.9166 184.893 31.9885 185.472 32.1323C186.051 32.2761 186.558 32.4917 187.065 32.7074C187.499 32.923 187.934 33.2106 188.223 33.4262C188.585 33.7138 188.802 33.9294 189.02 34.0732L189.237 34.2889L190.902 32.6355L190.612 32.4198C190.395 32.2761 190.105 31.9885 189.744 31.701C189.381 31.3416 188.874 31.0541 188.295 30.6946C187.717 30.407 186.992 30.1196 186.196 29.832C184.676 29.4006 182.649 29.3288 180.621 29.9757C179.681 30.2633 178.812 30.7665 178.015 31.4134C177.219 32.0604 176.64 32.8512 176.133 33.8575C175.627 34.7921 175.409 35.9422 175.409 37.2361C175.409 38.5301 175.627 39.6083 176.133 40.6147C176.64 41.5491 177.219 42.4118 178.015 43.0587C178.812 43.7058 179.681 44.2089 180.695 44.4965C181.635 44.7839 182.649 44.9997 183.662 44.9997C184.748 44.9997 185.689 44.8559 186.486 44.6402C187.282 44.4246 187.934 44.137 188.513 43.8495C189.092 43.5619 189.526 43.2026 189.888 42.8431C190.251 42.5555 190.54 42.2681 190.684 42.0523L190.902 41.8367L189.309 40.0397L189.237 40.2553Z" fill="#D4D3D9"/>
<path d="M207.407 39.9677L207.118 40.2553C206.973 40.399 206.755 40.6147 206.466 40.9022C206.176 41.1179 205.815 41.4054 205.38 41.693C204.945 41.9086 204.439 42.1243 203.86 42.3399C203.281 42.4837 202.557 42.6274 201.76 42.6274C200.819 42.6274 199.951 42.4837 199.226 42.1962C198.502 41.9086 197.851 41.4773 197.345 40.9741C196.838 40.4709 196.475 39.8958 196.186 39.2489C195.896 38.6019 195.752 37.955 195.752 37.2361C195.752 36.5891 195.896 35.8703 196.186 35.2953C196.475 34.6482 196.838 34.0732 197.345 33.57C197.851 33.0668 198.43 32.7074 199.154 32.348C199.878 32.0604 200.603 31.9166 201.471 31.9166C202.122 31.9166 202.774 31.9885 203.353 32.1323C203.932 32.2761 204.439 32.4917 204.945 32.7074C205.38 32.923 205.815 33.2106 206.104 33.4262C206.466 33.7138 206.683 33.9294 206.901 34.0732L207.118 34.2889L208.782 32.6355L208.493 32.4198C208.276 32.2761 207.986 31.9885 207.625 31.701C207.262 31.3416 206.755 31.0541 206.176 30.6946C205.597 30.407 204.873 30.1196 204.077 29.832C202.557 29.4006 200.529 29.3288 198.502 29.9757C197.562 30.2633 196.692 30.7665 195.896 31.4134C195.1 32.0604 194.521 32.8512 194.014 33.8575C193.507 34.7921 193.29 35.9422 193.29 37.2361C193.29 38.5301 193.507 39.6083 194.014 40.6147C194.521 41.5491 195.1 42.4118 195.896 43.0587C196.692 43.7058 197.562 44.2089 198.575 44.4965C199.516 44.7839 200.529 44.9997 201.543 44.9997C202.629 44.9997 203.57 44.8559 204.367 44.6402C205.163 44.4246 205.815 44.137 206.394 43.8495C206.973 43.5619 207.407 43.2026 207.769 42.8431C208.13 42.5555 208.421 42.2681 208.565 42.0523L208.782 41.8367L207.407 39.9677Z" fill="#D4D3D9"/>
<path d="M110.762 16.3177V0.0717773H106.635V23.0749H110.4L123.214 7.04461V23.0749H127.34V0.0717773H123.648L110.762 16.3177Z" fill="#A3195B"/>
<path d="M167.301 13.2267H182.359V9.12926H167.301V4.16921H182.503V0.0717773H163.175V23.0749H183.083V18.9774H167.301V13.2267Z" fill="#A3195B"/>
<path d="M208.204 3.45048C207.697 2.51597 207.045 1.79712 206.249 1.29393C205.452 0.790734 204.656 0.43131 203.788 0.28754C202.918 0.143771 202.195 0 201.471 0H188.802V23.0032H192.929V13.8019H201.471C202.485 13.8019 203.425 13.6581 204.295 13.4424C205.235 13.2268 206.031 12.7955 206.755 12.2204C207.48 11.6453 207.986 10.9265 208.421 10.0639C208.855 9.20125 209 8.12298 209 6.90094C209 5.53513 208.71 4.31309 208.204 3.45048ZM204.873 6.90094C204.873 7.47601 204.801 7.97921 204.656 8.33863C204.512 8.69806 204.295 8.91371 204.005 9.12937C203.716 9.34502 203.353 9.48879 202.991 9.56067C202.557 9.63256 201.978 9.70444 201.471 9.70444H192.929V4.09742H201.471C201.978 4.09742 202.413 4.16932 202.918 4.2412C203.353 4.31309 203.716 4.45685 204.005 4.6725C204.295 4.88817 204.512 5.10382 204.656 5.46324C204.728 5.82266 204.873 6.32586 204.873 6.90094Z" fill="#A3195B"/>
<path d="M88.1752 0.0717773L77.1715 23.0749H81.8046L89.9851 5.75067L98.0208 23.0749H102.582L91.7226 0.0717773H88.1752Z" fill="#A3195B"/>
<path d="M146.814 0.0717773H143.267L134.217 18.9774H131.322V23.0749H132.19H156.442H158.614V18.9774H155.718L146.814 0.0717773ZM151.157 18.9774H138.779L145.003 5.82255L151.157 18.9774Z" fill="#A3195B"/>
</svg>
