<svg width="16" height="15" viewBox="0 0 16 15" fill="none" xmlns="http://www.w3.org/2000/svg">
<path fill-rule="evenodd" clip-rule="evenodd" d="M7.25 4.5C7.25 4.086 7.586 3.75 8 3.75C8.414 3.75 8.75 4.086 8.75 4.5C8.75 4.914 8.414 5.25 8 5.25C7.586 5.25 7.25 4.914 7.25 4.5ZM7.25 6.75C7.25 6.336 7.586 6 8 6C8.414 6 8.75 6.336 8.75 6.75V10.5C8.75 10.914 8.414 11.25 8 11.25C7.586 11.25 7.25 10.914 7.25 10.5V6.75ZM8 13.5C4.69175 13.5 2 10.8082 2 7.5C2 4.19175 4.69175 1.5 8 1.5C11.3082 1.5 14 4.19175 14 7.5C14 10.8082 11.3082 13.5 8 13.5M8 0C3.85775 0 0.5 3.35775 0.5 7.5C0.5 11.6422 3.85775 15 8 15C12.1415 15 15.5 11.6422 15.5 7.5C15.5 3.35775 12.1415 0 8 0" fill="white"/>
</svg>
