<svg width="114" height="58" viewBox="0 0 114 58" fill="none" xmlns="http://www.w3.org/2000/svg">
<g clip-path="url(#clip0_2377_1082)">
<path fill-rule="evenodd" clip-rule="evenodd" d="M49.3203 0C65.8217 0 80.4552 8.04776 89.5044 20.4438H85.2266C76.7194 10.0331 63.7893 3.38955 49.3203 3.38955C25.957 3.38955 6.6296 20.6859 3.4261 43.1635H0C3.23253 18.8071 24.0795 0 49.3203 0Z" fill="url(#paint0_linear_2377_1082)"/>
<path fill-rule="evenodd" clip-rule="evenodd" d="M10.7621 30.6415C6.88117 39.0282 5.33265 48.5771 6.72631 57.9903H3.27118C1.93559 48.5964 3.27118 39.1154 7.10377 30.6415H10.7621Z" fill="url(#paint1_linear_2377_1082)"/>
<path d="M18.2533 25.2763H10.5591V27.436H12.9303V35.474H15.5821V27.436H17.9533L18.2533 25.2763ZM18.834 25.2763V35.4837H21.4568V31.8521H22.2794C23.1118 31.8521 24.3022 31.7455 25.1345 31.087C26.112 30.3219 26.2765 29.1985 26.2765 28.4528C26.2765 27.5909 26.083 26.6709 25.2023 26.0027C24.3119 25.3248 23.0537 25.2667 22.1633 25.2667H18.8437L18.834 25.2763ZM21.4568 29.7699V27.4069H22.3665C22.6182 27.4069 23.015 27.436 23.2376 27.6974C23.4118 27.9008 23.4311 28.2204 23.4311 28.4916C23.4311 28.7434 23.4215 29.3051 23.0827 29.5762C22.8311 29.7699 22.4343 29.7699 22.231 29.7699H21.4665H21.4568ZM35.3257 35.474L32.248 25.2667H29.5188L26.2378 35.474H28.9865L29.5478 33.5178H31.9577L32.4803 35.474H35.316H35.3257ZM31.435 31.4937H30.1188L30.5253 29.828C30.6511 29.3341 30.7479 28.8208 30.806 28.201C30.8447 28.9177 30.9221 29.3438 30.9898 29.6343L31.435 31.4937ZM43.3586 35.474V25.2667H40.7358V29.0145H38.6453V25.2667H36.0225V35.474H38.6453V31.1838H40.7358V35.474H43.3586ZM52.1078 25.838C51.7981 25.5959 51.1109 25.0923 49.5043 25.0923C48.1494 25.0923 46.4266 25.4894 45.3717 27.4069C44.8588 28.3269 44.6749 29.3244 44.6749 30.5737C44.6749 31.9489 44.9459 33.2369 45.8459 34.2538C46.9009 35.4256 48.1784 35.658 49.1753 35.658C50.8593 35.658 51.7884 35.0963 52.3497 34.6121L51.2174 32.8302C50.5302 33.4984 49.7076 33.5178 49.4656 33.5178C49.1269 33.5178 48.5849 33.4113 48.159 32.8592C47.7332 32.3169 47.6558 31.6487 47.6558 29.8668C47.6558 29.2373 47.6461 28.2591 48.3139 27.6297C48.5365 27.4263 48.8752 27.2326 49.4559 27.2326C49.9108 27.2326 50.4625 27.3682 50.9754 27.7749L52.0884 25.8477L52.1078 25.838ZM60.4504 35.474V25.2667H53.2401V35.474H55.8629V27.3294H57.8373V35.474H60.4601H60.4504ZM70.9319 29.983C70.9319 28.9467 70.7868 27.8621 70.0512 26.8065C69.0834 25.4216 67.6413 25.0923 66.4509 25.0923C65.1153 25.0923 64.0798 25.5281 63.2571 26.3513C62.2022 27.4069 61.7667 28.8402 61.7667 30.6221C61.7667 32.4041 62.3086 33.4403 62.8119 34.0795C63.5378 35.0285 64.6798 35.6484 66.3638 35.6484C68.5608 35.6484 69.4705 34.6509 69.8867 34.0601C70.719 32.898 70.9319 31.4841 70.9319 29.9733V29.983ZM67.9994 30.3026C67.9994 31.9683 67.8446 32.7624 67.4381 33.1885C67.1187 33.5178 66.7026 33.5856 66.4025 33.5856C65.8412 33.5856 65.4928 33.3435 65.3282 33.1885C65.0476 32.927 64.6798 32.3266 64.6798 30.3316C64.6798 28.6175 65.0669 27.9783 65.1637 27.8137C65.5315 27.2229 66.1025 27.1454 66.4412 27.1454C66.9348 27.1454 67.2445 27.3488 67.4188 27.5231C67.7865 27.8911 67.9898 28.5787 67.9898 30.3026H67.9994ZM72.2385 25.2667V35.474H74.8613V31.8424H75.684C76.5163 31.8424 77.7067 31.7358 78.5391 31.0773C79.5166 30.3122 79.6811 29.1888 79.6811 28.4431C79.6811 27.5812 79.4972 26.6612 78.6165 25.993C77.7261 25.3151 76.4679 25.257 75.5775 25.257H72.2579L72.2385 25.2667ZM74.8613 29.7602V27.3972H75.7711C76.0227 27.3972 76.4195 27.4263 76.6324 27.6878C76.8066 27.8911 76.826 28.2107 76.826 28.4819C76.826 28.7337 76.8066 29.2954 76.4776 29.5665C76.2259 29.7602 75.8291 29.7602 75.6259 29.7602H74.8613ZM87.6656 25.2667H79.9714V27.4263H82.3426V35.4643H84.9944V27.4263H87.3656L87.6753 25.2667H87.6656ZM95.5824 35.474V25.2667H92.9596V29.0145H90.8691V25.2667H88.2463V35.474H90.8691V31.1838H92.9596V35.474H95.5824ZM105.377 35.474L102.289 25.2667H99.5699L96.2889 35.474H99.0472L99.5989 33.5178H102.009L102.531 35.474H105.377ZM101.476 31.4937H100.16L100.567 29.828C100.683 29.3341 100.789 28.8208 100.847 28.201C100.886 28.9177 100.964 29.3438 101.041 29.6343L101.476 31.4937ZM111.387 31.5518V35.474H114V25.2667H110.342C109.538 25.2667 108.396 25.3054 107.564 25.9252C107.138 26.2448 106.558 26.9227 106.558 28.1623C106.558 28.9661 106.858 29.4987 107.177 29.8183C107.525 30.1863 108.087 30.4478 108.6 30.535V30.5834C108.213 30.6512 107.835 30.8642 107.603 31.1451C107.4 31.3969 107.235 31.8036 107.167 32.0554L106.887 33.0045C106.829 33.2272 106.703 33.4597 106.499 33.6049C106.306 33.7405 106.103 33.8083 105.938 33.8374L105.493 33.9245L106.045 35.6871L106.858 35.6096C107.525 35.5515 108.358 35.474 108.861 34.893C109.18 34.5153 109.316 33.9729 109.384 33.6049L109.558 32.743C109.597 32.5203 109.703 32.0845 109.984 31.8327C110.245 31.6003 110.613 31.5518 110.874 31.5518H111.387ZM111.455 27.3197V29.4987H110.632C110.226 29.4987 109.432 29.4503 109.432 28.385C109.432 27.9202 109.519 27.3197 110.651 27.3197H111.455Z" fill="url(#paint2_linear_2377_1082)"/>
<path d="M33.2545 47.9185V36.5587H30.3413V40.7327H28.0089V36.5587H25.0957V47.9185H28.0089V43.1441H30.3413V47.9185H33.2545ZM42.0229 47.9185V45.4877H38.1323V43.1732H40.968V40.8586H38.1323V38.9507H41.6068L41.8197 36.549H35.2191V47.9088H42.0326L42.0229 47.9185ZM51.9625 36.5587H44.8393L44.7812 38.3406C44.7619 38.9895 44.6361 40.3453 44.5683 40.8973C44.4715 41.6333 44.278 42.7277 44.0457 43.5702C43.8521 44.3159 43.6392 44.9067 43.3779 45.5071H42.4972V50.6592H45.1684V47.9185H50.4624V50.6592H53.1336V45.5071H51.9625V36.5587ZM49.0397 38.8055V45.6717H45.8942C46.1556 45.1488 46.3201 44.7033 46.4943 44.1416C46.7072 43.454 46.8234 42.9214 46.9201 42.2628C47.0169 41.614 47.1331 40.6649 47.1621 40.016L47.2105 38.8055H49.03H49.0397ZM61.0697 47.9185V45.4877H57.1791V43.1732H60.0148V40.8586H57.1791V38.9507H60.6536L60.8665 36.549H54.2659V47.9088H61.0794L61.0697 47.9185ZM70.9512 47.9185V36.5587H63.7119L63.6635 38.6312C63.6345 39.9289 63.5474 41.7011 63.3828 43.086C63.3538 43.4153 63.228 44.345 63.0441 44.8389C62.9473 45.1197 62.8021 45.3812 62.4634 45.6136C62.2311 45.7492 61.8924 45.8848 61.6601 45.9526L61.2343 46.0688L61.844 48.1122L62.7053 47.9863C63.3538 47.8798 64.3119 47.7151 64.9797 47.0372C65.6088 46.3981 65.7637 45.4684 65.8701 44.742C66.0927 43.0473 66.1895 40.5874 66.2089 40.2291L66.2573 38.8636H68.0381V47.9379H70.9512V47.9185ZM78.9841 43.5508V47.9185H81.8973V36.5587H77.8228C76.9324 36.5587 75.6548 36.6071 74.7257 37.2947C74.2612 37.653 73.6031 38.4084 73.6031 39.7933C73.6031 40.6843 73.9224 41.275 74.2902 41.6333C74.6773 42.0401 75.2967 42.3306 75.8678 42.4275V42.4759C75.4419 42.5534 75.0161 42.7858 74.7548 43.0957C74.5225 43.3765 74.3483 43.8317 74.2708 44.1029L73.9611 45.1681C73.8934 45.4103 73.7482 45.6717 73.5256 45.8364C73.303 45.9816 73.0804 46.0591 72.9062 46.0978L72.4223 46.1947L73.0417 48.1509L73.9418 48.0638C74.687 47.996 75.6161 47.9185 76.1678 47.26C76.5259 46.8339 76.671 46.2334 76.7582 45.8267L76.9517 44.8679C77.0001 44.6161 77.1162 44.1319 77.426 43.8607C77.7163 43.5993 78.1228 43.5508 78.4228 43.5508H78.9938H78.9841ZM79.0713 38.8442V41.275H78.1518C77.6969 41.275 76.8162 41.2266 76.8162 40.0354C76.8162 39.5124 76.913 38.8442 78.1712 38.8442H79.0713Z" fill="url(#paint3_linear_2377_1082)"/>
<path d="M63.3054 57.6804H57.4113V55.9953C58.2824 55.2303 59.2986 54.3102 60.0148 53.4096C60.6439 52.6348 61.0407 52.1119 61.0407 51.2306C61.0407 50.7464 60.789 50.3784 60.2083 50.3784C59.6277 50.3784 59.2212 50.6592 58.5921 51.2209L57.0823 49.8554C58.1759 48.9451 59.1825 48.4802 60.6245 48.4802C62.5795 48.4802 63.5957 49.6036 63.5957 51.1822C63.5957 53.1481 61.9117 54.5814 60.0148 55.821C60.2954 55.7726 60.7116 55.7435 61.1278 55.7435H63.8183L63.3151 57.6804H63.3054Z" fill="#FF1800"/>
<path d="M68.2219 57.8546C66.2476 57.8546 64.9507 56.0533 64.9507 53.2254C64.9507 50.1652 66.325 48.5672 68.2606 48.5672C70.1963 48.5672 71.5512 50.1845 71.5512 53.1383C71.5512 55.9177 70.1576 57.8449 68.2219 57.8449V57.8546ZM68.7446 50.7559C68.6284 50.3976 68.4929 50.1942 68.28 50.1942C68.0284 50.1942 67.8638 50.3782 67.7477 50.7269C67.5735 51.2498 67.5057 52.1408 67.5057 53.2835C67.5057 54.1648 67.5445 54.8912 67.6509 55.3947C67.7574 55.9274 67.9316 56.2276 68.2219 56.2276C68.5703 56.2276 68.7252 55.9371 68.8317 55.4529C68.9478 54.8912 68.9768 54.0583 68.9768 53.0995C68.9768 52.0536 68.8994 51.2498 68.7349 50.7559H68.7446Z" fill="#FF1800"/>
<path d="M78.8969 57.6804H73.0029V55.9953C73.8739 55.2303 74.8902 54.3102 75.6063 53.4096C76.2354 52.6348 76.6322 52.1119 76.6322 51.2306C76.6322 50.7464 76.3806 50.3784 75.7999 50.3784C75.2192 50.3784 74.8127 50.6592 74.1836 51.2209L72.6738 49.8554C73.7675 48.9451 74.774 48.4802 76.2161 48.4802C78.1711 48.4802 79.1873 49.6036 79.1873 51.1822C79.1873 53.1481 77.5033 54.5814 75.6063 55.821C75.887 55.7726 76.3032 55.7435 76.7193 55.7435H79.4099L78.9066 57.6804H78.8969Z" fill="#FF1800"/>
<path d="M86.7558 57.6804H80.8618V55.9953C81.7328 55.2303 82.749 54.3102 83.4652 53.4096C84.0943 52.6348 84.4911 52.1119 84.4911 51.2306C84.4911 50.7464 84.2395 50.3784 83.6588 50.3784C83.0781 50.3784 82.6716 50.6592 82.0425 51.2209L80.5327 49.8554C81.6264 48.9451 82.6329 48.4802 84.075 48.4802C86.03 48.4802 87.0462 49.6036 87.0462 51.1822C87.0462 53.1481 85.3622 54.5814 83.4652 55.821C83.7459 55.7726 84.1621 55.7435 84.5782 55.7435H87.2688L86.7655 57.6804H86.7558Z" fill="#FF1800"/>
</g>
<defs>
<linearGradient id="paint0_linear_2377_1082" x1="0" y1="21.5866" x2="89.5044" y2="21.5866" gradientUnits="userSpaceOnUse">
<stop stop-color="#E12325"/>
<stop offset="0.38" stop-color="#DE2225"/>
<stop offset="0.65" stop-color="#D42225"/>
<stop offset="0.89" stop-color="#C42025"/>
<stop offset="1" stop-color="#BB2025"/>
</linearGradient>
<linearGradient id="paint1_linear_2377_1082" x1="2.76791" y1="44.3159" x2="10.7621" y2="44.3159" gradientUnits="userSpaceOnUse">
<stop stop-color="#004B76"/>
<stop offset="0.5" stop-color="#008CC7"/>
<stop offset="0.8" stop-color="#00A0E3"/>
<stop offset="0.83" stop-color="#0099DA"/>
<stop offset="0.89" stop-color="#0086C1"/>
<stop offset="0.95" stop-color="#00679A"/>
<stop offset="1" stop-color="#004B76"/>
</linearGradient>
<linearGradient id="paint2_linear_2377_1082" x1="36.5161" y1="6.22708" x2="110.539" y2="72.4894" gradientUnits="userSpaceOnUse">
<stop stop-color="#004B76"/>
<stop offset="0.5" stop-color="#008CC7"/>
<stop offset="0.8" stop-color="#00A0E3"/>
<stop offset="0.83" stop-color="#0099DA"/>
<stop offset="0.89" stop-color="#0086C1"/>
<stop offset="0.95" stop-color="#00679A"/>
<stop offset="1" stop-color="#004B76"/>
</linearGradient>
<linearGradient id="paint3_linear_2377_1082" x1="26.1893" y1="17.7709" x2="100.212" y2="84.0332" gradientUnits="userSpaceOnUse">
<stop stop-color="#004B76"/>
<stop offset="0.5" stop-color="#008CC7"/>
<stop offset="0.8" stop-color="#00A0E3"/>
<stop offset="0.83" stop-color="#0099DA"/>
<stop offset="0.89" stop-color="#0086C1"/>
<stop offset="0.95" stop-color="#00679A"/>
<stop offset="1" stop-color="#004B76"/>
</linearGradient>
<clipPath id="clip0_2377_1082">
<rect width="114" height="58" fill="white"/>
</clipPath>
</defs>
</svg>
