<svg width="63" height="63" viewBox="0 0 63 63" fill="none" xmlns="http://www.w3.org/2000/svg">
<path d="M41.3097 12.8542H10.3306V14.9253H41.3097V12.8542Z" fill="url(#paint0_linear_2377_900)"/>
<path d="M44.4101 20.0844H7.23022V22.1554H44.4101V20.0844Z" fill="url(#paint1_linear_2377_900)"/>
<path d="M41.3097 27.3145H10.3306V29.3855H41.3097V27.3145Z" fill="url(#paint2_linear_2377_900)"/>
<path d="M51.6402 22.019V5.62411H0V36.6032H6.20079V49.3025L19.6813 36.7893C20.1774 45.2843 29.677 52.0928 41.322 52.0928C43.4055 52.0928 45.4766 51.8696 47.4856 51.4355L54.7406 57.3759V48.6576C59.9988 45.6068 63 41.0554 63 36.0948C63 30.1544 58.6594 24.8218 51.6402 22.019ZM19.0612 34.5446L8.25945 44.5651V34.5446H2.05866V7.69518H49.5691V34.5446H19.0612ZM53.2152 47.1446L52.6819 47.4422V53.0229L47.9941 49.2032C47.9941 49.2032 45.489 50.0466 41.3096 50.0466C30.7311 50.0466 22.112 44.069 21.7276 36.6156H51.6402V24.2513C57.4069 26.7936 60.9413 31.2334 60.9413 36.0948C60.9289 40.4477 58.1138 44.4658 53.2152 47.1446Z" fill="url(#paint3_linear_2377_900)"/>
<defs>
<linearGradient id="paint0_linear_2377_900" x1="10.3306" y1="14.183" x2="41.3095" y2="14.0728" gradientUnits="userSpaceOnUse">
<stop stop-color="#505099" stop-opacity="0.5"/>
<stop offset="0.229167" stop-color="#53539C"/>
<stop offset="0.505208" stop-color="#208BC9"/>
<stop offset="1" stop-color="#1DA29E"/>
</linearGradient>
<linearGradient id="paint1_linear_2377_900" x1="7.23022" y1="21.4131" x2="44.4096" y2="21.2545" gradientUnits="userSpaceOnUse">
<stop stop-color="#505099" stop-opacity="0.5"/>
<stop offset="0.229167" stop-color="#53539C"/>
<stop offset="0.505208" stop-color="#208BC9"/>
<stop offset="1" stop-color="#1DA29E"/>
</linearGradient>
<linearGradient id="paint2_linear_2377_900" x1="10.3306" y1="28.6433" x2="41.3095" y2="28.5331" gradientUnits="userSpaceOnUse">
<stop stop-color="#505099" stop-opacity="0.5"/>
<stop offset="0.229167" stop-color="#53539C"/>
<stop offset="0.505208" stop-color="#208BC9"/>
<stop offset="1" stop-color="#1DA29E"/>
</linearGradient>
<linearGradient id="paint3_linear_2377_900" x1="-5.88577e-08" y1="38.8276" x2="63.0003" y2="38.8094" gradientUnits="userSpaceOnUse">
<stop stop-color="#505099" stop-opacity="0.5"/>
<stop offset="0.229167" stop-color="#53539C"/>
<stop offset="0.505208" stop-color="#208BC9"/>
<stop offset="1" stop-color="#1DA29E"/>
</linearGradient>
</defs>
</svg>
