<svg width="63" height="55" viewBox="0 0 63 55" fill="none" xmlns="http://www.w3.org/2000/svg">
<path d="M19.5572 9.46182C23.258 9.46182 26.6099 10.9618 29.034 13.386C31.5663 15.9181 32.9614 19.312 32.9614 22.8663C32.9614 26.4205 31.5663 29.8144 29.034 32.3431C26.6099 34.7707 23.258 36.2707 19.5572 36.2707C15.8564 36.2707 12.5044 34.7708 10.0768 32.3431C7.56197 29.8283 6.15284 26.4381 6.15284 22.8663C6.15284 19.3084 7.55151 15.9148 10.0768 13.386C12.5044 10.9618 15.8564 9.46182 19.5572 9.46182ZM40.4886 33.1627C40.9979 33.1627 41.4093 33.578 41.4093 34.0873C41.4093 34.5964 40.9977 35.0116 40.4886 35.0116H35.6263C35.3717 35.0116 35.1379 34.9068 34.9705 34.736L32.3964 32.514C32.0127 32.1792 31.9709 31.6 32.3021 31.2165C32.6371 30.833 33.216 30.7909 33.5997 31.1223L35.9645 33.1627H40.4886ZM40.3629 10.5955C40.8722 10.5955 41.2837 11.0069 41.2837 11.5198C41.2837 12.0292 40.8721 12.4405 40.3629 12.4405H35.8424L33.4742 14.4845C33.0905 14.8158 32.5116 14.7741 32.1766 14.3902C31.8454 14.0067 31.8872 13.4241 32.2709 13.0927L34.8485 10.8674C35.0158 10.6999 35.246 10.5953 35.5007 10.5953H40.3629V10.5955ZM35.696 23.7869C35.1867 23.7869 34.7717 23.3755 34.7717 22.8663C34.7717 22.3571 35.1867 21.9418 35.696 21.9418H40.3631C40.8724 21.9418 41.2838 22.357 41.2838 22.8663C41.2838 23.3756 40.8722 23.7869 40.3631 23.7869H35.696ZM43.8266 25.5799C43.3173 25.5799 42.9021 25.1684 42.9021 24.6555C42.9021 24.1462 43.3173 23.7349 43.8266 23.7349H53.715C54.2243 23.7349 54.6393 24.1464 54.6393 24.6555C54.6393 25.1684 54.2243 25.5799 53.715 25.5799H43.8266ZM43.8266 10.6479C43.3173 10.6479 42.9021 10.2362 42.9021 9.72699C42.9021 9.21782 43.3173 8.80266 43.8266 8.80266H56.3694C56.8787 8.80266 57.2901 9.2177 57.2901 9.72699C57.2901 10.2363 56.8785 10.6479 56.3694 10.6479H43.8266ZM43.8266 14.2335C43.3173 14.2335 42.9021 13.8184 42.9021 13.3091C42.9021 12.7998 43.3173 12.3885 43.8266 12.3885H53.715C54.2243 12.3885 54.6393 12.8 54.6393 13.3091C54.6393 13.8183 54.2243 14.2335 53.715 14.2335H43.8266ZM43.8266 36.9261C43.3173 36.9261 42.9021 36.5147 42.9021 36.0055C42.9021 35.4962 43.3173 35.0812 43.8266 35.0812H53.715C54.2243 35.0812 54.6393 35.4962 54.6393 36.0055C54.6393 36.5148 54.2243 36.9261 53.715 36.9261H43.8266ZM43.8266 33.3441C43.3173 33.3441 42.9021 32.9291 42.9021 32.4197C42.9021 31.9104 43.3173 31.499 43.8266 31.499H56.3694C56.8787 31.499 57.2901 31.9105 57.2901 32.4197C57.2901 32.9291 56.8785 33.3441 56.3694 33.3441H43.8266ZM43.8266 21.9976C43.3173 21.9976 42.9021 21.5826 42.9021 21.0733C42.9021 20.564 43.3173 20.1526 43.8266 20.1526H56.3694C56.8787 20.1526 57.2901 20.5641 57.2901 21.0733C57.2901 21.5826 56.8785 21.9976 56.3694 21.9976H43.8266ZM32.4208 41.8478V47.0134C33.1253 47.1879 33.7601 47.5505 34.2554 48.0459C34.9601 48.7539 35.396 49.7272 35.396 50.8015C35.396 51.8792 34.9601 52.8525 34.2554 53.5569C33.5508 54.265 32.5776 54.7012 31.4999 54.7012C30.4257 54.7012 29.4489 54.265 28.7444 53.5569C28.0398 52.8525 27.6037 51.8792 27.6037 50.8015C27.6037 49.7273 28.0398 48.7539 28.7444 48.0459C29.2432 47.5506 29.8746 47.1879 30.5826 47.0134V41.8478H2.71368C2.20438 41.8478 1.79279 41.436 1.79279 40.9234V37.3414C1.79279 36.8321 2.20438 36.4205 2.71368 36.4205C3.22297 36.4205 3.638 36.8322 3.638 37.3414V40.0025H59.3656V12.5696C59.3656 12.0603 59.7772 11.6452 60.2863 11.6452C60.7955 11.6452 61.2107 12.0603 61.2107 12.5696V40.9236C61.2107 41.4362 60.7956 41.8479 60.2863 41.8479H32.4208V41.8478ZM32.951 49.354C32.5812 48.9808 32.0685 48.7506 31.5 48.7506C30.935 48.7506 30.4222 48.9808 30.049 49.354C29.6793 49.7236 29.4491 50.2365 29.4491 50.8015C29.4491 51.3699 29.6793 51.8827 30.049 52.2524C30.4222 52.6256 30.935 52.8558 31.5 52.8558C32.0685 52.8558 32.5812 52.6256 32.951 52.2524C33.3207 51.8827 33.5509 51.3699 33.5509 50.8015C33.5509 50.2365 33.3207 49.7236 32.951 49.354ZM3.638 33.1627C3.638 33.672 3.22297 34.0836 2.71368 34.0836C2.20438 34.0836 1.79279 33.6719 1.79279 33.1627V5.56591C1.41602 5.42994 1.07432 5.20994 0.798697 4.93099C0.307002 4.43929 0 3.76254 0 3.01269C0 2.26629 0.307002 1.58608 0.79882 1.09771C1.28707 0.606014 1.96727 0.298889 2.71368 0.298889H29.4107C29.92 0.298889 30.335 0.713926 30.335 1.22322C30.335 1.73263 29.92 2.14422 29.4107 2.14422H2.71368C2.47644 2.14422 2.26025 2.2418 2.10324 2.40238C1.94279 2.55926 1.84509 2.77558 1.84509 3.01281C1.84509 3.25337 1.94266 3.46968 2.10324 3.62657C2.26013 3.78345 2.47644 3.88128 2.71368 3.88128H60.2863C60.5236 3.88128 60.7432 3.78345 60.9002 3.62657C61.0571 3.46968 61.1548 3.25337 61.1548 3.01281C61.1548 2.77558 61.0571 2.55926 60.9002 2.40238C60.7432 2.2418 60.5236 2.14422 60.2863 2.14422H33.5892C33.0799 2.14422 32.6685 1.73251 32.6685 1.22322C32.6685 0.713926 33.08 0.298889 33.5892 0.298889H60.2863C61.0327 0.298889 61.7129 0.606014 62.2047 1.09771C62.6966 1.58621 63 2.26629 63 3.01269C63 3.76254 62.6966 4.43929 62.2047 4.93099C61.9256 5.21006 61.5873 5.42994 61.2107 5.56591V8.38762C61.2107 8.89691 60.7956 9.31195 60.2863 9.31195C59.777 9.31195 59.3656 8.89691 59.3656 8.38762V5.72981H3.638V33.1627ZM15.5564 12.0186C16.0622 12.6081 16.6761 13.1104 17.3736 13.4976C18.3608 14.0453 19.5222 14.3592 20.7675 14.3592C21.8103 14.3592 22.7905 14.136 23.666 13.7418C24.2276 13.4906 24.7473 13.1628 25.2078 12.779C23.5369 11.8408 21.6081 11.3072 19.5572 11.3072C18.1515 11.307 16.8051 11.5582 15.5564 12.0186V12.0186ZM26.7808 13.8429C26.1006 14.4882 25.3019 15.0253 24.423 15.4228C23.3137 15.9218 22.072 16.2042 20.7675 16.2042C19.2119 16.2042 17.7469 15.803 16.4878 15.1056C15.4414 14.5264 14.538 13.7418 13.8404 12.8174C12.937 13.33 12.1103 13.9614 11.3813 14.6906C10.3699 15.7055 9.54327 16.9054 8.96077 18.2378H14.6602C15.4659 18.2378 16.1983 18.5689 16.7285 19.0993C17.2587 19.6296 17.5899 20.3618 17.5899 21.1676C17.5899 21.9768 17.2587 22.7094 16.7285 23.2396C16.1983 23.7698 15.4659 24.0976 14.6602 24.0976H14.0288C13.7288 24.0976 13.4602 24.2233 13.2615 24.4184C13.0661 24.6174 12.944 24.8859 12.944 25.1824C12.944 25.4824 13.0661 25.751 13.2615 25.9497C13.4603 26.1451 13.7288 26.2672 14.0288 26.2672H17.8515C18.6574 26.2672 19.3897 26.5983 19.9199 27.1285C20.4501 27.6587 20.7815 28.3912 20.7815 29.2004C20.7815 30.0062 20.4501 30.7387 19.9199 31.2689C19.3897 31.7991 18.6574 32.1305 17.8515 32.1305H12.6439C14.5694 33.5711 16.9621 34.4254 19.5572 34.4254C22.7487 34.4254 25.6367 33.1315 27.7295 31.0387C28.8981 29.8703 29.8188 28.454 30.4013 26.8741H26.8261C25.8215 26.8741 24.9042 26.4623 24.245 25.7999C23.5822 25.137 23.1707 24.2234 23.1707 23.2151C23.1707 22.2106 23.5823 21.2931 24.245 20.6305C24.9042 19.9714 25.8215 19.5597 26.8261 19.5597H30.635C30.0804 17.6971 29.069 16.0299 27.7295 14.6907C27.4295 14.3903 27.1121 14.1079 26.7808 13.8429V13.8429ZM10.6907 30.2852H17.8515C18.1481 30.2852 18.4201 30.1631 18.6154 29.9644C18.8142 29.769 18.9363 29.4969 18.9363 29.2004C18.9363 28.9004 18.8142 28.632 18.6154 28.4331C18.42 28.2379 18.1479 28.1159 17.8515 28.1159H14.0288C13.2197 28.1159 12.487 27.7845 11.957 27.2543C11.4267 26.7241 11.099 25.9916 11.099 25.1824C11.099 24.3766 11.4269 23.6441 11.957 23.1139C12.4872 22.5837 13.2197 22.2525 14.0288 22.2525H14.6602C14.9566 22.2525 15.2287 22.1304 15.424 21.935C15.6229 21.7362 15.745 21.4675 15.745 21.1676C15.745 20.8711 15.6229 20.599 15.424 20.4039C15.2288 20.2049 14.9567 20.0829 14.6602 20.0829H8.33286C8.1131 20.9759 7.99805 21.9072 7.99805 22.8664C7.99792 25.6879 9.00949 28.2761 10.6907 30.2852V30.2852ZM31.0221 21.4048H26.8261C26.3308 21.4048 25.8774 21.6072 25.5495 21.9383C25.2181 22.2664 25.0158 22.7198 25.0158 23.215C25.0158 23.714 25.2182 24.1672 25.5495 24.4952C25.8774 24.823 26.3308 25.0287 26.8261 25.0287H30.9141C31.0465 24.3277 31.1163 23.6058 31.1163 22.8663C31.1163 22.3709 31.085 21.8825 31.0221 21.4048V21.4048Z" fill="url(#paint0_linear_2377_888)"/>
<defs>
<linearGradient id="paint0_linear_2377_888" x1="-5.88577e-08" y1="35.203" x2="63.0003" y2="35.1857" gradientUnits="userSpaceOnUse">
<stop stop-color="#505099"/>
<stop offset="0.229167" stop-color="#53539C"/>
<stop offset="0.505208" stop-color="#208BC9"/>
<stop offset="1" stop-color="#1DA29E"/>
</linearGradient>
</defs>
</svg>
