<svg width="63" height="63" viewBox="0 0 63 63" fill="none" xmlns="http://www.w3.org/2000/svg">
<path d="M61.8827 50.6929L53.8847 36.9116C53.798 36.7627 53.6737 36.6391 53.5243 36.5531C53.3749 36.4672 53.2056 36.4219 53.0332 36.4219H42.4438L43.9204 33.4688H48.7266C49.64 33.4677 50.5157 33.1044 51.1617 32.4585C51.8076 31.8126 52.1709 30.9369 52.1719 30.0234V9.35156C52.1709 8.43812 51.8076 7.56238 51.1617 6.91647C50.5157 6.27057 49.64 5.90726 48.7266 5.90625H14.2734C13.36 5.90726 12.4843 6.27057 11.8383 6.91647C11.1924 7.56238 10.8291 8.43812 10.8281 9.35156V30.0234C10.8291 30.9369 11.1924 31.8126 11.8383 32.4585C12.4843 33.1044 13.36 33.4677 14.2734 33.4688H34.8296L36.3062 36.4219H9.84375C9.67019 36.422 9.49973 36.4679 9.34958 36.555C9.19944 36.6421 9.07491 36.7672 8.98857 36.9178L1.11357 50.699C1.02883 50.8479 0.984301 51.0162 0.984375 51.1875V56.1094C0.984375 56.3704 1.08809 56.6208 1.27269 56.8054C1.4573 56.99 1.70768 57.0938 1.96875 57.0938H61.0312C61.2923 57.0938 61.5427 56.99 61.7273 56.8054C61.9119 56.6208 62.0156 56.3704 62.0156 56.1094V51.1875C62.0158 51.0138 61.9699 50.8431 61.8827 50.6929ZM52.466 38.3906L59.3221 50.2031H55.7538L50.2683 38.3906H52.466ZM35.4375 31.5H14.2734C13.8819 31.4997 13.5065 31.344 13.2297 31.0672C12.9529 30.7903 12.7972 30.4149 12.7969 30.0234V9.35156C12.7972 8.96005 12.9529 8.58467 13.2297 8.30784C13.5065 8.031 13.8819 7.87533 14.2734 7.875H48.7266C49.1181 7.87533 49.4935 8.031 49.7703 8.30784C50.0471 8.58467 50.2028 8.96005 50.2031 9.35156V30.0234C50.2028 30.4149 50.0471 30.7903 49.7703 31.0672C49.4935 31.344 49.1181 31.4997 48.7266 31.5H43.3125C43.1297 31.5 42.9504 31.5509 42.7948 31.6469C42.6393 31.743 42.5134 31.8804 42.4315 32.0439L39.375 38.1581L36.3185 32.0439C36.2366 31.8804 36.1107 31.743 35.9552 31.6469C35.7996 31.5509 35.6203 31.5 35.4375 31.5ZM37.2906 38.3906L38.494 40.7999C38.5759 40.9634 38.7017 41.1008 38.8573 41.1969C39.0129 41.2929 39.1921 41.3438 39.375 41.3438C39.5579 41.3438 39.7371 41.2929 39.8927 41.1969C40.0483 41.1008 40.1741 40.9634 40.256 40.7999L41.4594 38.3906H48.0978L53.5832 50.2031H9.40693L14.8075 38.3906H37.2906ZM10.4147 38.3906H12.6431L7.24254 50.2031H3.66557L10.4147 38.3906ZM60.0469 55.125H2.95312V52.1719H60.0469V55.125Z" fill="url(#paint0_linear_2377_840)"/>
<path d="M31.5 45.2812C32.0437 45.2812 32.4844 44.8405 32.4844 44.2969C32.4844 43.7532 32.0437 43.3125 31.5 43.3125C30.9563 43.3125 30.5156 43.7532 30.5156 44.2969C30.5156 44.8405 30.9563 45.2812 31.5 45.2812Z" fill="url(#paint1_linear_2377_840)"/>
<path d="M35.4375 45.2812C35.9812 45.2812 36.4219 44.8405 36.4219 44.2969C36.4219 43.7532 35.9812 43.3125 35.4375 43.3125C34.8938 43.3125 34.4531 43.7532 34.4531 44.2969C34.4531 44.8405 34.8938 45.2812 35.4375 45.2812Z" fill="url(#paint2_linear_2377_840)"/>
<path d="M27.5625 45.2812C28.1062 45.2812 28.5469 44.8405 28.5469 44.2969C28.5469 43.7532 28.1062 43.3125 27.5625 43.3125C27.0188 43.3125 26.5781 43.7532 26.5781 44.2969C26.5781 44.8405 27.0188 45.2812 27.5625 45.2812Z" fill="url(#paint3_linear_2377_840)"/>
<path d="M39.375 18.7031C39.375 18.4421 39.2713 18.1917 39.0867 18.0071C38.9021 17.8225 38.6517 17.7188 38.3906 17.7188C38.1296 17.7188 37.8792 17.8225 37.6946 18.0071C37.51 18.1917 37.4063 18.4421 37.4063 18.7031C37.4043 20.0982 36.9093 21.4478 36.0086 22.5132C35.108 23.5787 33.8597 24.2915 32.4844 24.5257V22.541C33.5954 22.313 34.5937 21.7088 35.311 20.8303C36.0283 19.9519 36.4207 18.8529 36.4219 17.7188V13.7812C36.4219 12.4759 35.9033 11.224 34.9803 10.301C34.0573 9.37793 32.8054 8.85938 31.5 8.85938C30.1946 8.85938 28.9427 9.37793 28.0197 10.301C27.0967 11.224 26.5781 12.4759 26.5781 13.7812V17.7188C26.5793 18.8529 26.9717 19.9519 27.689 20.8303C28.4063 21.7088 29.4046 22.313 30.5156 22.541V24.5257C29.1403 24.2915 27.892 23.5787 26.9914 22.5132C26.0907 21.4478 25.5957 20.0982 25.5938 18.7031C25.5938 18.4421 25.49 18.1917 25.3054 18.0071C25.1208 17.8225 24.8704 17.7188 24.6094 17.7188C24.3483 17.7188 24.0979 17.8225 23.9133 18.0071C23.7287 18.1917 23.625 18.4421 23.625 18.7031C23.6275 20.6203 24.3284 22.4709 25.5967 23.9086C26.865 25.3463 28.6137 26.2726 30.5156 26.5141V28.5469H27.5625C27.3014 28.5469 27.051 28.6506 26.8664 28.8352C26.6818 29.0198 26.5781 29.2702 26.5781 29.5312C26.5781 29.7923 26.6818 30.0427 26.8664 30.2273C27.051 30.4119 27.3014 30.5156 27.5625 30.5156H35.4375C35.6986 30.5156 35.949 30.4119 36.1336 30.2273C36.3182 30.0427 36.4219 29.7923 36.4219 29.5312C36.4219 29.2702 36.3182 29.0198 36.1336 28.8352C35.949 28.6506 35.6986 28.5469 35.4375 28.5469H32.4844V26.5141C34.3863 26.2726 36.135 25.3463 37.4033 23.9086C38.6716 22.4709 39.3725 20.6203 39.375 18.7031ZM31.5 20.6719C31.0848 20.672 30.6743 20.5844 30.2953 20.4148C29.9164 20.2451 29.5776 19.9973 29.3012 19.6875H29.5313C29.7923 19.6875 30.0427 19.5838 30.2273 19.3992C30.4119 19.2146 30.5156 18.9642 30.5156 18.7031C30.5156 18.4421 30.4119 18.1917 30.2273 18.0071C30.0427 17.8225 29.7923 17.7188 29.5313 17.7188H28.5469V16.7344H29.5313C29.7923 16.7344 30.0427 16.6307 30.2273 16.4461C30.4119 16.2615 30.5156 16.0111 30.5156 15.75C30.5156 15.4889 30.4119 15.2385 30.2273 15.0539C30.0427 14.8693 29.7923 14.7656 29.5313 14.7656H28.5469V13.7812H29.5313C29.7923 13.7812 30.0427 13.6775 30.2273 13.4929C30.4119 13.3083 30.5156 13.0579 30.5156 12.7969C30.5156 12.5358 30.4119 12.2854 30.2273 12.1008C30.0427 11.9162 29.7923 11.8125 29.5313 11.8125H29.3012C29.5777 11.5029 29.9165 11.2551 30.2954 11.0855C30.6744 10.9158 31.0848 10.8282 31.5 10.8282C31.9152 10.8282 32.3256 10.9158 32.7046 11.0855C33.0835 11.2551 33.4223 11.5029 33.6988 11.8125H33.4688C33.2077 11.8125 32.9573 11.9162 32.7727 12.1008C32.5881 12.2854 32.4844 12.5358 32.4844 12.7969C32.4844 13.0579 32.5881 13.3083 32.7727 13.4929C32.9573 13.6775 33.2077 13.7812 33.4688 13.7812H34.3301C34.3712 13.7809 34.4123 13.778 34.4531 13.7726V14.7656H33.4688C33.2077 14.7656 32.9573 14.8693 32.7727 15.0539C32.5881 15.2385 32.4844 15.4889 32.4844 15.75C32.4844 16.0111 32.5881 16.2615 32.7727 16.4461C32.9573 16.6307 33.2077 16.7344 33.4688 16.7344H34.4531V17.7274C34.4123 17.722 34.3712 17.7191 34.3301 17.7188H33.4688C33.2077 17.7188 32.9573 17.8225 32.7727 18.0071C32.5881 18.1917 32.4844 18.4421 32.4844 18.7031C32.4844 18.9642 32.5881 19.2146 32.7727 19.3992C32.9573 19.5838 33.2077 19.6875 33.4688 19.6875H33.6988C33.4224 19.9973 33.0836 20.2451 32.7047 20.4148C32.3257 20.5844 31.9152 20.672 31.5 20.6719Z" fill="url(#paint4_linear_2377_840)"/>
<defs>
<linearGradient id="paint0_linear_2377_840" x1="0.984375" y1="38.7477" x2="62.0159" y2="38.7304" gradientUnits="userSpaceOnUse">
<stop stop-color="#505099" stop-opacity="0.5"/>
<stop offset="0.229167" stop-color="#53539C"/>
<stop offset="0.505208" stop-color="#208BC9"/>
<stop offset="1" stop-color="#1DA29E"/>
</linearGradient>
<linearGradient id="paint1_linear_2377_840" x1="30.5156" y1="44.5756" x2="32.4844" y2="44.5752" gradientUnits="userSpaceOnUse">
<stop stop-color="#505099" stop-opacity="0.5"/>
<stop offset="0.229167" stop-color="#53539C"/>
<stop offset="0.505208" stop-color="#208BC9"/>
<stop offset="1" stop-color="#1DA29E"/>
</linearGradient>
<linearGradient id="paint2_linear_2377_840" x1="34.4531" y1="44.5756" x2="36.4219" y2="44.5752" gradientUnits="userSpaceOnUse">
<stop stop-color="#505099" stop-opacity="0.5"/>
<stop offset="0.229167" stop-color="#53539C"/>
<stop offset="0.505208" stop-color="#208BC9"/>
<stop offset="1" stop-color="#1DA29E"/>
</linearGradient>
<linearGradient id="paint3_linear_2377_840" x1="26.5781" y1="44.5756" x2="28.5469" y2="44.5752" gradientUnits="userSpaceOnUse">
<stop stop-color="#505099" stop-opacity="0.5"/>
<stop offset="0.229167" stop-color="#53539C"/>
<stop offset="0.505208" stop-color="#208BC9"/>
<stop offset="1" stop-color="#1DA29E"/>
</linearGradient>
<linearGradient id="paint4_linear_2377_840" x1="23.625" y1="22.7539" x2="39.3751" y2="22.7511" gradientUnits="userSpaceOnUse">
<stop stop-color="#505099" stop-opacity="0.5"/>
<stop offset="0.229167" stop-color="#53539C"/>
<stop offset="0.505208" stop-color="#208BC9"/>
<stop offset="1" stop-color="#1DA29E"/>
</linearGradient>
</defs>
</svg>
