<svg width="63" height="62" viewBox="0 0 63 62" fill="none" xmlns="http://www.w3.org/2000/svg">
<path d="M62.6983 8.40812L52.5377 0.279419C52.3577 0.134939 52.1335 0.0568237 51.9026 0.0568237H11.2601C11.0296 0.0568237 10.8054 0.134939 10.625 0.279419L0.46437 8.40812C0.13921 8.66533 0.00425524 9.09464 0.12492 9.49156C0.245585 9.88817 0.597102 10.1705 1.01022 10.2032L19.6701 28.8634C15.6056 32.3214 13.2723 37.3954 13.2923 42.7316C13.2923 52.8322 21.4807 61.021 31.5814 61.021C41.6823 61.021 49.8707 52.8322 49.8707 42.7316C49.8904 37.3951 47.5571 32.3211 43.4929 28.8624L62.1528 10.2032C62.5659 10.1705 62.9171 9.88817 63.0378 9.49156C63.1585 9.09464 63.0235 8.66533 62.6983 8.40812ZM35.8897 24.9646L50.6366 10.2175H59.2651L41.863 27.6196C40.0492 26.3793 38.0255 25.48 35.8897 24.9646ZM21.3004 27.6196L3.89761 10.2175H12.5261L27.2746 24.9659C25.1385 25.4803 23.1145 26.3796 21.3004 27.6196ZM29.7342 24.5512L15.3999 10.2175H47.7632L33.4294 24.5522C32.2009 24.4207 30.9618 24.4207 29.7336 24.5512H29.7342ZM11.617 2.08908H51.5479L59.1683 8.18552H3.99636L11.617 2.08908ZM47.8384 42.7316C47.8419 50.3735 42.5228 56.9863 35.0584 58.6204C27.5931 60.2547 19.9978 56.4693 16.8085 49.5251C13.6185 42.5808 15.6958 34.3527 21.7999 29.7547C24.0446 28.0499 26.6995 26.9677 29.4964 26.6178C30.8853 26.4253 32.2939 26.4253 33.6825 26.6178C41.7779 27.6733 47.8349 34.5677 47.8384 42.7316Z" fill="url(#paint0_linear_2377_872)"/>
<path d="M40.1367 31.3739C38.1661 29.8828 35.8372 28.9371 33.3852 28.6307C32.1715 28.463 30.9408 28.4653 29.7268 28.6367C22.6517 29.5668 17.3611 35.5953 17.3567 42.7317C17.3532 49.4191 22.0083 55.205 28.5408 56.6352C35.0732 58.0645 41.7193 54.7506 44.5096 48.6732C47.2992 42.5955 45.4797 35.3959 40.1367 31.3739ZM31.5815 54.9246C26.3386 54.9265 21.6816 51.5746 20.0186 46.6022C18.3563 41.6305 20.0596 36.1517 24.2489 32.9985C25.9227 31.7242 27.9038 30.9145 29.9916 30.6506C30.5184 30.5769 31.0497 30.5398 31.5815 30.5388C32.0963 30.5372 32.6104 30.5712 33.1213 30.6404C39.2089 31.4155 43.7726 36.5946 43.7745 42.7317C43.7668 49.4629 38.3128 54.917 31.5815 54.9246Z" fill="url(#paint1_linear_2377_872)"/>
<path d="M32.5976 35.6191C32.5976 35.2085 32.3499 34.8376 31.9704 34.6805C31.591 34.5233 31.1537 34.6106 30.8631 34.9008L26.799 38.965L28.2355 40.4019L30.5653 38.0721V48.8282H28.5334V50.8604H34.6298V48.8282H32.5976V35.6191Z" fill="url(#paint2_linear_2377_872)"/>
<defs>
<linearGradient id="paint0_linear_2377_872" x1="0.0812988" y1="39.1709" x2="63.0817" y2="39.1555" gradientUnits="userSpaceOnUse">
<stop stop-color="#505099" stop-opacity="0.5"/>
<stop offset="0.229167" stop-color="#53539C"/>
<stop offset="0.505208" stop-color="#208BC9"/>
<stop offset="1" stop-color="#1DA29E"/>
</linearGradient>
<linearGradient id="paint1_linear_2377_872" x1="17.3567" y1="46.7655" x2="45.8078" y2="46.7587" gradientUnits="userSpaceOnUse">
<stop stop-color="#505099" stop-opacity="0.5"/>
<stop offset="0.229167" stop-color="#53539C"/>
<stop offset="0.505208" stop-color="#208BC9"/>
<stop offset="1" stop-color="#1DA29E"/>
</linearGradient>
<linearGradient id="paint2_linear_2377_872" x1="26.799" y1="45.0337" x2="34.6298" y2="45.0328" gradientUnits="userSpaceOnUse">
<stop stop-color="#505099" stop-opacity="0.5"/>
<stop offset="0.229167" stop-color="#53539C"/>
<stop offset="0.505208" stop-color="#208BC9"/>
<stop offset="1" stop-color="#1DA29E"/>
</linearGradient>
</defs>
</svg>
