<svg width="63" height="63" viewBox="0 0 63 63" fill="none" xmlns="http://www.w3.org/2000/svg">
<path d="M16.7344 51.5075V59.0625C16.7344 59.3236 16.8381 59.574 17.0227 59.7586C17.2073 59.9432 17.4577 60.0469 17.7188 60.0469H27.0989C27.2889 60.0469 27.4749 59.9919 27.6344 59.8885C27.7939 59.7851 27.92 59.6377 27.9975 59.4642C28.0751 59.2907 28.1007 59.0984 28.0714 58.9106C28.0421 58.7228 27.959 58.5476 27.8323 58.406C27.1986 57.6978 26.7835 56.8214 26.637 55.8826C26.4905 54.9437 26.6189 53.9825 27.0068 53.115C27.3946 52.2475 28.0252 51.5109 28.8226 50.994C29.6199 50.477 30.5498 50.202 31.5 50.202C32.4503 50.202 33.3802 50.477 34.1775 50.994C34.9748 51.5109 35.6055 52.2475 35.9933 53.115C36.3811 53.9825 36.5096 54.9437 36.3631 55.8826C36.2166 56.8214 35.8015 57.6978 35.1678 58.406C35.041 58.5476 34.958 58.7228 34.9286 58.9106C34.8993 59.0984 34.925 59.2907 35.0025 59.4642C35.0801 59.6377 35.2062 59.7851 35.3657 59.8885C35.5251 59.9919 35.7111 60.0469 35.9012 60.0469H45.2813C45.5424 60.0469 45.7927 59.9432 45.9773 59.7586C46.162 59.574 46.2657 59.3236 46.2657 59.0625V56.5172L50.4915 60.743L51.8836 59.3508L44.993 52.4602C44.5673 52.0345 44.2296 51.5292 43.9993 50.973C43.7689 50.4169 43.6503 49.8208 43.6503 49.2188C43.6503 48.6168 43.7689 48.0207 43.9993 47.4645C44.2296 46.9084 44.5673 46.403 44.993 45.9774C45.0844 45.886 45.1569 45.7774 45.2064 45.658C45.2559 45.5386 45.2813 45.4106 45.2813 45.2813C45.2813 45.152 45.2559 45.024 45.2064 44.9046C45.1569 44.7851 45.0844 44.6766 44.993 44.5852L41.5477 41.1399C41.3407 40.9329 41.2244 40.6521 41.2244 40.3594C41.2244 40.0667 41.3407 39.7859 41.5477 39.5789C41.7547 39.3719 42.0354 39.2556 42.3282 39.2556C42.6209 39.2556 42.9016 39.3719 43.1086 39.5789L46.554 43.0242L47.9461 41.6321L46.2657 39.9516V37.4063H49.2188C49.7407 37.4069 50.2411 37.6145 50.6102 37.9836C50.9793 38.3527 51.1869 38.8531 51.1875 39.375V48.2344C51.1875 48.3637 51.213 48.4917 51.2625 48.6111C51.3119 48.7306 51.3844 48.8391 51.4758 48.9305L56.8899 54.3445L58.2821 52.9524L53.1563 47.8268V39.375C53.1551 38.3311 52.7399 37.3303 52.0017 36.5921C51.2636 35.8539 50.2627 35.4387 49.2188 35.4375H46.2657V23.945C47.3159 24.443 48.4751 24.6672 49.6354 24.5967C50.7956 24.5263 51.9192 24.1635 52.9015 23.5421C53.8838 22.9208 54.693 22.061 55.2537 21.0428C55.8144 20.0246 56.1085 18.8811 56.1085 17.7188C56.1085 16.5564 55.8144 15.4129 55.2537 14.3948C54.693 13.3766 53.8838 12.5168 52.9015 11.8954C51.9192 11.274 50.7956 10.9112 49.6354 10.8408C48.4751 10.7704 47.3159 10.9946 46.2657 11.4926V3.93753C46.2657 3.67646 46.162 3.42608 45.9773 3.24147C45.7927 3.05687 45.5424 2.95316 45.2813 2.95316H35.9012C35.7111 2.95317 35.5251 3.0082 35.3657 3.1116C35.2062 3.21501 35.0801 3.36237 35.0025 3.53589C34.925 3.70941 34.8993 3.90167 34.9286 4.08945C34.958 4.27723 35.041 4.4525 35.1678 4.59411C35.8015 5.30222 36.2166 6.17862 36.3631 7.11749C36.5096 8.05636 36.3811 9.01756 35.9933 9.88504C35.6055 10.7525 34.9748 11.4892 34.1775 12.0061C33.3802 12.523 32.4503 12.7981 31.5 12.7981C30.5498 12.7981 29.6199 12.523 28.8226 12.0061C28.0252 11.4892 27.3946 10.7525 27.0068 9.88504C26.6189 9.01756 26.4905 8.05636 26.637 7.11749C26.7835 6.17862 27.1986 5.30222 27.8323 4.59411C27.959 4.4525 28.0421 4.27723 28.0714 4.08945C28.1007 3.90167 28.0751 3.70941 27.9975 3.53589C27.92 3.36237 27.7939 3.21501 27.6344 3.1116C27.4749 3.0082 27.2889 2.95317 27.0989 2.95316H17.7188C17.4577 2.95316 17.2073 3.05687 17.0227 3.24147C16.8381 3.42608 16.7344 3.67646 16.7344 3.93753V6.48288L12.5086 2.25708L11.1165 3.64923L18.0071 10.5399C18.8654 11.4003 19.3474 12.566 19.3474 13.7813C19.3474 14.9966 18.8654 16.1623 18.0071 17.0227C17.9157 17.1141 17.8432 17.2226 17.7937 17.3421C17.7442 17.4615 17.7187 17.5895 17.7187 17.7188C17.7187 17.8481 17.7442 17.9761 17.7937 18.0955C17.8432 18.2149 17.9157 18.3234 18.0071 18.4149L22.4368 22.8445C22.6438 23.0515 22.7601 23.3323 22.7601 23.625C22.7601 23.9178 22.6438 24.1985 22.4368 24.4055C22.2298 24.6125 21.949 24.7288 21.6563 24.7288C21.3635 24.7288 21.0828 24.6125 20.8758 24.4055L16.4461 19.9758L15.054 21.368L16.7344 23.0484V25.5938H13.7813C13.2593 25.5932 12.7589 25.3855 12.3898 25.0165C12.0208 24.6474 11.8132 24.147 11.8125 23.625V14.7657C11.8125 14.6364 11.7871 14.5084 11.7376 14.3889C11.6881 14.2695 11.6156 14.161 11.5242 14.0696L6.11017 8.65552L4.71802 10.0477L9.84378 15.1733V23.625C9.84495 24.669 10.2602 25.6698 10.9983 26.408C11.7365 27.1461 12.7374 27.5614 13.7813 27.5625H16.7344V39.0551C15.6841 38.5571 14.5249 38.3329 13.3647 38.4033C12.2045 38.4737 11.0809 38.8365 10.0986 39.4579C9.11625 40.0793 8.30707 40.9391 7.74635 41.9573C7.18562 42.9754 6.89158 44.1189 6.89158 45.2813C6.89158 46.4436 7.18562 47.5871 7.74635 48.6053C8.30707 49.6235 9.11625 50.4833 10.0986 51.1047C11.0809 51.726 12.2045 52.0888 13.3647 52.1592C14.5249 52.2297 15.6841 52.0055 16.7344 51.5075ZM19.4836 25.7978C20.0607 26.3699 20.8409 26.6901 21.6535 26.6884C22.4662 26.6867 23.245 26.3631 23.8196 25.7885C24.3942 25.2139 24.7178 24.435 24.7195 23.6224C24.7213 22.8098 24.401 22.0296 23.8289 21.4525L20.0431 17.6666C20.9703 16.4035 21.415 14.8504 21.2969 13.2881C21.1788 11.7257 20.5057 10.2571 19.3992 9.14771L18.7032 8.45163V4.92191H25.2739C24.7759 5.97219 24.5516 7.13138 24.6221 8.29161C24.6925 9.45184 25.0553 10.5754 25.6767 11.5577C26.298 12.5401 27.1578 13.3492 28.176 13.91C29.1942 14.4707 30.3377 14.7647 31.5 14.7647C32.6624 14.7647 33.8059 14.4707 34.8241 13.91C35.8422 13.3492 36.702 12.5401 37.3234 11.5577C37.9448 10.5754 38.3076 9.45184 38.378 8.29161C38.4484 7.13138 38.2242 5.97219 37.7262 4.92191H44.2969V13.3176C44.2969 13.5077 44.352 13.6937 44.4554 13.8532C44.5588 14.0126 44.7061 14.1387 44.8796 14.2163C45.0532 14.2938 45.2454 14.3195 45.4332 14.2902C45.621 14.2608 45.7963 14.1778 45.9379 14.051C46.646 13.4173 47.5224 13.0022 48.4612 12.8557C49.4001 12.7093 50.3613 12.8377 51.2288 13.2255C52.0963 13.6133 52.8329 14.244 53.3499 15.0413C53.8668 15.8386 54.1418 16.7686 54.1418 17.7188C54.1418 18.669 53.8668 19.5989 53.3499 20.3963C52.8329 21.1936 52.0963 21.8242 51.2288 22.2121C50.3613 22.5999 49.4001 22.7283 48.4612 22.5818C47.5224 22.4353 46.646 22.0202 45.9379 21.3866C45.7963 21.2598 45.621 21.1767 45.4332 21.1474C45.2454 21.1181 45.0532 21.1437 44.8796 21.2213C44.7061 21.2988 44.5588 21.4249 44.4554 21.5844C44.352 21.7439 44.2969 21.9299 44.2969 22.1199V30.5157H35.9012C35.7111 30.5157 35.5251 30.5707 35.3657 30.6741C35.2062 30.7775 35.0801 30.9249 35.0025 31.0984C34.925 31.2719 34.8993 31.4642 34.9286 31.6519C34.958 31.8397 35.041 32.015 35.1678 32.1566C35.8015 32.8647 36.2166 33.7411 36.3631 34.68C36.5096 35.6189 36.3811 36.5801 35.9933 37.4475C35.6055 38.315 34.9748 39.0517 34.1775 39.5686C33.3802 40.0855 32.4503 40.3606 31.5 40.3606C30.5498 40.3606 29.6199 40.0855 28.8226 39.5686C28.0252 39.0517 27.3946 38.315 27.0068 37.4475C26.6189 36.5801 26.4905 35.6189 26.637 34.68C26.7835 33.7411 27.1986 32.8647 27.8323 32.1566C27.959 32.015 28.0421 31.8397 28.0714 31.6519C28.1007 31.4642 28.0751 31.2719 27.9975 31.0984C27.92 30.9249 27.7939 30.7775 27.6344 30.6741C27.4749 30.5707 27.2889 30.5157 27.0989 30.5157H18.7032V25.0172L19.4836 25.7978ZM8.85941 45.2813C8.85924 44.3311 9.13415 43.4012 9.65094 42.6039C10.1677 41.8066 10.9043 41.1759 11.7717 40.788C12.6391 40.4002 13.6002 40.2718 14.5391 40.4182C15.4779 40.5647 16.3542 40.9798 17.0622 41.6135C17.2038 41.7403 17.3791 41.8233 17.5669 41.8527C17.7546 41.882 17.9469 41.8563 18.1204 41.7788C18.2939 41.7012 18.4413 41.5751 18.5447 41.4157C18.6481 41.2562 18.7031 41.0702 18.7032 40.8801V32.4844H25.2739C24.7759 33.5347 24.5516 34.6939 24.6221 35.8541C24.6925 37.0143 25.0553 38.1379 25.6767 39.1202C26.298 40.1026 27.1578 40.9117 28.176 41.4725C29.1942 42.0332 30.3377 42.3272 31.5 42.3272C32.6624 42.3272 33.8059 42.0332 34.8241 41.4725C35.8422 40.9117 36.702 40.1026 37.3234 39.1202C37.9448 38.1379 38.3076 37.0143 38.378 35.8541C38.4484 34.6939 38.2242 33.5347 37.7262 32.4844H44.2969V38.0008C43.6897 37.4936 42.9103 37.2401 42.1209 37.2932C41.3315 37.3463 40.593 37.7018 40.0592 38.2859C39.5254 38.8699 39.2375 39.6373 39.2555 40.4283C39.2734 41.2193 39.5958 41.9728 40.1555 42.532L42.9563 45.3328C42.0276 46.5955 41.582 48.1491 41.7002 49.712C41.8185 51.2749 42.4927 52.7438 43.6008 53.8524L44.2969 54.5484V58.0782H37.7262C38.2242 57.0279 38.4484 55.8687 38.378 54.7085C38.3076 53.5482 37.9448 52.4247 37.3234 51.4423C36.702 50.46 35.8422 49.6508 34.8241 49.0901C33.8059 48.5294 32.6624 48.2353 31.5 48.2353C30.3377 48.2353 29.1942 48.5294 28.176 49.0901C27.1578 49.6508 26.298 50.46 25.6767 51.4423C25.0553 52.4247 24.6925 53.5482 24.6221 54.7085C24.5516 55.8687 24.7759 57.0279 25.2739 58.0782H18.7032V49.6824C18.7031 49.4924 18.6481 49.3064 18.5447 49.1469C18.4413 48.9874 18.2939 48.8613 18.1204 48.7838C17.9469 48.7062 17.7546 48.6806 17.5669 48.7099C17.3791 48.7392 17.2038 48.8223 17.0622 48.9491C16.3542 49.5827 15.4779 49.9979 14.5391 50.1443C13.6002 50.2908 12.6391 50.1624 11.7717 49.7745C10.9043 49.3867 10.1677 48.756 9.65094 47.9587C9.13415 47.1613 8.85924 46.2314 8.85941 45.2813Z" fill="url(#paint0_linear_2377_854)"/>
<path d="M4.9219 45.2812C4.91559 43.1886 5.65274 41.1618 7.0019 39.5621C8.35105 37.9624 10.2245 36.8939 12.2882 36.5471C12.9795 36.4337 13.608 36.0784 14.0617 35.5447C14.5154 35.011 14.7649 34.3335 14.7656 33.633V30.5156H12.7969V33.633C12.7952 33.8682 12.71 34.0951 12.5565 34.2733C12.403 34.4515 12.1913 34.5694 11.9589 34.6059C10.1843 34.9094 8.51333 35.6504 7.09708 36.7619C5.68083 37.8735 4.56399 39.3205 3.84758 40.9722C3.13117 42.6239 2.83779 44.4282 2.99395 46.2217C3.15012 48.0153 3.75091 49.7417 4.742 51.2447L6.38443 50.1592C5.42788 48.7124 4.91916 47.0157 4.9219 45.2812V45.2812Z" fill="url(#paint1_linear_2377_854)"/>
<path d="M7.28574 51.306L5.84277 52.6456C6.28332 53.1199 6.76509 53.5542 7.28242 53.9433L8.46564 52.3688C8.04162 52.0502 7.64677 51.6946 7.28574 51.306V51.306Z" fill="url(#paint2_linear_2377_854)"/>
<path d="M58.0782 17.7188C58.0836 19.0953 57.7657 20.4538 57.1502 21.685C56.5347 22.9162 55.6388 23.9857 54.5345 24.8074L55.7169 26.3815C57.0664 25.3773 58.1612 24.0703 58.9132 22.5657C59.6653 21.061 60.0536 19.4009 60.047 17.7188C60.0419 15.2239 59.1778 12.8069 57.6 10.8743C56.0221 8.94173 53.8269 7.61149 51.3835 7.10736L50.9917 9.03661C52.9906 9.44932 54.7864 10.5378 56.077 12.1191C57.3676 13.7003 58.0743 15.6777 58.0782 17.7188V17.7188Z" fill="url(#paint3_linear_2377_854)"/>
<defs>
<linearGradient id="paint0_linear_2377_854" x1="4.71802" y1="39.7812" x2="58.2823" y2="39.7695" gradientUnits="userSpaceOnUse">
<stop stop-color="#505099" stop-opacity="0.5"/>
<stop offset="0.229167" stop-color="#53539C"/>
<stop offset="0.505208" stop-color="#208BC9"/>
<stop offset="1" stop-color="#1DA29E"/>
</linearGradient>
<linearGradient id="paint1_linear_2377_854" x1="2.95312" y1="43.8152" x2="14.7657" y2="43.8136" gradientUnits="userSpaceOnUse">
<stop stop-color="#505099" stop-opacity="0.5"/>
<stop offset="0.229167" stop-color="#53539C"/>
<stop offset="0.505208" stop-color="#208BC9"/>
<stop offset="1" stop-color="#1DA29E"/>
</linearGradient>
<linearGradient id="paint2_linear_2377_854" x1="5.84277" y1="52.9981" x2="8.46565" y2="52.9975" gradientUnits="userSpaceOnUse">
<stop stop-color="#505099" stop-opacity="0.5"/>
<stop offset="0.229167" stop-color="#53539C"/>
<stop offset="0.505208" stop-color="#208BC9"/>
<stop offset="1" stop-color="#1DA29E"/>
</linearGradient>
<linearGradient id="paint3_linear_2377_854" x1="50.9917" y1="19.4735" x2="60.0471" y2="19.4725" gradientUnits="userSpaceOnUse">
<stop stop-color="#505099" stop-opacity="0.5"/>
<stop offset="0.229167" stop-color="#53539C"/>
<stop offset="0.505208" stop-color="#208BC9"/>
<stop offset="1" stop-color="#1DA29E"/>
</linearGradient>
</defs>
</svg>
