<svg width="35" height="35" viewBox="0 0 35 35" fill="none" xmlns="http://www.w3.org/2000/svg">
<path fill-rule="evenodd" clip-rule="evenodd" d="M27.3707 9.68364L20.8432 17.5164L27.1359 25.3359C27.6405 25.963 27.5413 26.8803 26.9143 27.3864C26.6445 27.6036 26.3207 27.7086 25.9999 27.7086C25.5741 27.7086 25.1511 27.522 24.8624 27.1647L17.8216 18.4147C17.387 17.8736 17.3928 17.0993 17.8376 16.567L25.1293 7.81698C25.6455 7.19718 26.5643 7.11552 27.1841 7.63031C27.8024 8.1451 27.8855 9.06531 27.3707 9.68364ZM14.9218 7.81653C15.4366 7.19819 16.3553 7.11507 16.9751 7.62986C17.5935 8.14611 17.6766 9.06486 17.1618 9.68319L10.6343 17.5159L16.927 25.3355C17.4316 25.9626 17.3324 26.8813 16.7053 27.3859C16.4356 27.6032 16.1133 27.7082 15.791 27.7082C15.3651 27.7082 14.9422 27.523 14.6549 27.1642L7.6141 18.4142C7.17806 17.8732 7.18535 17.1003 7.63014 16.5665L14.9218 7.81653Z" fill="white"/>
</svg>
