<svg width="35" height="35" viewBox="0 0 35 35" fill="none" xmlns="http://www.w3.org/2000/svg">
<path fill-rule="evenodd" clip-rule="evenodd" d="M20.3457 7.83558L27.3865 16.5856C27.8225 17.1266 27.8152 17.8995 27.3704 18.4333L20.0788 27.1833C19.79 27.5289 19.3759 27.7083 18.9573 27.7083C18.6292 27.7083 18.2982 27.5975 18.0254 27.37C17.4057 26.8552 17.3225 25.935 17.8388 25.3166L24.3663 17.4839L18.0721 9.66433C17.5675 9.03725 17.6667 8.1185 18.2952 7.61391C18.9223 7.10787 19.8396 7.2085 20.3457 7.83558ZM8.08676 7.61372C8.71384 7.10914 9.63114 7.2083 10.1372 7.83539L17.178 16.5854C17.6126 17.1264 17.6068 17.8993 17.162 18.4331L9.8703 27.1831C9.58155 27.5287 9.16739 27.7081 8.74884 27.7081C8.42072 27.7081 8.08968 27.5973 7.81697 27.3698C7.19718 26.855 7.11405 25.9348 7.6303 25.3164L14.1563 17.4837L7.86364 9.66414C7.35905 9.03705 7.45968 8.1183 8.08676 7.61372Z" fill="white"/>
</svg>
