<?xml version="1.0" encoding="UTF-8"?>
<svg id="uuid-d5e2f6ca-625b-4ce4-af7b-231f993aaa71" data-name="Слой 2" xmlns="http://www.w3.org/2000/svg" xmlns:xlink="http://www.w3.org/1999/xlink" viewBox="0 0 567.57 1130.03">
  <defs>
    <linearGradient id="uuid-c7664828-a6c6-4e3b-9d59-a9182391a90f" data-name="Безымянный градиент 23" x1="297.66" y1="1159.07" x2="297.66" y2="466.05" gradientTransform="translate(0 1522) scale(1 -1)" gradientUnits="userSpaceOnUse">
      <stop offset="0" stop-color="#4440a5"/>
      <stop offset="1" stop-color="#1da29f"/>
    </linearGradient>
    <linearGradient id="uuid-25c61112-f88b-4fe6-9c0b-8929e46f33e6" data-name="Безымянный градиент 23" x1="146.63" x2="146.63" xlink:href="#uuid-c7664828-a6c6-4e3b-9d59-a9182391a90f"/>
    <linearGradient id="uuid-0c532239-7d3f-48db-bb88-a9cdb02c1468" data-name="Безымянный градиент 23" x1="44.9" y1="1146.78" x2="44.9" y2="498.33" xlink:href="#uuid-c7664828-a6c6-4e3b-9d59-a9182391a90f"/>
    <linearGradient id="uuid-5b3f88d5-c526-4f42-a4b4-fbde10620682" data-name="Безымянный градиент 23" x1="173.1" y1="1242.69" x2="173.1" y2="422.13" xlink:href="#uuid-c7664828-a6c6-4e3b-9d59-a9182391a90f"/>
    <linearGradient id="uuid-a34ec773-5144-452c-abf9-48415aa96477" data-name="Безымянный градиент 23" x1="190.63" y1="1296.97" x2="190.63" y2="387.57" xlink:href="#uuid-c7664828-a6c6-4e3b-9d59-a9182391a90f"/>
    <linearGradient id="uuid-59f82fdc-000c-4f5e-ba4a-00e014420ce3" data-name="Безымянный градиент 23" x1="163.06" y1="1261.55" x2="163.06" y2="442.41" xlink:href="#uuid-c7664828-a6c6-4e3b-9d59-a9182391a90f"/>
    <linearGradient id="uuid-05c52899-0b44-4527-a3c3-47b345160c54" data-name="Безымянный градиент 23" x1="218.44" y1="1391.17" x2="218.44" y2="332.51" xlink:href="#uuid-c7664828-a6c6-4e3b-9d59-a9182391a90f"/>
    <linearGradient id="uuid-7ec69c70-b845-488f-a6b6-bb81528c4ab8" data-name="Безымянный градиент 23" x1="156.09" y1="1286.4" x2="156.09" y2="456.99" xlink:href="#uuid-c7664828-a6c6-4e3b-9d59-a9182391a90f"/>
    <linearGradient id="uuid-35244378-5314-4be7-80c8-51d029d25ccf" data-name="Безымянный градиент 23" x1="196.67" y1="1387.17" x2="196.67" y2="375.93" xlink:href="#uuid-c7664828-a6c6-4e3b-9d59-a9182391a90f"/>
    <linearGradient id="uuid-f29a4905-d175-4fc7-b6dc-d0de2f4b334a" data-name="Безымянный градиент 23" x1="138.95" y1="1291.53" x2="138.95" y2="491.26" xlink:href="#uuid-c7664828-a6c6-4e3b-9d59-a9182391a90f"/>
    <linearGradient id="uuid-16421e94-1506-49a2-8b7a-2fbdb4cbe50f" data-name="Безымянный градиент 23" x1="256.72" y1="1290.01" x2="256.72" y2="512.22" xlink:href="#uuid-c7664828-a6c6-4e3b-9d59-a9182391a90f"/>
    <linearGradient id="uuid-a30e1295-e54b-49e4-b1f7-a82d2cf676ef" data-name="Безымянный градиент 23" x1="128.2" y1="1290.01" x2="128.2" y2="512.22" xlink:href="#uuid-c7664828-a6c6-4e3b-9d59-a9182391a90f"/>
    <linearGradient id="uuid-9db6e672-fe9a-4366-8402-1022be0ca8cc" data-name="Безымянный градиент 23" x1="222.39" y1="1498.72" x2="222.39" y2="323.2" xlink:href="#uuid-c7664828-a6c6-4e3b-9d59-a9182391a90f"/>
    <linearGradient id="uuid-157e6904-422b-48f9-a46a-b01e97f938a6" data-name="Безымянный градиент 23" x1="448.97" y1="1521.87" x2="448.97" y2="319.78" xlink:href="#uuid-c7664828-a6c6-4e3b-9d59-a9182391a90f"/>
    <linearGradient id="uuid-9cfa8a5f-4dac-4f2d-9e82-a9a929c15b08" data-name="Безымянный градиент 23" x1="224.35" y1="1521.87" x2="224.35" y2="319.78" xlink:href="#uuid-c7664828-a6c6-4e3b-9d59-a9182391a90f"/>
    <linearGradient id="uuid-99eca305-416a-41f9-91c3-7081a26b8d6c" data-name="Безымянный градиент 23" x1="214.98" y1="1101.92" x2="214.98" y2="-73.31" xlink:href="#uuid-c7664828-a6c6-4e3b-9d59-a9182391a90f"/>
    <linearGradient id="uuid-8607388c-a8fd-4f86-871f-4f1763dcef61" data-name="Безымянный градиент 23" x1="216" y1="1125.06" x2="216" y2="-77.03" xlink:href="#uuid-c7664828-a6c6-4e3b-9d59-a9182391a90f"/>
    <linearGradient id="uuid-356e2f3f-fe58-4311-8c1c-494baf8dd763" data-name="Безымянный градиент 23" x1="164.67" y1="1421.34" x2="164.67" y2="440.02" xlink:href="#uuid-c7664828-a6c6-4e3b-9d59-a9182391a90f"/>
    <linearGradient id="uuid-6a7b3e15-23aa-49f6-aa8e-9c56d60b9fe7" data-name="Безымянный градиент 23" x1="115.77" y1="1344.1" x2="115.77" y2="536.97" xlink:href="#uuid-c7664828-a6c6-4e3b-9d59-a9182391a90f"/>
    <linearGradient id="uuid-13dfb7f3-882b-4ef9-a47e-2ed57a7b978d" data-name="Безымянный градиент 23" x1="265.17" y1="1125.56" x2="265.17" y2="318.42" xlink:href="#uuid-c7664828-a6c6-4e3b-9d59-a9182391a90f"/>
    <linearGradient id="uuid-5d0de4c7-d4f3-4ed3-8a86-6628198e9eda" data-name="Безымянный градиент 23" x1="84.77" y1="1301.61" x2="84.77" y2="599.17" xlink:href="#uuid-c7664828-a6c6-4e3b-9d59-a9182391a90f"/>
    <linearGradient id="uuid-8e35d1be-ce9d-464d-97dd-6351d3b9feaf" data-name="Безымянный градиент 23" x1="169.81" y1="1301.61" x2="169.81" y2="599.17" xlink:href="#uuid-c7664828-a6c6-4e3b-9d59-a9182391a90f"/>
    <linearGradient id="uuid-a04dcd59-7e75-4100-99ef-89e5fa8ea6db" data-name="Безымянный градиент 23" x1="56.23" y1="1025.59" x2="56.23" y2="122.48" xlink:href="#uuid-c7664828-a6c6-4e3b-9d59-a9182391a90f"/>
    <linearGradient id="uuid-36860b41-d6b7-4206-8d9e-e086a203622b" data-name="Безымянный градиент 23" x1="54.75" y1="1296.97" x2="54.75" y2="387.57" xlink:href="#uuid-c7664828-a6c6-4e3b-9d59-a9182391a90f"/>
    <linearGradient id="uuid-9315227f-00ef-4e13-8097-ffe60fc7d9a9" data-name="Безымянный градиент 23" x1="54.75" y1="1025.59" x2="54.75" y2="122.48" xlink:href="#uuid-c7664828-a6c6-4e3b-9d59-a9182391a90f"/>
    <linearGradient id="uuid-175c6559-7e8a-4275-9db9-72d8d990c3c5" data-name="Безымянный градиент 23" x1="41.37" y1="1014.45" x2="41.37" y2="152.47" xlink:href="#uuid-c7664828-a6c6-4e3b-9d59-a9182391a90f"/>
    <linearGradient id="uuid-73889bad-6006-46b7-8e81-f964375c405b" data-name="Безымянный градиент 23" x1="40.97" y1="1261.55" x2="40.97" y2="442.41" xlink:href="#uuid-c7664828-a6c6-4e3b-9d59-a9182391a90f"/>
    <linearGradient id="uuid-123fc731-84b4-40ce-9480-081f49820120" data-name="Безымянный градиент 23" x1="40.97" y1="1014.45" x2="40.97" y2="152.47" xlink:href="#uuid-c7664828-a6c6-4e3b-9d59-a9182391a90f"/>
    <linearGradient id="uuid-697b30d9-ac10-488a-bf36-b7b76b485040" data-name="Безымянный градиент 23" x1="116.77" y1="1184.51" x2="116.77" y2=".13" xlink:href="#uuid-c7664828-a6c6-4e3b-9d59-a9182391a90f"/>
    <linearGradient id="uuid-0866c37e-b2e8-4b2f-a856-0ab853231c8c" data-name="Безымянный градиент 23" x1="115.55" y1="1391.17" x2="115.55" y2="332.51" xlink:href="#uuid-c7664828-a6c6-4e3b-9d59-a9182391a90f"/>
    <linearGradient id="uuid-f635d032-0a5e-4ca8-ae9a-07dc2c7b7139" data-name="Безымянный градиент 23" x1="115.55" y1="1184.49" x2="115.55" y2=".11" xlink:href="#uuid-c7664828-a6c6-4e3b-9d59-a9182391a90f"/>
    <linearGradient id="uuid-6108b2fc-6e02-455f-8aee-d09c712f50c0" data-name="Безымянный градиент 23" x1="60.41" y1="1240.95" x2="60.41" y2="110.51" xlink:href="#uuid-c7664828-a6c6-4e3b-9d59-a9182391a90f"/>
    <linearGradient id="uuid-b7fbf982-98b8-42a3-bae9-9e703ef58655" data-name="Безымянный градиент 23" x1="123.9" y1="1240.95" x2="123.9" y2="110.51" xlink:href="#uuid-c7664828-a6c6-4e3b-9d59-a9182391a90f"/>
    <linearGradient id="uuid-a0aa2092-7ee6-4f0e-8bc7-87a2c6512346" data-name="Безымянный градиент 23" x1="62.32" y1="1344.1" x2="62.32" y2="536.97" xlink:href="#uuid-c7664828-a6c6-4e3b-9d59-a9182391a90f"/>
    <linearGradient id="uuid-7587cb4d-bc9e-4a26-acfa-5a8bdbd19c9c" data-name="Безымянный градиент 23" x1="62.32" y1="1240.95" x2="62.32" y2="110.51" xlink:href="#uuid-c7664828-a6c6-4e3b-9d59-a9182391a90f"/>
    <linearGradient id="uuid-aca381c5-5414-474a-8cb1-1547fe671d20" data-name="Безымянный градиент 23" x1="33.3" y1="1202.92" x2="33.3" y2="167.11" xlink:href="#uuid-c7664828-a6c6-4e3b-9d59-a9182391a90f"/>
    <linearGradient id="uuid-504c3b89-111c-4419-a7b5-7d90cbdab2be" data-name="Безымянный градиент 23" x1="33.24" y1="1301.61" x2="33.24" y2="599.17" xlink:href="#uuid-c7664828-a6c6-4e3b-9d59-a9182391a90f"/>
    <linearGradient id="uuid-a7046c41-0c63-4b58-8f43-2eb3bddd6867" data-name="Безымянный градиент 23" x1="33.24" y1="1202.92" x2="33.24" y2="167.11" xlink:href="#uuid-c7664828-a6c6-4e3b-9d59-a9182391a90f"/>
  </defs>
  <g id="uuid-824a59a1-ceba-4157-b861-4c42a45eff0e" data-name="Слой 1">
    <g>
      <path d="M63.24,319.94c.75-1.01,2.39-1.12,3.36-.36,.22,.1,.44,.21,.64,.36,.18,.13,.32,.29,.44,.46l99.57-99.58c.57-.57,1.72-.57,2.29,0,.86,.57,.57,1.71,0,2.29L0,392.59v8.29l119.25-119.21c.27-.2,.59-.35,.93-.46,1.08-.55,2.41-.2,3.35,.74,.32,.32,.55,.65,.73,.98l104.42-104.39c.86-.86,2-.86,2.86,0s.86,2,0,2.86L0,412.87v13.62L324.44,102.23c.1-.38,.27-.76,.54-1.11,.86-.86,2.57-.86,3.43,0,.04,.04,.08,.1,.11,.15,.06,.05,.12,.09,.17,.14,.86,.86,.86,2.57,0,3.43L0,433.35v11.52L444.13,.86s0,0,0,0c1.14-1.14,3.14-1.14,4.28,.29,0,0,0,0,0,0,1.43,1.14,1.43,3.14,.29,4.28,0,0,0,0,0,0,0,0,0,0,0,0L0,454.01v10.5L440.42,24c.47-.47,1.1-.69,1.75-.71,.96-.17,2.03,.14,2.82,.93,1.23,1.23,1.32,3.13,.2,4.24-.13,.13-.26,.23-.41,.33L0,473.54v12.65L253.83,232.53c.86-.86,2-.86,2.57,0,.86,.57,.86,1.71,0,2.57L0,491.43v14L274.4,231.1c.47-.47,1.01-.67,1.56-.63,.51-.04,.99,.16,1.3,.63,.86,.86,.86,2,0,2.86L0,511.14v13.43L388.98,135.69c1.14-1.14,2.57-1.14,3.72,0,.86,1.14,.86,2.86,0,3.71L0,531.88v12.97L308.69,236.24c.86-.86,2-.86,2.86,0,.7,.7,.82,1.6,.37,2.37-.09,.19-.21,.36-.36,.52-.06,.06-.13,.11-.19,.16L0,550.56v13.31L431.61,132.49c.1-.39,.27-.76,.52-1.09,1.14-1.14,2.57-.86,3.71,0,.05,.05,.09,.11,.13,.16,.05,.04,.1,.08,.15,.13,.86,.86,1.14,2.57,0,3.71l-202.64,202.53c.22,.16,.44,.34,.63,.57,1.14,1.14,1.43,3.14,.28,4.28-.25,.25-.54,.43-.86,.57L0,576.79v7.6L323.26,261.09c.86-.86,2-.86,2.86,0s.86,2,0,2.86L81.94,508.06c.05,.04,.11,.08,.16,.13,.86,.86,.86,2.29,0,3.14L0,593.41v10.16L378.12,225.67c.86-.86,2.29-.86,3.14,0,.86,.86,.86,2.29,0,3.14L112.33,497.6c.1,.28,.14,.58,.12,.88,.04,.62-.16,1.25-.63,1.71L0,611.98v11.43L343.55,279.95c.44-.44,.95-.65,1.46-.64,.57-.05,1.16,.13,1.6,.57,.78,.78,.78,2.05,0,2.83-.12,.12-.26,.22-.41,.31L0,629.12v14.81l41.48-41.51-1.1-1.1,232.3-231.1h20.57l6.86-6.86c.32-.32,.81-.44,1.29-.4,.48-.04,.97,.09,1.29,.4,.57,.57,.57,1.71,0,2.29-.17,.17-.39,.27-.63,.34l-4.23,4.23h53.72v-76.56l193.16-193.11c-1.14-2-2-4.29-2-6.57,0-6.86,5.72-12.57,12.57-12.57,6.86,.29,12.29,5.71,12.29,12.85V0H0V383.17l63.24-63.23Z" style="fill: none;"/>
      <polygon points="274.69 374.79 89.81 558.48 0 648.26 0 663.4 288.69 374.79 274.69 374.79" style="fill: none;"/>
      <path d="M555,106.84c-2.57,0-4.57-.86-6.57-2l-191.44,191.39v73.99h16.29l153.44-153.4c-.86-1.71-1.43-3.43-1.43-5.43,0-5.43,4.57-10,10-10s10,4.29,10,10-4.57,10-10,10c-2,0-4-.57-5.43-1.43l-154.58,154.83h-18.29v46.85l-217.45,210.82-4-4,216.02-209.39v-44.28h-58.29L0,668.1v157.54L427.99,397.66c.43-.43,.98-.66,1.56-.71,1.04-.28,2.23,.02,3.01,1,1.14,1.14,1.43,3.14,.29,4.29-.25,.25-.54,.43-.86,.57L0,834.68v10.57L424.56,420.79c.76-.76,1.89-.88,2.91-.54,.53,.15,1.04,.43,1.47,.86,.11,.11,.19,.22,.28,.34,1.04,1.17,.95,2.89-.08,3.92L0,854.39v69.6L526.86,397.08c.86-.86,2-.86,2.86,0,.47,.47,.67,1.02,.63,1.57,.04,.55-.16,1.1-.63,1.57-.25,.25-.52,.42-.81,.52L0,929.51v194.14l125.78-125.54v-129.27l264.89-264.74c-.24-.24-.24-.48-.24-.72,0-1.19,.96-2.39,2.39-2.39,1.2,0,2.39,1.2,2.15,2.63,0,1.2-.96,2.39-2.39,2.39-.24,0-.48-.24-.72-.24L127.93,869.33v129.27L0,1126.46v3.58H567.57V94.27c0,6.86-5.71,12.57-12.57,12.57Z" style="fill: none;"/>
      <path d="M302.06,365.99c-.57,.17-1.26,.06-1.66-.34-.86-.57-.57-1.71,0-2.29,.25-.25,.62-.37,1-.4-.48-.04-.97,.09-1.29,.4l-6.86,6.86h4.57l4.23-4.23Z" style="fill: url(#uuid-c7664828-a6c6-4e3b-9d59-a9182391a90f);"/>
      <polygon points="288.69 374.79 0 663.4 0 668.1 293.26 374.79 288.69 374.79" style="fill: url(#uuid-25c61112-f88b-4fe6-9c0b-8929e46f33e6);"/>
      <path d="M300.4,365.65c.4,.4,1.09,.51,1.66,.34,.24-.07,.46-.17,.63-.34,.57-.57,.57-1.71,0-2.29-.32-.32-.81-.44-1.29-.4-.38,.03-.75,.15-1,.4-.57,.57-.86,1.71,0,2.29Z" style="fill: #fff;"/>
      <polygon points="43.53 604.46 41.48 602.42 0 643.93 0 648.26 89.81 558.48 43.53 604.46" style="fill: url(#uuid-0c532239-7d3f-48db-bb88-a9cdb02c1468);"/>
      <path d="M343.78,282.7c-.78-.78-.78-2.05,0-2.83,.34-.34,.78-.53,1.23-.57-.51,0-1.02,.2-1.46,.64L0,623.41v5.71L346.2,283.01c-.77,.45-1.76,.35-2.42-.31Z" style="fill: url(#uuid-5b3f88d5-c526-4f42-a4b4-fbde10620682);"/>
      <path d="M343.78,282.7c.66,.66,1.65,.75,2.42,.31,.14-.08,.28-.18,.41-.31,.78-.78,.78-2.05,0-2.83-.44-.44-1.03-.62-1.6-.57-.45,.04-.89,.22-1.23,.57-.78,.78-.78,2.05,0,2.83Z" style="fill: #fff;"/>
      <path d="M108.67,496.76c.86-.86,2.29-.86,3.14,0,.24,.24,.41,.53,.51,.83L381.27,228.81c-.86,.86-2.29,.86-3.14,0-.86-.86-.86-2.28,0-3.14L0,603.57v2.09l108.18-108.11c.11-.29,.27-.55,.5-.78Z" style="fill: url(#uuid-a34ec773-5144-452c-abf9-48415aa96477);"/>
      <path d="M378.12,228.81c.86,.86,2.29,.86,3.14,0,.86-.86,.86-2.28,0-3.14-.86-.86-2.29-.86-3.14,0-.86,.86-.86,2.29,0,3.14Z" style="fill: #fff;"/>
      <path d="M81.94,508.06l244.18-244.11c-.86,.86-2,.86-2.86,0-.86-.86-.86-2,0-2.86L0,584.38v2.77l78.96-78.96c.81-.81,2.12-.84,2.99-.13Z" style="fill: url(#uuid-59f82fdc-000c-4f5e-ba4a-00e014420ce3);"/>
      <path d="M323.26,263.95c.86,.86,2,.86,2.86,0,.86-.86,.86-2,0-2.86s-2-.86-2.86,0-.86,2,0,2.86Z" style="fill: #fff;"/>
      <path d="M231.1,337.51c.79-.21,1.66-.08,2.39,.43l202.64-202.53c1.14-1.14,.86-2.86,0-3.71-.05-.05-.1-.08-.15-.13,1,1.14,.96,2.74-.13,3.55-1.14,1.14-2.57,.86-3.71,0-.61-.61-.78-1.66-.52-2.63L0,563.87v3.83l229.54-229.48c.43-.43,.98-.66,1.56-.71Z" style="fill: url(#uuid-05c52899-0b44-4527-a3c3-47b345160c54);"/>
      <path d="M432.13,135.12c1.14,.86,2.57,1.14,3.71,0,1.09-.82,1.13-2.42,.13-3.55-.05-.05-.08-.11-.13-.16-1.14-.86-2.57-1.14-3.71,0-.24,.33-.41,.7-.52,1.09-.26,.97-.1,2.01,.52,2.63Z" style="fill: #fff;"/>
      <path d="M308.72,239.13c-.78-.78-.78-2.05,0-2.83,.78-.78,2.05-.78,2.83,0,.63,.63,.74,1.56,.36,2.31,.45-.77,.33-1.67-.37-2.37-.86-.86-2-.86-2.86,0L0,544.85v5.71L311.36,239.28c-.78,.61-1.92,.57-2.64-.16Z" style="fill: url(#uuid-7ec69c70-b845-488f-a6b6-bb81528c4ab8);"/>
      <path d="M311.55,236.3c-.78-.78-2.05-.78-2.83,0-.78,.78-.78,2.05,0,2.83,.72,.72,1.85,.77,2.64,.16,.06-.05,.13-.1,.19-.16,.16-.16,.27-.33,.36-.52,.38-.75,.26-1.68-.36-2.31Z" style="fill: #fff;"/>
      <path d="M392.7,135.69c-1.14-1.14-2.57-1.14-3.72,0L0,524.57v7.31L392.7,139.4c.86-.86,.86-2.57,0-3.71Zm-3.71,3.43c-.86-.86-.86-2.57,0-3.43,.86-.86,2.57-.86,3.43,0,.86,.86,1.14,2.57,0,3.43-.86,.86-2.57,.86-3.43,0Z" style="fill: url(#uuid-35244378-5314-4be7-80c8-51d029d25ccf);"/>
      <path d="M392.41,135.69c-.86-.86-2.57-.86-3.43,0-.86,.86-.86,2.57,0,3.43,.86,.86,2.57,.86,3.43,0,1.14-.86,.86-2.57,0-3.43Z" style="fill: #fff;"/>
      <path d="M277.26,231.1c.86,.86,.57,2,0,2.57-.86,.86-2,.86-2.57,0-.86-.57-.86-1.71,0-2.57,.39-.39,.84-.6,1.27-.63-.54-.04-1.09,.16-1.56,.63L0,505.43v5.71L277.26,233.96c.86-.86,.86-2,0-2.86Z" style="fill: url(#uuid-f29a4905-d175-4fc7-b6dc-d0de2f4b334a);"/>
      <path d="M274.69,233.67c.57,.86,1.72,.86,2.57,0,.57-.57,.86-1.71,0-2.57-.31-.47-.79-.67-1.3-.63-.43,.03-.88,.24-1.27,.63-.86,.86-.86,2,0,2.57Z" style="fill: #fff;"/>
      <path d="M256.4,235.1c.86-.86,.86-2,0-2.57,.57,.57,.57,2,0,2.57Z" style="fill: url(#uuid-16421e94-1506-49a2-8b7a-2fbdb4cbe50f);"/>
      <path d="M253.83,235.1c-.57-.86-.86-1.71,0-2.57L0,486.19v5.24L256.4,235.1c-.86,.86-2,.86-2.57,0Z" style="fill: url(#uuid-a30e1295-e54b-49e4-b1f7-a82d2cf676ef);"/>
      <path d="M253.83,235.1c.57,.86,1.71,.86,2.57,0,.57-.57,.57-2,0-2.57-.57-.86-1.71-.86-2.57,0-.86,.86-.57,1.71,0,2.57Z" style="fill: #fff;"/>
      <path d="M440.94,28.25c-1.23-1.23-1.32-3.13-.2-4.24,.4-.4,.9-.63,1.43-.73-.65,.02-1.27,.24-1.75,.71L0,464.51v9.03L444.77,28.78c-1.13,.75-2.75,.56-3.84-.53Z" style="fill: url(#uuid-9db6e672-fe9a-4366-8402-1022be0ca8cc);"/>
      <path d="M440.94,28.25c1.09,1.09,2.7,1.28,3.84,.53,.14-.1,.28-.2,.41-.33,1.12-1.12,1.03-3.01-.2-4.24-.79-.79-1.86-1.1-2.82-.93-.53,.09-1.03,.33-1.43,.73-1.12,1.12-1.03,3.01,.2,4.24Z" style="fill: #fff;"/>
      <path d="M448.7,5.43c1.14-1.14,1.14-3.14-.29-4.28,0,0,0,0,0,0,0,0,0,0,0,0,1.14,1.14,1.43,3.14,.29,4.28Z" style="fill: url(#uuid-157e6904-422b-48f9-a46a-b01e97f938a6);"/>
      <path d="M444.42,5.14c-1.14-1.14-1.43-3.14-.29-4.28,0,0,0,0,0,0,0,0,0,0,0,0L0,444.87v9.14L448.7,5.43c-1.14,1.14-3.14,1.14-4.29-.29Z" style="fill: url(#uuid-9cfa8a5f-4dac-4f2d-9e82-a9a929c15b08);"/>
      <path d="M444.42,5.14c1.14,1.43,3.14,1.43,4.29,.29,0,0,0,0,0,0,0,0,0,0,0,0,1.14-1.14,.85-3.14-.29-4.28,0,0,0,0,0,0-1.14-1.43-3.14-1.43-4.28-.29,0,0,0,0,0,0-1.14,1.14-.86,3.14,.29,4.28Z" style="fill: #fff;"/>
      <path d="M429.22,421.45c.94,1.22,.94,2.88-.08,3.9-1.12,1.11-3.02,1.03-4.24-.2-1.23-1.23-1.32-3.13-.2-4.24,.73-.73,1.79-.93,2.78-.65-1.01-.33-2.15-.22-2.91,.54L0,845.24v9.15L429.14,425.37c1.03-1.03,1.12-2.75,.08-3.92Z" style="fill: url(#uuid-99eca305-416a-41f9-91c3-7081a26b8d6c);"/>
      <path d="M424.69,420.91c-1.12,1.12-1.02,3.01,.2,4.24,1.23,1.23,3.13,1.32,4.24,.2,1.02-1.02,1.02-2.69,.08-3.9-.09-.12-.18-.23-.28-.34-.43-.43-.94-.71-1.47-.86-.99-.28-2.05-.07-2.78,.65Z" style="fill: #fff;"/>
      <path d="M428.56,401.94c-1.43-1.43-1.43-3.14-.29-4.28,.36-.36,.8-.59,1.27-.71-.58,.06-1.13,.28-1.56,.71L0,825.64v9.04L431.99,402.8c-1.12,.49-2.54,.26-3.43-.86Z" style="fill: url(#uuid-8607388c-a8fd-4f86-871f-4f1763dcef61);"/>
      <path d="M428.56,401.94c.89,1.12,2.31,1.35,3.43,.86,.31-.14,.61-.32,.86-.57,1.14-1.14,.86-3.14-.29-4.29-.79-.98-1.97-1.27-3.01-1-.47,.13-.92,.36-1.27,.71-1.14,1.14-1.14,2.86,.29,4.28Z" style="fill: #fff;"/>
      <path d="M328.69,101.41c-.05-.05-.11-.09-.17-.14,.73,.89,.7,2.47-.11,3.28-.86,.86-2.57,.86-3.43,0-.59-.59-.77-1.46-.54-2.32L0,426.49v6.86L328.69,104.84c.86-.86,.86-2.57,0-3.43Z" style="fill: url(#uuid-356e2f3f-fe58-4311-8c1c-494baf8dd763);"/>
      <path d="M324.98,104.55c.86,.86,2.57,.86,3.43,0,.81-.81,.85-2.39,.11-3.28-.04-.05-.07-.1-.11-.15-.86-.86-2.57-.86-3.43,0-.26,.35-.44,.73-.54,1.11-.23,.86-.06,1.73,.54,2.32Z" style="fill: #fff;"/>
      <path d="M228.68,181.4c-.57-.86-.57-2,0-2.86l-104.42,104.39c.63,1.18,.44,2.41-.45,3.3L0,410.02v2.86L231.54,181.4c-.86,.86-2,.86-2.86,0Z" style="fill: url(#uuid-6a7b3e15-23aa-49f6-aa8e-9c56d60b9fe7);"/>
      <path d="M228.68,181.4c.86,.86,2,.86,2.86,0,.86-.86,.86-2,0-2.86s-2-.86-2.86,0c-.57,.86-.57,2,0,2.86Z" style="fill: #fff;"/>
      <path d="M526.86,400.23c-.86-.86-.86-2,0-2.86s2-.86,2.86,0c.39,.39,.59,.83,.63,1.29,.04-.55-.16-1.1-.63-1.57-.86-.86-2-.86-2.86,0L0,923.99v5.53L528.91,400.75c-.69,.25-1.44,.09-2.05-.52Z" style="fill: url(#uuid-13dfb7f3-882b-4ef9-a47e-2ed57a7b978d);"/>
      <path d="M526.86,397.37c-.86,.86-.86,2,0,2.86,.61,.61,1.36,.78,2.05,.52,.28-.1,.56-.27,.81-.52,.47-.47,.67-1.02,.63-1.57-.04-.45-.24-.9-.63-1.29-.86-.86-2-.86-2.86,0Z" style="fill: #fff;"/>
      <path d="M167.25,223.1c-.57-.57-.57-1.43,0-2.29l-99.57,99.58c.67,.92,.53,2.29-.44,3.25-.21,.21-.47,.36-.76,.47L0,390.59v2L169.54,223.1c-.57,.57-1.71,.57-2.29,0Z" style="fill: url(#uuid-5d0de4c7-d4f3-4ed3-8a86-6628198e9eda);"/>
      <path d="M169.54,223.1c.57-.57,.86-1.71,0-2.29,.57,.57,.57,1.71,0,2.29Z" style="fill: url(#uuid-8e35d1be-ce9d-464d-97dd-6351d3b9feaf);"/>
      <path d="M167.25,223.1c.57,.57,1.72,.57,2.29,0,.57-.57,.57-1.71,0-2.29-.57-.57-1.71-.57-2.29,0-.57,.86-.57,1.71,0,2.29Z" style="fill: #fff;"/>
      <path d="M112.45,498.48c-.03,.52-.24,1.04-.63,1.43-.62,.62-1.53,.78-2.31,.51L0,609.86v2.12l111.82-111.79c.46-.46,.67-1.1,.63-1.71Z" style="fill: url(#uuid-a04dcd59-7e75-4100-99ef-89e5fa8ea6db);"/>
      <path d="M108.67,499.91c-.63-.63-.79-1.57-.5-2.36L0,605.66v4.2l109.51-109.44c-.3-.11-.59-.27-.83-.51Z" style="fill: url(#uuid-36860b41-d6b7-4206-8d9e-e086a203622b);"/>
      <path d="M108.67,499.91c-.63-.63-.79-1.57-.5-2.36L0,605.66v4.2l109.51-109.44c-.3-.11-.59-.27-.83-.51Z" style="fill: url(#uuid-9315227f-00ef-4e13-8097-ffe60fc7d9a9);"/>
      <path d="M108.67,496.76c-.23,.23-.39,.5-.5,.78-.3,.79-.13,1.73,.5,2.36,.24,.24,.53,.41,.83,.51,.78,.27,1.69,.11,2.31-.51,.39-.39,.6-.91,.63-1.43,.02-.3-.02-.6-.12-.88-.11-.31-.27-.59-.51-.83-.86-.86-2.29-.86-3.14,0Z" style="fill: #fff;"/>
      <path d="M82.1,508.19s-.11-.08-.16-.13l-.37,.37c.06,.05,.12,.09,.18,.14,.78,.78,.78,2.05,0,2.83-.78,.78-2.05,.78-2.83,0-.06-.06-.1-.12-.14-.18L0,589.98v3.43l82.1-82.08c.86-.86,.86-2.29,0-3.14Z" style="fill: url(#uuid-175c6559-7e8a-4275-9db9-72d8d990c3c5);"/>
      <path d="M78.92,508.58c.73-.72,1.87-.77,2.65-.14l.37-.37c-.87-.72-2.18-.68-2.99,.13L0,587.15v2.83l78.77-78.75c-.62-.79-.58-1.93,.14-2.65Z" style="fill: url(#uuid-73889bad-6006-46b7-8e81-f964375c405b);"/>
      <path d="M78.92,508.58c.73-.72,1.87-.77,2.65-.14l.37-.37c-.87-.72-2.18-.68-2.99,.13L0,587.15v2.83l78.77-78.75c-.62-.79-.58-1.93,.14-2.65Z" style="fill: url(#uuid-123fc731-84b4-40ce-9480-081f49820120);"/>
      <path d="M78.92,508.58c-.73,.73-.77,1.87-.14,2.65,.05,.06,.09,.12,.14,.18,.78,.78,2.05,.78,2.83,0,.78-.78,.78-2.05,0-2.83-.06-.06-.12-.1-.18-.14-.79-.62-1.93-.58-2.65,.14Z" style="fill: #fff;"/>
      <path d="M230.11,342.51c-.21-.21-.39-.44-.54-.66L0,571.29v5.49l233.54-233.42c-1.12,.49-2.54,.26-3.43-.86Z" style="fill: url(#uuid-697b30d9-ac10-488a-bf36-b7b76b485040);"/>
      <path d="M229.83,338.22c.36-.36,.8-.59,1.27-.71-.58,.06-1.13,.28-1.56,.71L0,567.7v3.59l229.57-229.45c-.85-1.27-.72-2.65,.25-3.62Z" style="fill: url(#uuid-0866c37e-b2e8-4b2f-a856-0ab853231c8c);"/>
      <path d="M229.83,338.22c.36-.36,.8-.59,1.27-.71-.58,.06-1.13,.28-1.56,.71L0,567.7v3.59l229.57-229.45c-.85-1.27-.72-2.65,.25-3.62Z" style="fill: url(#uuid-f635d032-0a5e-4ca8-ae9a-07dc2c7b7139);"/>
      <path d="M231.1,337.51c-.47,.12-.92,.36-1.27,.71-.97,.97-1.11,2.35-.25,3.62,.15,.22,.32,.45,.54,.66,.89,1.12,2.31,1.35,3.43,.86,.31-.14,.61-.32,.86-.57,1.14-1.14,.86-3.14-.28-4.28-.19-.23-.4-.41-.63-.57-.72-.51-1.59-.64-2.39-.43Z" style="fill: #fff;"/>
      <path d="M119.82,285.66c-1.43-1.14-1.43-2.86-.29-4,.2-.2,.42-.34,.65-.45-.34,.1-.66,.25-.93,.46L0,400.88v6.28l120.82-120.79c-.36-.17-.7-.41-1-.71Z" style="fill: url(#uuid-6108b2fc-6e02-455f-8aee-d09c712f50c0);"/>
      <path d="M124.26,282.93c-.18-.34-.41-.67-.73-.98,.31,.31,.53,.67,.68,1.04l.05-.05Z" style="fill: url(#uuid-b7fbf982-98b8-42a3-bae9-9e703ef58655);"/>
      <path d="M124.26,282.93l-.05,.05c.4,1,.23,2.13-.39,2.96-.84,.84-1.99,.9-3,.42L0,407.16v2.86l123.82-123.79c.89-.89,1.08-2.12,.45-3.3Z" style="fill: url(#uuid-a0aa2092-7ee6-4f0e-8bc7-87a2c6512346);"/>
      <path d="M124.26,282.93l-.05,.05c.4,1,.23,2.13-.39,2.96-.84,.84-1.99,.9-3,.42L0,407.16v2.86l123.82-123.79c.89-.89,1.08-2.12,.45-3.3Z" style="fill: url(#uuid-7587cb4d-bc9e-4a26-acfa-5a8bdbd19c9c);"/>
      <path d="M119.82,285.66c.3,.3,.64,.54,1,.71,1,.48,2.15,.42,3-.42,.62-.83,.79-1.96,.39-2.96-.15-.37-.37-.73-.68-1.04-.94-.94-2.27-1.29-3.35-.74-.23,.12-.45,.26-.65,.45-1.14,1.14-1.14,2.86,.29,4Z" style="fill: #fff;"/>
      <path d="M63.53,323.65c-1.14-.86-1.14-2.86,0-3.71,.71-.71,2-.82,3.08-.36-.97-.77-2.61-.65-3.36,.36L0,383.17v4.92l64.1-64.11c-.2-.09-.39-.2-.57-.33Z" style="fill: url(#uuid-aca381c5-5414-474a-8cb1-1547fe671d20);"/>
      <path d="M64.1,323.98L0,388.09v2.5l66.49-66.47c-.72,.27-1.61,.22-2.39-.14Z" style="fill: url(#uuid-504c3b89-111c-4419-a7b5-7d90cbdab2be);"/>
      <path d="M64.1,323.98L0,388.09v2.5l66.49-66.47c-.72,.27-1.61,.22-2.39-.14Z" style="fill: url(#uuid-a7046c41-0c63-4b58-8f43-2eb3bddd6867);"/>
      <path d="M63.53,319.94c-1.14,.86-1.14,2.86,0,3.71,.18,.13,.37,.24,.57,.33,.77,.36,1.67,.41,2.39,.14,.29-.11,.55-.26,.76-.47,.97-.97,1.11-2.34,.44-3.25-.12-.17-.26-.33-.44-.46-.2-.15-.42-.26-.64-.36-1.07-.46-2.37-.35-3.08,.36Z" style="fill: #fff;"/>
      <path d="M529.85,219.96c1.43,.86,3.43,1.43,5.43,1.43,5.43,0,10-4.57,10-10,0-5.71-4.57-10-10-10s-10,4.57-10,10c0,2,.57,3.71,1.43,5.43l-153.44,153.4h-16.29v4.57h18.29l154.58-154.83Z" style="fill: #00abec;"/>
      <polygon points="89.81 558.48 274.69 374.79 288.69 374.79 293.26 374.79 351.55 374.79 351.55 370.22 297.83 370.22 293.26 370.22 272.69 370.22 40.38 601.32 41.48 602.42 43.53 604.46 89.81 558.48" style="fill: #00abec;"/>
      <path d="M555.28,81.41c-6.86,0-12.57,5.71-12.57,12.57,0,2.29,.86,4.57,2,6.57l-193.16,193.11v125.41l-216.02,209.39,4,4,217.45-210.82v-125.41l191.44-191.39c2,1.14,4,2,6.57,2,6.86,0,12.57-5.71,12.57-12.57s-5.43-12.57-12.29-12.85Z" style="fill: #00abec;"/>
      <path d="M127.93,869.33l263.93-263.55c.24,0,.48,.24,.72,.24,1.43,0,2.39-1.2,2.39-2.39,.24-1.43-.96-2.63-2.15-2.63-1.43,0-2.39,1.2-2.39,2.39,0,.24,0,.48,.24,.72L125.78,868.85v129.27L0,1123.65v2.8l127.93-127.86v-129.27Z" style="fill: #fff; isolation: isolate; opacity: .32;"/>
    </g>
  </g>
</svg>