
<svg id="uuid-0b7570d9-e379-4a81-b638-7cff796561ec" data-name="Слой 2" xmlns="http://www.w3.org/2000/svg" xmlns:xlink="http://www.w3.org/1999/xlink" viewBox="0 0 630 934.71">
  <defs>
    <linearGradient id="uuid-3338f2bf-8ee2-4ec0-b1e1-a405d7da9c71" data-name="Безымянный градиент 26" x1="470.87" y1="103.64" x2="470.87" y2="796.65" gradientTransform="translate(0 675.42) scale(1 -1)" gradientUnits="userSpaceOnUse">
      <stop offset="0" stop-color="#4440a5"/>
      <stop offset="1" stop-color="#1da29f"/>
    </linearGradient>
    <linearGradient id="uuid-e7e7e378-fcf8-485d-a80b-0386a9058d1d" data-name="Безымянный градиент 26" x1="307.34" x2="307.34" xlink:href="#uuid-3338f2bf-8ee2-4ec0-b1e1-a405d7da9c71"/>
    <linearGradient id="uuid-477e676e-9379-4c6a-95b0-3c6e9c22bae6" data-name="Безымянный градиент 26" x1="572.67" y1="115.93" x2="572.67" y2="764.37" xlink:href="#uuid-3338f2bf-8ee2-4ec0-b1e1-a405d7da9c71"/>
    <linearGradient id="uuid-18d1f555-31b9-4890-8faf-0dd82d4e3e9b" data-name="Безымянный градиент 26" x1="444.4" y1="20.02" x2="444.4" y2="840.58" xlink:href="#uuid-3338f2bf-8ee2-4ec0-b1e1-a405d7da9c71"/>
    <linearGradient id="uuid-b7acc8ff-a727-4996-9529-fd80f96061ea" data-name="Безымянный градиент 26" x1="426.87" y1="-34.26" x2="426.87" y2="875.14" xlink:href="#uuid-3338f2bf-8ee2-4ec0-b1e1-a405d7da9c71"/>
    <linearGradient id="uuid-d0bd76c7-3986-4586-8fa8-7988294328fc" data-name="Безымянный градиент 26" x1="454.44" y1="1.16" x2="454.44" y2="820.29" xlink:href="#uuid-3338f2bf-8ee2-4ec0-b1e1-a405d7da9c71"/>
    <linearGradient id="uuid-7caafe71-4d56-4274-913d-621bf4344393" data-name="Безымянный градиент 26" x1="399.06" y1="-128.46" x2="399.06" y2="930.2" xlink:href="#uuid-3338f2bf-8ee2-4ec0-b1e1-a405d7da9c71"/>
    <linearGradient id="uuid-00fafde0-45e5-43a0-a4b7-cfa4115b38c4" data-name="Безымянный градиент 26" x1="461.41" y1="-23.69" x2="461.41" y2="805.72" xlink:href="#uuid-3338f2bf-8ee2-4ec0-b1e1-a405d7da9c71"/>
    <linearGradient id="uuid-25b80798-3ff8-49f9-b1cc-d137fabec249" data-name="Безымянный градиент 26" x1="420.83" y1="-124.46" x2="420.83" y2="886.78" xlink:href="#uuid-3338f2bf-8ee2-4ec0-b1e1-a405d7da9c71"/>
    <linearGradient id="uuid-66d7f7b5-d713-460e-a9d8-07661cac1770" data-name="Безымянный градиент 26" x1="478.55" y1="-28.82" x2="478.55" y2="771.45" xlink:href="#uuid-3338f2bf-8ee2-4ec0-b1e1-a405d7da9c71"/>
    <linearGradient id="uuid-1f5e917b-5a63-46a6-b942-0e019ee47b64" data-name="Безымянный градиент 26" x1="489.3" y1="-27.3" x2="489.3" y2="750.49" xlink:href="#uuid-3338f2bf-8ee2-4ec0-b1e1-a405d7da9c71"/>
    <linearGradient id="uuid-bc51a40b-b8ea-4525-a58e-4e373a568f08" data-name="Безымянный градиент 26" x1="348.28" y1="-27.3" x2="348.28" y2="750.49" xlink:href="#uuid-3338f2bf-8ee2-4ec0-b1e1-a405d7da9c71"/>
    <linearGradient id="uuid-9eba4a40-7c98-43fe-9b97-c8ca28b528e6" data-name="Безымянный градиент 26" x1="395.1" y1="-236.01" x2="395.1" y2="939.51" xlink:href="#uuid-3338f2bf-8ee2-4ec0-b1e1-a405d7da9c71"/>
    <linearGradient id="uuid-dc72e19e-6741-45d2-939b-f5b821efff5b" data-name="Безымянный градиент 26" x1="393.15" y1="-259.16" x2="393.15" y2="942.93" xlink:href="#uuid-3338f2bf-8ee2-4ec0-b1e1-a405d7da9c71"/>
    <linearGradient id="uuid-9526d5ae-2a6d-47de-bc57-947a900cbe14" data-name="Безымянный градиент 26" x1="156.03" y1="-259.16" x2="156.03" y2="942.93" xlink:href="#uuid-3338f2bf-8ee2-4ec0-b1e1-a405d7da9c71"/>
    <linearGradient id="uuid-fac5bcf2-4282-4cad-8dd0-3d63b0e3370a" data-name="Безымянный градиент 26" x1="402.52" y1="160.79" x2="402.52" y2="1336.02" xlink:href="#uuid-3338f2bf-8ee2-4ec0-b1e1-a405d7da9c71"/>
    <linearGradient id="uuid-81c78fd9-54ef-42d2-9734-7e6158f3ac2b" data-name="Безымянный градиент 26" x1="401.5" y1="137.65" x2="401.5" y2="1339.74" xlink:href="#uuid-3338f2bf-8ee2-4ec0-b1e1-a405d7da9c71"/>
    <linearGradient id="uuid-85b63d4b-540d-4369-9469-2626407b89c0" data-name="Безымянный градиент 26" x1="452.83" y1="-158.63" x2="452.83" y2="822.69" xlink:href="#uuid-3338f2bf-8ee2-4ec0-b1e1-a405d7da9c71"/>
    <linearGradient id="uuid-5037e37f-b1eb-4c0e-9a24-becd796985d9" data-name="Безымянный градиент 26" x1="501.73" y1="-81.4" x2="501.73" y2="725.74" xlink:href="#uuid-3338f2bf-8ee2-4ec0-b1e1-a405d7da9c71"/>
    <linearGradient id="uuid-48e9d20b-e23c-4c9d-95a7-c73fd97baa7d" data-name="Безымянный градиент 26" x1="407.33" y1="227.15" x2="407.33" y2="1034.29" xlink:href="#uuid-3338f2bf-8ee2-4ec0-b1e1-a405d7da9c71"/>
    <linearGradient id="uuid-3587b127-3872-4829-908d-3fa17b07c707" data-name="Безымянный градиент 26" x1="435.19" y1="-38.9" x2="435.19" y2="663.54" xlink:href="#uuid-3338f2bf-8ee2-4ec0-b1e1-a405d7da9c71"/>
    <linearGradient id="uuid-2bf68416-64bd-4185-ae29-48e42103fcba" data-name="Безымянный градиент 26" x1="532.73" y1="-38.9" x2="532.73" y2="663.54" xlink:href="#uuid-3338f2bf-8ee2-4ec0-b1e1-a405d7da9c71"/>
    <linearGradient id="uuid-aa79690d-e51d-41f8-becc-6a61810d24c7" data-name="Безымянный градиент 26" x1="561.27" y1="237.12" x2="561.27" y2="1140.23" xlink:href="#uuid-3338f2bf-8ee2-4ec0-b1e1-a405d7da9c71"/>
    <linearGradient id="uuid-5d001e31-ad1b-43fe-8df8-3a70dce07419" data-name="Безымянный градиент 26" x1="562.75" y1="-34.26" x2="562.75" y2="875.14" xlink:href="#uuid-3338f2bf-8ee2-4ec0-b1e1-a405d7da9c71"/>
    <linearGradient id="uuid-04e2b3ec-a382-4a4e-af04-9ca5d0f65644" data-name="Безымянный градиент 26" x1="562.75" y1="237.12" x2="562.75" y2="1140.23" xlink:href="#uuid-3338f2bf-8ee2-4ec0-b1e1-a405d7da9c71"/>
    <linearGradient id="uuid-1dc07c98-fc08-4400-8e3e-29c403b7157c" data-name="Безымянный градиент 26" x1="576.13" y1="248.26" x2="576.13" y2="1110.24" xlink:href="#uuid-3338f2bf-8ee2-4ec0-b1e1-a405d7da9c71"/>
    <linearGradient id="uuid-fc10524a-fba9-4c29-b584-eb8b5c35cdaf" data-name="Безымянный градиент 26" x1="576.53" y1="1.16" x2="576.53" y2="820.29" xlink:href="#uuid-3338f2bf-8ee2-4ec0-b1e1-a405d7da9c71"/>
    <linearGradient id="uuid-e7a4f65b-6f50-445d-9736-cfafc434d45c" data-name="Безымянный градиент 26" x1="576.53" y1="248.26" x2="576.53" y2="1110.24" xlink:href="#uuid-3338f2bf-8ee2-4ec0-b1e1-a405d7da9c71"/>
    <linearGradient id="uuid-31906a06-1d6a-4ce2-ac9f-74328008c3e7" data-name="Безымянный градиент 26" x1="500.73" y1="78.2" x2="500.73" y2="1262.58" xlink:href="#uuid-3338f2bf-8ee2-4ec0-b1e1-a405d7da9c71"/>
    <linearGradient id="uuid-3bfa5958-ff0a-4b0a-b2c1-463d74f64e42" data-name="Безымянный градиент 26" x1="501.95" y1="-128.46" x2="501.95" y2="930.2" xlink:href="#uuid-3338f2bf-8ee2-4ec0-b1e1-a405d7da9c71"/>
    <linearGradient id="uuid-2068d07b-06a0-44bc-b8ec-df8d19d66e1e" data-name="Безымянный градиент 26" x1="501.95" y1="78.22" x2="501.95" y2="1262.59" xlink:href="#uuid-3338f2bf-8ee2-4ec0-b1e1-a405d7da9c71"/>
    <linearGradient id="uuid-3c8a6254-e326-46a4-92d5-78e589e55222" data-name="Безымянный градиент 26" x1="625.19" y1="310.46" x2="625.19" y2="1012.61" xlink:href="#uuid-3338f2bf-8ee2-4ec0-b1e1-a405d7da9c71"/>
    <linearGradient id="uuid-5e970780-0860-4648-8c35-6151c178b1f6" data-name="Безымянный градиент 26" x1="619.31" y1="261.61" x2="619.31" y2="1024.72" xlink:href="#uuid-3338f2bf-8ee2-4ec0-b1e1-a405d7da9c71"/>
    <linearGradient id="uuid-d77ffd47-d195-424e-af4f-e0d9bd342959" data-name="Безымянный градиент 26" x1="608.3" y1="261.61" x2="608.3" y2="1024.72" xlink:href="#uuid-3338f2bf-8ee2-4ec0-b1e1-a405d7da9c71"/>
    <linearGradient id="uuid-71b1196e-e1ee-48e8-987d-0c64847fdfa4" data-name="Безымянный градиент 26" x1="618.53" y1="223.4" x2="618.53" y2="1026.54" xlink:href="#uuid-3338f2bf-8ee2-4ec0-b1e1-a405d7da9c71"/>
    <linearGradient id="uuid-32a74fa8-dc81-46fd-a288-f207ed5913cd" data-name="Безымянный градиент 26" x1="557.09" y1="21.76" x2="557.09" y2="1152.2" xlink:href="#uuid-3338f2bf-8ee2-4ec0-b1e1-a405d7da9c71"/>
    <linearGradient id="uuid-16d266ff-e772-4b00-ac9f-8717e4a07cfc" data-name="Безымянный градиент 26" x1="481.09" y1="21.76" x2="481.09" y2="1152.2" xlink:href="#uuid-3338f2bf-8ee2-4ec0-b1e1-a405d7da9c71"/>
    <linearGradient id="uuid-721bea61-8f44-4214-b4a7-7579fd65d480" data-name="Безымянный градиент 26" x1="555.18" y1="-81.4" x2="555.18" y2="725.74" xlink:href="#uuid-3338f2bf-8ee2-4ec0-b1e1-a405d7da9c71"/>
    <linearGradient id="uuid-201c4b84-829d-471d-a4e9-18153919e700" data-name="Безымянный градиент 26" x1="555.18" y1="21.76" x2="555.18" y2="1152.2" xlink:href="#uuid-3338f2bf-8ee2-4ec0-b1e1-a405d7da9c71"/>
    <linearGradient id="uuid-086f6dc5-0751-4901-a993-e7f5455b52ca" data-name="Безымянный градиент 26" x1="584.2" y1="59.79" x2="584.2" y2="1095.6" xlink:href="#uuid-3338f2bf-8ee2-4ec0-b1e1-a405d7da9c71"/>
    <linearGradient id="uuid-9fffa849-6e10-4b1d-b63d-99f24631a77f" data-name="Безымянный градиент 26" x1="584.26" y1="-38.9" x2="584.26" y2="663.54" xlink:href="#uuid-3338f2bf-8ee2-4ec0-b1e1-a405d7da9c71"/>
    <linearGradient id="uuid-a7e62c9e-237c-4886-8894-10aad9431f09" data-name="Безымянный градиент 26" x1="584.26" y1="59.79" x2="584.26" y2="1095.6" xlink:href="#uuid-3338f2bf-8ee2-4ec0-b1e1-a405d7da9c71"/>
  </defs>
  <g id="uuid-b75b7a41-63c0-421d-a030-aa85c80d3314" data-name="Слой 1">
    <g>
      <polygon points="330.31 559.92 515.34 376.09 630 261.46 630 246.32 316.31 559.92 330.31 559.92" style="fill: none;"/>
      <path d="M541.76,614.77c-.75,1.01-2.39,1.12-3.36,.36-.22-.1-.44-.21-.64-.36-.18-.13-.32-.29-.44-.46l-99.57,99.58c-.57,.57-1.71,.57-2.29,0-.86-.57-.57-1.71,0-2.29l194.54-194.48v-8.28l-144.25,144.21c-.27,.2-.59,.36-.94,.46-1.08,.54-2.4,.2-3.35-.74-.01-.01-.02-.02-.03-.03-.3-.31-.53-.63-.7-.95l-104.42,104.39c-.86,.86-2,.86-2.86,0-.86-.85-.86-2,0-2.85l256.54-256.47v-13.61l-349.44,349.24c-.1,.38-.27,.76-.54,1.11-.86,.85-2.57,.85-3.43,0-.05-.05-.08-.1-.12-.16-.05-.05-.12-.09-.16-.13-.86-.86-.86-2.57,0-3.43l353.69-353.49v-11.53L160.87,933.85c-1.14,1.15-3.14,1.15-4.29-.28-1.43-1.15-1.43-3.14-.29-4.29l473.7-473.57v-10.51L164.59,910.71c-.48,.48-1.1,.7-1.76,.72-.96,.17-2.02-.14-2.81-.93-1.23-1.23-1.32-3.13-.2-4.24,.11-.11,.24-.21,.37-.3l469.81-469.79v-4.75l-19.95,19.95s-.1,.08-.15,.13c-.04,.05-.08,.11-.13,.16-.86,.86-2,.86-2.86,0-.86-.86-.86-2,0-2.86,.05-.05,.11-.09,.16-.13,.04-.05,.08-.1,.13-.15l22.81-22.8v-2.18l-278.83,278.65c-.86,.86-2,.86-2.57,0-.86-.57-.86-1.71,0-2.57l281.4-281.32v-14l-299.4,299.32c-.47,.47-1.01,.67-1.56,.63-.51,.04-.99-.16-1.3-.63-.86-.86-.86-2,0-2.86l302.26-302.18v-3.99l-18.42,18.41c-.1,.14-.22,.28-.38,.38-.86,.86-2,.86-2.57,0-.86-.57-.86-1.71,0-2.57l21.38-21.37v-4.29L216.02,799.02c-1.14,1.14-2.57,1.14-3.72,0-.86-1.14-.86-2.86,0-3.71l417.7-417.47v-12.97l-333.69,333.6c-.86,.86-2,.86-2.86,0-.7-.7-.82-1.6-.37-2.37,.09-.19,.21-.36,.36-.52,.06-.06,.13-.11,.19-.16l336.36-336.27v-1.43l-6.47,6.46c-.07,.24-.17,.46-.34,.62-.57,.57-1.71,.57-2.28,0-.17-.17-.27-.4-.34-.64-.39-.61-.13-1.46,.34-1.93l9.09-9.09v-7.3L173.39,802.22c-.1,.39-.27,.76-.52,1.09-1.14,1.14-2.57,.85-3.71,0-.05-.05-.09-.11-.14-.17-.05-.04-.1-.08-.15-.12-.86-.86-1.14-2.57,0-3.71l202.64-202.53c-.23-.16-.44-.34-.63-.57-1.14-1.14-1.43-3.14-.29-4.29,.25-.25,.54-.43,.86-.57l258.54-258.41v-7.61l-348.26,348.29c-.86,.86-2,.86-2.86,0-.86-.86-.86-2,0-2.86l244.18-244.11c-.05-.04-.11-.08-.16-.13-.86-.86-.86-2.29,0-3.14l107.1-107.07v-10.15L226.88,709.04c-.86,.86-2.28,.86-3.14,0-.86-.86-.86-2.28,0-3.14L492.67,437.11c-.1-.29-.14-.59-.12-.88-.04-.62,.17-1.25,.63-1.71l136.82-136.78v-11.43l-368.55,368.45c-.44,.44-.95,.65-1.46,.64-.57,.05-1.16-.13-1.6-.57-.78-.78-.78-2.05,0-2.83,.12-.12,.26-.22,.41-.31l371.2-371.1v-14.83l-66.48,66.52,1.1,1.1-232.3,231.1h-20.57l-6.86,6.86c-.32,.32-.81,.44-1.29,.4-.48,.04-.97-.09-1.29-.4-.57-.57-.57-1.71,0-2.29,.17-.17,.39-.27,.63-.34l4.23-4.23h-53.72v76.56L60.29,834.16c1.14,2,2,4.28,2,6.57,0,6.85-5.71,12.57-12.57,12.57-6.86-.29-12.29-5.72-12.29-12.86s5.71-12.57,12.57-12.57c2.57,0,4.57,.86,6.57,2l191.44-191.39v-73.99h-16.29l-153.44,153.4c.86,1.71,1.43,3.43,1.43,5.43,0,5.43-4.57,10-10,10s-10-4.29-10-10,4.57-10,10-10c2,0,4,.57,5.43,1.43l154.58-154.83h18.29v-46.85l217.45-210.82,4,4-216.02,209.39v44.28h58.29L630,241.61V84.08L177.01,537.05c-.43,.43-.98,.66-1.56,.71-1.04,.28-2.23-.02-3.01-1-1.14-1.14-1.43-3.14-.29-4.28,.25-.25,.54-.43,.86-.57L630,75.04v-10.57L180.44,513.91c-.76,.76-1.89,.88-2.91,.54-.53-.15-1.04-.43-1.46-.86-.11-.11-.19-.22-.28-.34-1.04-1.17-.95-2.89,.08-3.92L630,55.33V5.73L188.14,447.62c-.86,.86-2,.86-2.86,0-.47-.47-.67-1.02-.63-1.57-.04-.55,.16-1.1,.63-1.57,.25-.25,.52-.42,.81-.52L630,.17v-.17H0V934.71H630v-408.16l-88.24,88.22Z" style="fill: none;"/>
      <polygon points="316.31 559.92 630 246.32 630 241.61 311.74 559.92 316.31 559.92" style="fill: url(#uuid-3338f2bf-8ee2-4ec0-b1e1-a405d7da9c71);"/>
      <path d="M302.94,568.72c.57-.17,1.26-.06,1.66,.34,.86,.57,.57,1.71,0,2.29-.25,.25-.62,.37-1,.4,.48,.04,.97-.09,1.29-.4l6.86-6.86h-4.57l-4.23,4.23Z" style="fill: url(#uuid-e7e7e378-fcf8-485d-a80b-0386a9058d1d);"/>
      <path d="M304.6,569.06c-.4-.4-1.09-.51-1.66-.34-.24,.07-.46,.17-.63,.34-.57,.57-.57,1.71,0,2.29,.32,.32,.81,.44,1.29,.4,.38-.03,.75-.15,1-.4,.57-.57,.86-1.71,0-2.29Z" style="fill: #fff;"/>
      <polygon points="561.47 330.25 563.52 332.29 630 265.77 630 261.46 515.34 376.09 561.47 330.25" style="fill: url(#uuid-477e676e-9379-4c6a-95b0-3c6e9c22bae6);"/>
      <path d="M261.22,652c.78,.78,.78,2.05,0,2.83-.34,.34-.78,.53-1.23,.57,.51,0,1.02-.2,1.46-.64l368.55-368.45v-5.71l-371.2,371.1c.77-.45,1.76-.35,2.42,.31Z" style="fill: url(#uuid-18d1f555-31b9-4890-8faf-0dd82d4e3e9b);"/>
      <path d="M261.22,652c-.66-.66-1.65-.75-2.42-.31-.14,.08-.28,.18-.41,.31-.78,.78-.78,2.05,0,2.83,.44,.44,1.03,.62,1.6,.57,.45-.04,.89-.22,1.23-.57,.78-.78,.78-2.05,0-2.83Z" style="fill: #fff;"/>
      <path d="M496.33,437.95c-.86,.86-2.29,.86-3.14,0-.24-.24-.41-.53-.51-.83L223.73,705.9c.86-.86,2.29-.86,3.14,0,.86,.86,.86,2.29,0,3.14l403.12-402.89v-2.09l-133.18,133.1c-.11,.29-.27,.56-.5,.78Z" style="fill: url(#uuid-b7acc8ff-a727-4996-9529-fd80f96061ea);"/>
      <path d="M226.88,705.9c-.86-.86-2.28-.86-3.14,0-.86,.86-.86,2.29,0,3.14,.86,.86,2.29,.86,3.14,0,.86-.86,.86-2.28,0-3.14Z" style="fill: #fff;"/>
      <path d="M523.06,426.65l-244.18,244.11c.86-.86,2-.86,2.86,0s.86,2,0,2.86l348.26-348.29v-2.77l-103.96,103.96c-.81,.81-2.12,.84-2.99,.13Z" style="fill: url(#uuid-d0bd76c7-3986-4586-8fa8-7988294328fc);"/>
      <path d="M281.74,670.76c-.86-.86-2-.86-2.86,0-.86,.86-.86,2,0,2.86,.86,.86,2,.86,2.86,0s.86-2,0-2.86Z" style="fill: #fff;"/>
      <path d="M373.9,597.2c-.79,.21-1.66,.08-2.39-.43l-202.64,202.53c-1.14,1.14-.86,2.85,0,3.71,.05,.05,.1,.08,.15,.12-.99-1.14-.95-2.73,.14-3.55,1.14-1.14,2.57-.85,3.71,0,.61,.61,.78,1.66,.52,2.63l456.61-456.36v-3.84l-254.54,254.47c-.43,.43-.98,.66-1.56,.71Z" style="fill: url(#uuid-7caafe71-4d56-4274-913d-621bf4344393);"/>
      <path d="M172.87,799.59c-1.14-.85-2.57-1.14-3.71,0-1.09,.82-1.13,2.41-.14,3.55,.05,.06,.09,.12,.14,.17,1.14,.85,2.57,1.14,3.71,0,.25-.33,.41-.7,.52-1.09,.26-.97,.1-2.01-.52-2.63Z" style="fill: #fff;"/>
      <path d="M296.28,695.58c.78,.78,.78,2.05,0,2.83-.78,.78-2.05,.78-2.83,0-.63-.63-.74-1.56-.36-2.31-.45,.77-.33,1.67,.37,2.37,.86,.86,2,.86,2.86,0l333.69-333.6v-5.72l-336.36,336.27c.78-.61,1.92-.57,2.64,.16Z" style="fill: url(#uuid-00fafde0-45e5-43a0-a4b7-cfa4115b38c4);"/>
      <path d="M293.45,698.41c.78,.78,2.05,.78,2.83,0,.78-.78,.78-2.05,0-2.83-.72-.72-1.85-.77-2.64-.16-.06,.05-.13,.1-.19,.16-.16,.16-.27,.33-.36,.52-.38,.75-.26,1.68,.36,2.31Z" style="fill: #fff;"/>
      <path d="M212.3,799.02c1.14,1.14,2.57,1.14,3.72,0l413.98-413.87v-7.3L212.3,795.31c-.86,.85-.86,2.57,0,3.71Zm3.71-3.43c.86,.86,.86,2.57,0,3.43-.86,.86-2.57,.86-3.43,0-.86-.86-1.14-2.57,0-3.43,.86-.85,2.57-.85,3.43,0Z" style="fill: url(#uuid-25b80798-3ff8-49f9-b1cc-d137fabec249);"/>
      <path d="M212.59,799.02c.86,.86,2.57,.86,3.43,0,.86-.86,.86-2.57,0-3.43-.86-.85-2.57-.85-3.43,0-1.14,.86-.86,2.57,0,3.43Z" style="fill: #fff;"/>
      <path d="M327.74,703.61c-.86-.86-.57-2,0-2.57,.86-.86,2-.86,2.57,0,.86,.57,.86,1.71,0,2.57-.39,.39-.84,.6-1.27,.63,.54,.04,1.09-.16,1.56-.63l299.4-299.32v-5.71l-302.26,302.18c-.86,.86-.86,2,0,2.86Z" style="fill: url(#uuid-66d7f7b5-d713-460e-a9d8-07661cac1770);"/>
      <path d="M330.31,701.04c-.57-.86-1.71-.86-2.57,0-.57,.57-.86,1.71,0,2.57,.31,.47,.79,.67,1.3,.63,.43-.03,.88-.24,1.27-.63,.86-.86,.86-2,0-2.57Z" style="fill: #fff;"/>
      <path d="M351.17,699.61c.57,.86,.86,1.71,0,2.57l278.83-278.65v-5.24l-281.4,281.32c.86-.86,2-.86,2.57,0Z" style="fill: url(#uuid-1f5e917b-5a63-46a6-b942-0e019ee47b64);"/>
      <path d="M348.6,699.61c-.86,.86-.86,2,0,2.57-.57-.57-.57-2,0-2.57Z" style="fill: url(#uuid-bc51a40b-b8ea-4525-a58e-4e373a568f08);"/>
      <path d="M351.17,699.61c-.57-.86-1.71-.86-2.57,0-.57,.57-.57,2,0,2.57,.57,.86,1.71,.86,2.57,0,.86-.86,.57-1.71,0-2.57Z" style="fill: #fff;"/>
      <path d="M164.06,906.46c1.23,1.22,1.32,3.12,.2,4.24-.4,.4-.9,.64-1.44,.73,.65-.02,1.28-.24,1.76-.72l465.41-465.52v-9.03L160.19,905.96c1.13-.78,2.77-.61,3.87,.5Z" style="fill: url(#uuid-9eba4a40-7c98-43fe-9b97-c8ca28b528e6);"/>
      <path d="M164.06,906.46c-1.1-1.1-2.74-1.28-3.87-.5-.13,.09-.26,.18-.37,.3-1.12,1.11-1.03,3.01,.2,4.24,.79,.78,1.85,1.09,2.81,.93,.53-.09,1.04-.33,1.44-.73,1.12-1.12,1.03-3.02-.2-4.24Z" style="fill: #fff;"/>
      <path d="M160.58,929.57c1.14,1.14,1.43,3.14,.29,4.28l469.13-469v-9.14L156.3,929.28c1.14-1.14,3.14-1.14,4.29,.29Z" style="fill: url(#uuid-dc72e19e-6741-45d2-939b-f5b821efff5b);"/>
      <path d="M156.3,929.28c-1.14,1.15-1.14,3.14,.29,4.29-1.14-1.15-1.43-3.15-.29-4.29Z" style="fill: url(#uuid-9526d5ae-2a6d-47de-bc57-947a900cbe14);"/>
      <path d="M160.58,929.57c-1.14-1.43-3.14-1.43-4.29-.29-1.14,1.14-.86,3.14,.29,4.29,1.14,1.43,3.14,1.43,4.29,.28,1.14-1.14,.86-3.14-.29-4.28Z" style="fill: #fff;"/>
      <path d="M175.78,513.26c-.94-1.22-.94-2.88,.08-3.9,1.12-1.12,3.02-1.03,4.24,.2,1.23,1.23,1.32,3.13,.2,4.24-.73,.73-1.79,.93-2.78,.65,1.01,.33,2.15,.22,2.91-.54L630,64.47v-9.14L175.86,509.34c-1.03,1.03-1.12,2.75-.08,3.92Z" style="fill: url(#uuid-fac5bcf2-4282-4cad-8dd0-3d63b0e3370a);"/>
      <path d="M180.31,513.8c1.12-1.12,1.03-3.02-.2-4.24-1.23-1.23-3.13-1.32-4.24-.2-1.02,1.02-1.02,2.69-.08,3.9,.09,.12,.18,.23,.28,.34,.43,.43,.94,.71,1.46,.86,.99,.28,2.05,.07,2.78-.65Z" style="fill: #fff;"/>
      <path d="M176.44,532.77c1.43,1.43,1.43,3.14,.29,4.29-.36,.36-.8,.59-1.27,.71,.58-.06,1.13-.28,1.56-.71L630,84.08v-9.03L173.01,531.91c1.12-.49,2.53-.26,3.43,.86Z" style="fill: url(#uuid-81c78fd9-54ef-42d2-9734-7e6158f3ac2b);"/>
      <path d="M176.44,532.77c-.89-1.12-2.31-1.35-3.43-.86-.31,.14-.61,.32-.86,.57-1.14,1.14-.86,3.14,.29,4.28,.79,.98,1.97,1.27,3.01,1,.47-.13,.92-.36,1.27-.71,1.14-1.14,1.14-2.86-.29-4.29Z" style="fill: #fff;"/>
      <path d="M276.31,833.3s.11,.09,.16,.13c-.72-.9-.69-2.46,.12-3.27,.86-.86,2.57-.86,3.43,0,.59,.6,.77,1.46,.54,2.32l349.44-349.24v-6.86l-353.69,353.49c-.86,.86-.86,2.57,0,3.43Z" style="fill: url(#uuid-85b63d4b-540d-4369-9469-2626407b89c0);"/>
      <path d="M280.02,830.16c-.86-.86-2.57-.86-3.43,0-.81,.81-.84,2.38-.12,3.27,.04,.05,.08,.11,.12,.16,.86,.85,2.57,.85,3.43,0,.26-.35,.44-.73,.54-1.11,.23-.86,.06-1.72-.54-2.32Z" style="fill: #fff;"/>
      <path d="M376.32,753.32c.57,.85,.57,2,0,2.85l104.42-104.39c-.63-1.18-.44-2.41,.45-3.3l148.82-148.78v-2.85l-256.54,256.47c.86-.86,2-.86,2.86,0Z" style="fill: url(#uuid-5037e37f-b1eb-4c0e-9a24-becd796985d9);"/>
      <path d="M376.32,753.32c-.86-.86-2-.86-2.86,0-.86,.85-.86,2,0,2.85,.86,.86,2,.86,2.86,0,.57-.85,.57-2,0-2.85Z" style="fill: #fff;"/>
      <path d="M188.14,444.48c.86,.86,.86,2,0,2.86-.86,.86-2,.86-2.86,0-.39-.39-.59-.83-.63-1.29-.04,.55,.16,1.1,.63,1.57,.86,.86,2,.86,2.86,0L630,5.73V.17L186.09,443.96c.69-.25,1.44-.09,2.05,.52Z" style="fill: url(#uuid-48e9d20b-e23c-4c9d-95a7-c73fd97baa7d);"/>
      <path d="M188.14,447.34c.86-.86,.86-2,0-2.86-.61-.61-1.36-.78-2.05-.52-.28,.1-.56,.27-.81,.52-.47,.47-.67,1.02-.63,1.57,.04,.45,.24,.9,.63,1.29,.86,.86,2,.86,2.86,0Z" style="fill: #fff;"/>
      <path d="M435.46,711.61c-.57,.57-.86,1.71,0,2.29-.57-.57-.57-1.71,0-2.29Z" style="fill: url(#uuid-3587b127-3872-4829-908d-3fa17b07c707);"/>
      <path d="M437.75,711.61c.57,.57,.57,1.43,0,2.29l99.57-99.58c-.67-.92-.53-2.29,.44-3.25,.21-.21,.47-.36,.76-.47l91.49-91.46v-2l-194.54,194.48c.57-.57,1.71-.57,2.29,0Z" style="fill: url(#uuid-2bf68416-64bd-4185-ae29-48e42103fcba);"/>
      <path d="M437.75,711.61c-.57-.57-1.71-.57-2.29,0-.57,.57-.57,1.71,0,2.29,.57,.57,1.71,.57,2.29,0,.57-.86,.57-1.71,0-2.29Z" style="fill: #fff;"/>
      <path d="M492.55,436.23c.03-.52,.24-1.03,.63-1.42,.62-.62,1.53-.78,2.31-.51l134.51-134.43v-2.13l-136.82,136.78c-.46,.46-.67,1.09-.63,1.71Z" style="fill: url(#uuid-aa79690d-e51d-41f8-becc-6a61810d24c7);"/>
      <path d="M496.33,434.8c.63,.63,.79,1.57,.5,2.36l133.18-133.1v-4.2l-134.51,134.43c.31,.11,.59,.27,.83,.51Z" style="fill: url(#uuid-5d001e31-ad1b-43fe-8df8-3a70dce07419);"/>
      <path d="M496.33,434.8c.63,.63,.79,1.57,.5,2.36l133.18-133.1v-4.2l-134.51,134.43c.31,.11,.59,.27,.83,.51Z" style="fill: url(#uuid-04e2b3ec-a382-4a4e-af04-9ca5d0f65644);"/>
      <path d="M496.33,437.95c.23-.23,.39-.5,.5-.78,.3-.79,.13-1.73-.5-2.36-.24-.24-.53-.41-.83-.51-.78-.27-1.69-.11-2.31,.51-.39,.39-.6,.9-.63,1.42-.02,.3,.02,.6,.12,.88,.11,.31,.27,.59,.51,.83,.86,.86,2.29,.86,3.14,0Z" style="fill: #fff;"/>
      <path d="M522.9,426.52s.11,.08,.16,.13l.37-.37c-.06-.05-.12-.09-.18-.14-.78-.78-.78-2.05,0-2.83s2.05-.78,2.83,0c.06,.06,.1,.12,.14,.18l103.77-103.75v-3.43l-107.1,107.07c-.86,.86-.86,2.29,0,3.14Z" style="fill: url(#uuid-1dc07c98-fc08-4400-8e3e-29c403b7157c);"/>
      <path d="M526.08,426.13c-.73,.73-1.87,.77-2.65,.14l-.37,.37c.87,.72,2.18,.68,2.99-.13l103.96-103.96v-2.82l-103.77,103.75c.62,.79,.58,1.93-.14,2.65Z" style="fill: url(#uuid-fc10524a-fba9-4c29-b584-eb8b5c35cdaf);"/>
      <path d="M526.08,426.13c-.73,.73-1.87,.77-2.65,.14l-.37,.37c.87,.72,2.18,.68,2.99-.13l103.96-103.96v-2.82l-103.77,103.75c.62,.79,.58,1.93-.14,2.65Z" style="fill: url(#uuid-e7a4f65b-6f50-445d-9736-cfafc434d45c);"/>
      <path d="M526.08,426.13c.73-.73,.77-1.87,.14-2.65-.05-.06-.09-.12-.14-.18-.78-.78-2.05-.78-2.83,0s-.78,2.05,0,2.83c.06,.06,.12,.1,.18,.14,.79,.62,1.93,.58,2.65-.14Z" style="fill: #fff;"/>
      <path d="M374.89,592.2c.21,.21,.39,.44,.54,.66l254.57-254.44v-5.49l-258.54,258.41c1.12-.49,2.54-.26,3.43,.86Z" style="fill: url(#uuid-31906a06-1d6a-4ce2-ac9f-74328008c3e7);"/>
      <path d="M375.17,596.49c-.36,.36-.8,.59-1.27,.71,.58-.06,1.13-.28,1.56-.71l254.54-254.47v-3.59l-254.57,254.44c.85,1.27,.72,2.65-.25,3.62Z" style="fill: url(#uuid-3bfa5958-ff0a-4b0a-b2c1-463d74f64e42);"/>
      <path d="M375.17,596.49c-.36,.36-.8,.59-1.27,.71,.58-.06,1.13-.28,1.56-.71l254.54-254.47v-3.59l-254.57,254.44c.85,1.27,.72,2.65-.25,3.62Z" style="fill: url(#uuid-2068d07b-06a0-44bc-b8ec-df8d19d66e1e);"/>
      <path d="M373.9,597.2c.47-.13,.92-.36,1.27-.71,.97-.97,1.11-2.35,.25-3.62-.15-.22-.32-.45-.54-.66-.89-1.12-2.31-1.35-3.43-.86-.31,.14-.61,.32-.86,.57-1.14,1.14-.86,3.14,.29,4.29,.19,.23,.4,.41,.63,.57,.72,.51,1.59,.64,2.39,.43Z" style="fill: #fff;"/>
      <path d="M620.56,364.17c-.16-.57-.06-1.24,.34-1.64,.57-.57,1.71-.57,2.28,0,.4,.4,.51,1.09,.34,1.66l6.47-6.46v-4.57l-9.09,9.09c-.47,.47-.74,1.32-.34,1.93Z" style="fill: url(#uuid-3c8a6254-e326-46a4-92d5-78e589e55222);"/>
      <path d="M623.19,362.53c-.57-.57-1.71-.57-2.28,0-.4,.4-.5,1.07-.34,1.64,.07,.24,.17,.47,.34,.64,.57,.57,1.71,.57,2.28,0,.17-.17,.27-.39,.34-.62,.17-.57,.06-1.26-.34-1.66Z" style="fill: #fff;"/>
      <path d="M611.19,410.81c.7,.69,.82,1.57,.38,2.19l18.42-18.41v-5.15l-21.38,21.37c.86-.86,2-.86,2.57,0Z" style="fill: url(#uuid-5e970780-0860-4648-8c35-6151c178b1f6);"/>
      <path d="M608.62,410.81c-.86,.86-.86,2,0,2.57-.57-.86-.57-2,0-2.57Z" style="fill: url(#uuid-d77ffd47-d195-424e-af4f-e0d9bd342959);"/>
      <path d="M611.19,410.81c-.57-.86-1.71-.86-2.57,0-.57,.57-.57,1.71,0,2.57,.57,.86,1.71,.86,2.57,0,.16-.11,.28-.24,.38-.38,.43-.61,.31-1.49-.38-2.19Z" style="fill: #fff;"/>
      <path d="M607.06,448.67c.84-.71,1.89-.67,2.7,.13s.84,1.86,.13,2.7c.05-.04,.1-.08,.15-.13l19.95-19.95v-5.71l-22.81,22.8s-.08,.1-.13,.15Z" style="fill: url(#uuid-71b1196e-e1ee-48e8-987d-0c64847fdfa4);"/>
      <path d="M609.76,448.8c-.81-.81-1.86-.84-2.7-.13-.05,.04-.11,.08-.16,.13-.86,.86-.86,2,0,2.86,.86,.86,2,.86,2.86,0,.05-.05,.09-.11,.13-.16,.71-.84,.67-1.89-.13-2.7Z" style="fill: #fff;"/>
      <path d="M485.18,649.05c1.43,1.14,1.43,2.86,.29,4-.2,.2-.42,.34-.66,.46,.35-.1,.67-.25,.94-.46l144.25-144.21v-6.29l-145.82,145.78c.36,.17,.7,.41,1.01,.71Z" style="fill: url(#uuid-32a74fa8-dc81-46fd-a288-f207ed5913cd);"/>
      <path d="M480.74,651.78c.17,.32,.4,.64,.7,.95-.29-.3-.51-.65-.65-1l-.05,.05Z" style="fill: url(#uuid-16d266ff-e772-4b00-ac9f-8717e4a07cfc);"/>
      <path d="M480.74,651.78l.05-.05c-.39-1-.23-2.13,.39-2.96,.84-.84,1.99-.9,2.99-.43l145.82-145.78v-2.85l-148.82,148.78c-.89,.89-1.08,2.12-.45,3.3Z" style="fill: url(#uuid-721bea61-8f44-4214-b4a7-7579fd65d480);"/>
      <path d="M480.74,651.78l.05-.05c-.39-1-.23-2.13,.39-2.96,.84-.84,1.99-.9,2.99-.43l145.82-145.78v-2.85l-148.82,148.78c-.89,.89-1.08,2.12-.45,3.3Z" style="fill: url(#uuid-201c4b84-829d-471d-a4e9-18153919e700);"/>
      <path d="M485.18,649.05c-.3-.3-.65-.54-1.01-.71-1-.48-2.15-.42-2.99,.43-.62,.83-.79,1.96-.39,2.96,.14,.36,.35,.7,.65,1,.01,.01,.02,.02,.03,.03,.94,.94,2.27,1.29,3.35,.74,.23-.12,.45-.26,.66-.46,1.14-1.14,1.14-2.86-.29-4Z" style="fill: #fff;"/>
      <path d="M541.47,611.06c1.14,.86,1.14,2.86,0,3.71-.71,.71-2,.82-3.07,.36,.97,.77,2.61,.65,3.36-.36l88.24-88.22v-4.93l-89.1,89.11c.2,.09,.39,.2,.57,.33Z" style="fill: url(#uuid-086f6dc5-0751-4901-a993-e7f5455b52ca);"/>
      <path d="M540.9,610.73l89.1-89.11v-2.49l-91.49,91.46c.72-.27,1.61-.22,2.39,.14Z" style="fill: url(#uuid-9fffa849-6e10-4b1d-b63d-99f24631a77f);"/>
      <path d="M540.9,610.73l89.1-89.11v-2.49l-91.49,91.46c.72-.27,1.61-.22,2.39,.14Z" style="fill: url(#uuid-a7e62c9e-237c-4886-8894-10aad9431f09);"/>
      <path d="M541.47,614.77c1.14-.86,1.14-2.86,0-3.71-.18-.13-.37-.24-.57-.33-.77-.36-1.67-.41-2.39-.14-.29,.11-.55,.26-.76,.47-.97,.97-1.11,2.34-.44,3.25,.12,.17,.26,.33,.44,.46,.2,.15,.42,.26,.64,.36,1.07,.46,2.37,.35,3.07-.36Z" style="fill: #fff;"/>
      <path d="M229.73,559.92l-154.58,154.83c-1.43-.86-3.43-1.43-5.43-1.43-5.43,0-10,4.57-10,10,0,5.71,4.57,10,10,10s10-4.57,10-10c0-2-.57-3.71-1.43-5.43l153.44-153.4h16.29v-4.57h-18.29Z" style="fill: #1a88c9;"/>
      <polygon points="515.34 376.09 330.31 559.92 316.31 559.92 311.74 559.92 253.45 559.92 253.45 564.49 307.17 564.49 311.74 564.49 332.31 564.49 564.62 333.39 563.52 332.29 561.47 330.25 515.34 376.09" style="fill: #1a88c9;"/>
      <path d="M253.45,515.65l216.02-209.39-4-4-217.45,210.82v125.41L56.58,829.87c-2-1.14-4-2-6.57-2-6.86,0-12.57,5.72-12.57,12.57s5.43,12.57,12.29,12.86c6.86,0,12.57-5.72,12.57-12.57,0-2.29-.86-4.57-2-6.57l193.16-193.11v-125.41Z" style="fill: #1a88c9;"/>
    </g>
  </g>
</svg>