<svg width="19" height="19" viewBox="0 0 19 19" fill="none" xmlns="http://www.w3.org/2000/svg">
<path fill-rule="evenodd" clip-rule="evenodd" d="M9.5 8.74963C8.87975 8.74963 8.375 8.24488 8.375 7.62462C8.375 7.00437 8.87975 6.49962 9.5 6.49962C10.1203 6.49962 10.625 7.00437 10.625 7.62462C10.625 8.24488 10.1203 8.74963 9.5 8.74963M9.5 4.99963C8.0525 4.99963 6.875 6.17713 6.875 7.62463C6.875 9.07213 8.0525 10.2496 9.5 10.2496C10.9475 10.2496 12.125 9.07213 12.125 7.62463C12.125 6.17713 10.9475 4.99963 9.5 4.99963M9.5 15.2345C8.24375 14.0465 5 10.7113 5 7.9415C5 5.49275 7.01825 3.5 9.5 3.5C11.9818 3.5 14 5.49275 14 7.9415C14 10.7113 10.7562 14.0465 9.5 15.2345M9.5 2C6.19175 2 3.5 4.66475 3.5 7.9415C3.5 12.0477 8.78675 16.6257 9.01175 16.8185C9.15275 16.9392 9.326 17 9.5 17C9.674 17 9.84725 16.9392 9.98825 16.8185C10.2133 16.6257 15.5 12.0477 15.5 7.9415C15.5 4.66475 12.8082 2 9.5 2" fill="white"/>
</svg>
