<svg width="63" height="63" viewBox="0 0 63 63" fill="none" xmlns="http://www.w3.org/2000/svg">
<g clip-path="url(#clip0_2377_824)">
<path d="M62.1909 42.3476L52.7231 32.8783C55.0105 29.8642 56.4385 26.2511 56.8048 22.4631C57.2532 17.8143 56.0953 13.1173 53.544 9.23704C53.2638 8.81119 52.6914 8.69295 52.266 8.97317C51.8401 9.25339 51.7219 9.82584 52.0021 10.2517C56.8302 17.5941 55.8175 27.4412 49.594 33.6652C42.3252 40.9345 30.4987 40.9345 23.2303 33.6652C15.9615 26.3958 15.9615 14.5675 23.2303 7.2981C30.4987 0.0287342 42.3256 0.0287342 49.5916 7.2957L49.6421 7.34664C50.0016 7.70809 50.5856 7.7105 50.9471 7.35097C51.309 6.99192 51.3109 6.40745 50.9519 6.046L50.899 5.99265C42.9106 -1.99625 29.9133 -1.99625 21.9249 5.99265C21.674 6.24355 21.4313 6.49926 21.1962 6.75977H0.92285C0.41336 6.75977 0 7.17313 0 7.68262V11.7643C0 12.2743 0.41336 12.6876 0.92285 12.6876C1.43282 12.6876 1.8457 12.2743 1.8457 11.7643V8.60595H19.7158C19.0107 9.59657 18.4041 10.6357 17.8961 11.711H6.39842C5.88893 11.711 5.47557 12.1238 5.47557 12.6338C5.47557 13.1438 5.88893 13.5567 6.39842 13.5567H17.1323C16.8675 14.2978 16.6469 15.051 16.47 15.8128H6.39842C5.88893 15.8128 5.47557 16.2257 5.47557 16.7357C5.47557 17.2452 5.88893 17.6585 6.39842 17.6585H16.1287C16.0254 18.4069 15.9634 19.1601 15.9427 19.9142H6.39842C5.88893 19.9142 5.47557 20.3276 5.47557 20.8376C5.47557 21.347 5.88893 21.7604 6.39842 21.7604H15.9749C16.1412 24.4415 16.829 27.0956 18.0408 29.5551H16.4887C15.9788 29.5551 15.5659 29.9685 15.5659 30.4785V57.7986C15.5659 58.3086 15.9788 58.722 16.4887 58.722H23.8715C24.3815 58.722 24.7944 58.3086 24.7944 57.7986V37.3609C25.6254 37.9333 26.4892 38.438 27.3784 38.874V57.7986C27.3784 58.3086 27.7917 58.722 28.3012 58.722H35.684C36.194 58.722 36.6069 58.3086 36.6069 57.7986V40.9605C37.3264 40.9533 38.045 40.9095 38.7607 40.8278V55.0835C38.7607 55.5934 39.1735 56.0068 39.6835 56.0068C40.193 56.0068 40.6063 55.5934 40.6063 55.0835V40.5308C43.5234 39.9252 46.3328 38.6803 48.8082 36.7956L58.2741 46.263C58.7975 46.786 59.493 47.0744 60.2323 47.0744C60.972 47.0744 61.6675 46.786 62.1905 46.263C63.2695 45.1844 63.27 43.4281 62.1909 42.3476ZM22.9487 56.8758H17.4116V31.4013H19.0742C19.8725 32.6688 20.8223 33.8675 21.9249 34.9706C22.2575 35.3032 22.5997 35.6209 22.9487 35.9257V56.8758ZM29.2245 56.8758V39.668C31.0145 40.3356 32.8794 40.7442 34.7616 40.8951V56.8758H29.2245ZM60.886 44.9576C60.7115 45.1321 60.4793 45.2282 60.2328 45.2282C59.9862 45.2282 59.754 45.1321 59.58 44.9576L50.2309 35.608C50.4573 35.4008 50.6803 35.1893 50.899 34.9706C51.1172 34.7524 51.3297 34.5299 51.5368 34.3025L60.885 43.6526C61.245 44.0126 61.2455 44.5985 60.886 44.9576Z" fill="url(#paint0_linear_2377_824)"/>
<path d="M39.6836 58.1391C39.1741 58.1391 38.7607 58.552 38.7607 59.062V61.1543H1.8457V15.7634C1.8457 15.2535 1.43282 14.8406 0.922852 14.8406C0.413361 14.8406 0 15.2535 0 15.7634V62.0771C0 62.5871 0.413361 63 0.922852 63H39.6836C40.1936 63 40.6064 62.5871 40.6064 62.0771V59.062C40.6064 58.552 40.1936 58.1391 39.6836 58.1391Z" fill="url(#paint1_linear_2377_824)"/>
<path d="M3.99902 37.861V57.7979C3.99902 58.3074 4.41238 58.7208 4.92188 58.7208H12.3052C12.8147 58.7208 13.228 58.3074 13.228 57.7979V37.861C13.228 37.3515 12.8147 36.9381 12.3052 36.9381H4.92188C4.41238 36.9381 3.99902 37.3515 3.99902 37.861ZM5.84473 38.7843H11.3823V56.8746H5.84473V38.7843Z" fill="url(#paint2_linear_2377_824)"/>
<path d="M13.2992 25.8624C13.8091 25.8624 14.222 25.4491 14.222 24.9391C14.222 24.4296 13.8091 24.0162 13.2992 24.0162H6.39844C5.88895 24.0162 5.47559 24.4296 5.47559 24.9391C5.47559 25.4491 5.88895 25.8624 6.39844 25.8624H13.2992Z" fill="url(#paint3_linear_2377_824)"/>
<path d="M36.4122 3.68994C31.921 3.68994 27.7028 5.43471 24.5353 8.60268C21.3678 11.7707 19.623 15.9893 19.623 20.481C19.623 24.9727 21.3678 29.1914 24.5353 32.3594C27.7033 35.5274 31.921 37.2721 36.4122 37.2721C40.9034 37.2721 45.1211 35.5274 48.2891 32.3594C51.4566 29.1914 53.2009 24.9727 53.2009 20.481C53.2009 15.9893 51.4566 11.7707 48.2891 8.60268C45.1211 5.43471 40.9034 3.68994 36.4122 3.68994ZM46.9837 31.0539C44.1646 33.8734 40.4103 35.4259 36.4122 35.4259C32.4137 35.4259 28.6598 33.8734 25.8408 31.0539C23.0213 28.2344 21.4688 24.4796 21.4688 20.481C21.4688 16.482 23.0213 12.7272 25.8408 9.90765C28.755 6.99298 32.5838 5.53516 36.4122 5.53516C40.2406 5.53516 44.0695 6.99298 46.9837 9.90765C49.8027 12.7272 51.3552 16.482 51.3552 20.481C51.3552 24.4796 49.8027 28.2344 46.9837 31.0539Z" fill="url(#paint4_linear_2377_824)"/>
</g>
<defs>
<linearGradient id="paint0_linear_2377_824" x1="-5.88577e-08" y1="37.6759" x2="63.0003" y2="37.6598" gradientUnits="userSpaceOnUse">
<stop stop-color="#505099" stop-opacity="0.5"/>
<stop offset="0.229167" stop-color="#53539C"/>
<stop offset="0.505208" stop-color="#208BC9"/>
<stop offset="1" stop-color="#1DA29E"/>
</linearGradient>
<linearGradient id="paint1_linear_2377_824" x1="-3.79365e-08" y1="45.7393" x2="40.6066" y2="45.7311" gradientUnits="userSpaceOnUse">
<stop stop-color="#505099" stop-opacity="0.5"/>
<stop offset="0.229167" stop-color="#53539C"/>
<stop offset="0.505208" stop-color="#208BC9"/>
<stop offset="1" stop-color="#1DA29E"/>
</linearGradient>
<linearGradient id="paint2_linear_2377_824" x1="3.99902" y1="50.9137" x2="13.2281" y2="50.9128" gradientUnits="userSpaceOnUse">
<stop stop-color="#505099" stop-opacity="0.5"/>
<stop offset="0.229167" stop-color="#53539C"/>
<stop offset="0.505208" stop-color="#208BC9"/>
<stop offset="1" stop-color="#1DA29E"/>
</linearGradient>
<linearGradient id="paint3_linear_2377_824" x1="5.47559" y1="25.2007" x2="14.222" y2="25.1909" gradientUnits="userSpaceOnUse">
<stop stop-color="#505099" stop-opacity="0.5"/>
<stop offset="0.229167" stop-color="#53539C"/>
<stop offset="0.505208" stop-color="#208BC9"/>
<stop offset="1" stop-color="#1DA29E"/>
</linearGradient>
<linearGradient id="paint4_linear_2377_824" x1="19.623" y1="25.236" x2="53.201" y2="25.228" gradientUnits="userSpaceOnUse">
<stop stop-color="#505099" stop-opacity="0.5"/>
<stop offset="0.229167" stop-color="#53539C"/>
<stop offset="0.505208" stop-color="#208BC9"/>
<stop offset="1" stop-color="#1DA29E"/>
</linearGradient>
<clipPath id="clip0_2377_824">
<rect width="63" height="63" fill="white"/>
</clipPath>
</defs>
</svg>
