<svg width="42" height="42" viewBox="0 0 42 42" fill="none" xmlns="http://www.w3.org/2000/svg">
<path fill-rule="evenodd" clip-rule="evenodd" d="M30.5413 15.7374C30.6796 15.2626 30.5413 14.9131 29.8788 14.9131H27.6913C27.1347 14.9131 26.878 15.2148 26.7388 15.5479C26.7388 15.5479 25.6264 18.3269 24.0506 20.1321C23.5406 20.6556 23.3089 20.8217 23.0306 20.8217C22.8914 20.8217 22.6823 20.6556 22.6823 20.1799V15.7374C22.6823 15.167 22.5289 14.9131 22.0656 14.9131H18.6257C18.2782 14.9131 18.069 15.1774 18.069 15.4287C18.069 15.9687 18.8573 16.0939 18.9382 17.6139V20.9164C18.9382 21.6408 18.8107 21.7721 18.5323 21.7721C17.7907 21.7721 15.9866 18.98 14.9158 15.7852C14.7083 15.1635 14.4983 14.9131 13.9391 14.9131H11.75C11.125 14.9131 11 15.2148 11 15.5479C11 16.1409 11.7417 19.0869 14.4541 22.9834C16.2624 25.6442 18.8082 27.0867 21.1273 27.0867C22.5181 27.0867 22.6898 26.7667 22.6898 26.2146V24.2033C22.6898 23.5625 22.8214 23.4346 23.2622 23.4346C23.5872 23.4346 24.1431 23.6016 25.4414 24.8842C26.9247 26.405 27.1688 27.0867 28.0038 27.0867H30.1913C30.8163 27.0867 31.1296 26.7667 30.9496 26.1337C30.7513 25.5042 30.0429 24.5903 29.1038 23.5059C28.5938 22.8886 27.8288 22.2234 27.5963 21.8903C27.2722 21.4634 27.3647 21.273 27.5963 20.893C27.5963 20.893 30.2629 17.0443 30.5404 15.7374H30.5413Z" fill="white"/>
</svg>
