<svg width="42" height="42" viewBox="0 0 42 42" fill="none" xmlns="http://www.w3.org/2000/svg">
<path fill-rule="evenodd" clip-rule="evenodd" d="M30.7857 16.8243C30.6771 16.0756 30.4086 15.362 30 14.7363C29.4556 14.2006 28.747 13.8836 28 13.8415C25.2143 13.6924 21 13.6924 21 13.6924C21 13.6924 16.7857 13.6924 14 13.9161C13.2489 13.8601 12.5138 14.1616 12 14.7363C11.5809 15.3561 11.3114 16.0724 11.2143 16.8243C11.0827 17.9377 11.0112 19.058 11 20.1798V21.7458C11.0076 22.8677 11.0791 23.9882 11.2143 25.1013C11.3229 25.85 11.5914 26.5636 12 27.1892C12.615 27.7488 13.3986 28.0655 14.2143 28.0841C15.7857 28.2332 21 28.3078 21 28.3078C21 28.3078 25.2143 28.3078 28 28.0841C28.747 28.042 29.4556 27.725 30 27.1892C30.4191 26.5694 30.6886 25.8532 30.7857 25.1013C30.9172 23.9879 30.9888 22.8676 31 21.7458V20.1798C30.9888 19.058 30.9172 17.9377 30.7857 16.8243ZM18.9286 23.6848V17.7939L24.3571 20.7021L18.9286 23.6848Z" fill="white"/>
</svg>
